<svg width="68" height="64" viewBox="0 0 68 64" fill="none" xmlns="http://www.w3.org/2000/svg">
<path d="M33.9583 0.34928C27.5028 0.34928 21.6311 2.36584 17.3224 5.69866C15.3494 7.22416 13.7024 9.03991 12.4947 11.0621C5.79255 13.0241 1.87558 17.4538 0.822297 23.4964L0.695312 23.5645V24.352L0.739609 25.9797L2.62863 25.5108C5.29853 24.0838 7.6855 22.5804 10.4347 21.5564C10.5289 22.256 10.6589 22.9791 10.822 23.7195C5.68089 27.2455 3.4562 32.2152 4.03136 37.9063L4.34256 39.9785L6.80181 38.9074C9.17641 36.6584 11.2674 34.4431 14.1157 32.7677C14.3992 33.335 14.6942 33.8964 15.0007 34.4515C10.0268 39.5481 9.04422 45.548 11.6389 51.4925L15.5286 49.3944C16.5616 47.7294 17.7706 44.9976 20.6811 42.4506C20.644 41.2506 20.7841 40.0517 21.0966 38.8925C20.4333 38.0671 19.8064 37.2131 19.2179 36.3328C15.295 30.4744 12.8785 23.3029 12.8785 18.9825C12.8785 14.662 15.1324 10.7143 18.9299 7.77723C22.7275 4.84014 28.0525 2.977 33.958 2.977C34.8834 2.977 35.7943 3.02284 36.6876 3.1113C35.0589 3.82539 33.6937 4.97626 32.7955 6.532C30.1717 11.0766 32.5252 17.3475 38.0525 20.5387C43.5796 23.7299 50.187 22.6326 52.8111 18.0879C53.5845 16.7481 53.922 15.2582 53.8766 13.7414C54.6315 15.3895 55.0373 17.1523 55.0373 18.9825C55.0373 23.3029 52.6214 30.4744 48.6986 36.3328C48.1052 37.2188 47.4794 38.0724 46.8265 38.8838C47.1086 39.9265 47.2513 41.0021 47.2506 42.0823C47.2506 42.2609 47.2458 42.4381 47.2382 42.6145C50.3894 45.5121 51.8409 48.7582 52.8239 50.2076L55.8192 52.5444C58.4137 46.5997 57.8807 39.5683 52.9153 34.4525C53.222 33.8972 53.5172 33.3355 53.8007 32.7678C56.649 34.4432 58.7401 36.6584 61.1148 38.9075L63.9112 40.9358L63.885 37.9063C64.4606 32.2152 62.2355 27.2451 57.0947 23.7193C57.2578 22.9791 57.3879 22.256 57.4819 21.5565C60.2312 22.5805 62.6181 24.084 65.288 25.5109L67.2649 26.0557L67.0941 23.4963C66.0408 17.4539 62.124 13.024 55.4219 11.0618C54.2142 9.03962 52.567 7.22416 50.5943 5.69837C46.2855 2.36584 40.4137 0.348999 33.9583 0.348999V0.34928ZM10.9732 14.4095C10.5147 15.8366 10.264 17.3314 10.2526 18.873C7.93089 19.6512 5.89577 20.7194 3.94867 21.7929C5.02923 18.4225 7.25237 15.9872 10.9729 14.4095H10.9732ZM56.9438 14.4095C60.6647 15.9873 62.8876 18.4227 63.968 21.7932C62.0209 20.7195 59.9859 19.6515 57.6642 18.8733C57.6527 17.3317 57.4021 15.8367 56.9438 14.4095ZM56.3655 26.4482C59.684 28.9292 61.2252 31.8822 61.3394 35.501C59.46 33.7061 57.4596 31.885 54.895 30.4125C55.4687 29.0774 55.9609 27.7475 56.3655 26.4482ZM11.5511 26.4482C11.9559 27.7478 12.4483 29.0776 13.0218 30.4128C10.4572 31.8851 8.45711 33.706 6.57766 35.5009C6.69198 31.882 8.23281 28.9295 11.5513 26.4483L11.5511 26.4482ZM33.9631 31.9761C28.0273 31.9761 23.3033 36.5197 23.3033 42.0824C23.3033 47.6453 28.0275 52.1887 33.9631 52.1887C39.8989 52.1887 44.6228 47.6451 44.6228 42.0824C44.6228 36.5197 39.8987 31.9761 33.9631 31.9761ZM16.4064 36.8283C16.6117 37.1531 16.8206 37.4758 17.0345 37.7953C17.6496 38.715 18.3022 39.609 18.9906 40.4751C16.3801 42.7626 14.7108 45.3579 13.1879 47.877C12.1989 43.9508 13.1423 40.4003 16.4064 36.8283ZM51.5106 36.8283C54.7745 40.4001 55.7181 43.9509 54.7289 47.8769C53.206 45.3577 51.5367 42.7623 48.9262 40.4749C49.6146 39.6089 50.2672 38.7149 50.8823 37.7953C51.096 37.4761 51.305 37.1531 51.5104 36.8284L51.5106 36.8283ZM26.5544 39.8776C27.2754 39.8916 28.0872 40.4069 28.5963 41.2481C29.2752 42.3697 29.1592 43.6457 28.337 44.0986C27.5147 44.5514 26.2979 44.0094 25.619 42.8878C24.94 41.7662 25.0561 40.4896 25.8782 40.0367C26.0838 39.9235 26.3141 39.8728 26.5546 39.8776H26.5544ZM41.3622 39.8776C41.6027 39.8728 41.833 39.9235 42.0386 40.0367C42.8607 40.4896 42.9766 41.7662 42.2978 42.8878C41.6189 44.0094 40.4018 44.5514 39.5795 44.0986C38.7573 43.6457 38.6413 42.3697 39.3202 41.2481C39.8293 40.4069 40.6414 39.8916 41.3624 39.8776H41.3622ZM29.4024 45.8598C30.1233 45.8713 30.9352 46.3017 31.4445 47.0044C32.1235 47.9417 32.0074 49.0083 31.1852 49.3866C30.363 49.7649 29.1459 49.3117 28.4669 48.3745C27.788 47.4377 27.9041 46.3712 28.7264 45.9929C28.9317 45.8983 29.1619 45.8558 29.4022 45.8598H29.4024ZM38.5142 45.8598C38.7546 45.8555 38.985 45.8981 39.1906 45.9928C40.0127 46.3711 40.1285 47.4376 39.4497 48.3745C38.7708 49.3118 37.5541 49.7649 36.7317 49.3866C35.9095 49.0083 35.7932 47.9418 36.4721 47.0047C36.9812 46.3016 37.7932 45.8713 38.514 45.8596L38.5142 45.8598ZM21.3855 46.1936C19.6417 48.1206 18.6166 50.4677 18.6166 53.0045C18.6166 57.2342 21.5011 60.9114 25.7762 63.026C25.5343 62.2718 25.3113 61.4603 25.3113 60.6314C25.3113 57.8417 26.7862 55.3763 29.0308 53.9045C25.4609 52.5303 22.6408 49.7116 21.3853 46.1935L21.3855 46.1936ZM46.5382 46.2006C45.267 49.7565 42.3971 52.5971 38.7705 53.9522C40.9755 55.4291 42.4202 57.8714 42.4202 60.6316C42.4202 61.495 42.2162 62.3337 41.9552 63.115C46.3312 61.0169 49.3007 57.2938 49.3007 53.0045C49.3007 50.4708 48.2783 48.1262 46.5382 46.2006Z" fill="#C246CC"/>
</svg>
