<svg width="200" height="275" viewBox="0 0 200 275" fill="none" xmlns="http://www.w3.org/2000/svg">
<g filter="url(#filter0_b_177_174)">
<rect width="200" height="275" rx="15" fill="#05184B"/>
<rect x="0.5" y="0.5" width="199" height="274" rx="14.5" stroke="#00349A"/>
<rect x="33" y="38" width="53" height="50" rx="15" fill="#00349A" fill-opacity="0.5"/>
<path d="M58.8335 68.8333H61.1668V61.8333H58.8335V68.8333ZM60.0002 59.4999C60.3307 59.4999 60.608 59.3879 60.832 59.1639C61.056 58.9399 61.1676 58.663 61.1668 58.3333C61.1668 58.0027 61.0548 57.7258 60.8308 57.5026C60.6068 57.2794 60.3299 57.1674 60.0002 57.1666C59.6696 57.1666 59.3927 57.2786 59.1695 57.5026C58.9463 57.7266 58.8343 58.0035 58.8335 58.3333C58.8335 58.6638 58.9455 58.9411 59.1695 59.1651C59.3935 59.3891 59.6704 59.5007 60.0002 59.4999ZM60.0002 74.6666C58.3863 74.6666 56.8696 74.3601 55.4502 73.7473C54.0307 73.1344 52.796 72.3033 51.746 71.2541C50.696 70.2041 49.8649 68.9694 49.2528 67.5499C48.6407 66.1305 48.3343 64.6138 48.3335 62.9999C48.3335 61.386 48.6399 59.8694 49.2528 58.4499C49.8657 57.0305 50.6968 55.7958 51.746 54.7458C52.796 53.6958 54.0307 52.8647 55.4502 52.2526C56.8696 51.6405 58.3863 51.334 60.0002 51.3333C61.6141 51.3333 63.1307 51.6397 64.5502 52.2526C65.9696 52.8655 67.2043 53.6965 68.2543 54.7458C69.3043 55.7958 70.1358 57.0305 70.7487 58.4499C71.3616 59.8694 71.6676 61.386 71.6668 62.9999C71.6668 64.6138 71.3604 66.1305 70.7475 67.5499C70.1346 68.9694 69.3036 70.2041 68.2543 71.2541C67.2043 72.3041 65.9696 73.1355 64.5502 73.7484C63.1307 74.3613 61.6141 74.6674 60.0002 74.6666ZM60.0002 72.3333C62.6057 72.3333 64.8127 71.4291 66.621 69.6208C68.4293 67.8124 69.3335 65.6055 69.3335 62.9999C69.3335 60.3944 68.4293 58.1874 66.621 56.3791C64.8127 54.5708 62.6057 53.6666 60.0002 53.6666C57.3946 53.6666 55.1877 54.5708 53.3793 56.3791C51.571 58.1874 50.6668 60.3944 50.6668 62.9999C50.6668 65.6055 51.571 67.8124 53.3793 69.6208C55.1877 71.4291 57.3946 72.3333 60.0002 72.3333Z" fill="#B2B2B2"/>
<path d="M39.255 137.335C39.729 137.335 40.128 137.281 40.452 137.173C40.782 137.059 41.049 136.906 41.253 136.714C41.463 136.522 41.613 136.297 41.703 136.039C41.799 135.775 41.847 135.493 41.847 135.193C41.847 134.581 41.637 134.101 41.217 133.753C40.803 133.399 40.146 133.222 39.246 133.222H36.645V137.335H39.255ZM36.645 127.687V131.737H38.751C39.651 131.737 40.323 131.563 40.767 131.215C41.211 130.867 41.433 130.366 41.433 129.712C41.433 128.998 41.223 128.482 40.803 128.164C40.389 127.846 39.738 127.687 38.85 127.687H36.645ZM38.85 126.04C39.678 126.04 40.386 126.121 40.974 126.283C41.562 126.439 42.045 126.664 42.423 126.958C42.801 127.252 43.077 127.612 43.251 128.038C43.431 128.458 43.521 128.932 43.521 129.46C43.521 129.766 43.473 130.063 43.377 130.351C43.287 130.633 43.143 130.9 42.945 131.152C42.753 131.398 42.51 131.62 42.216 131.818C41.922 132.016 41.574 132.181 41.172 132.313C43.008 132.703 43.926 133.678 43.926 135.238C43.926 135.79 43.821 136.297 43.611 136.759C43.407 137.215 43.107 137.611 42.711 137.947C42.321 138.277 41.838 138.535 41.262 138.721C40.686 138.907 40.029 139 39.291 139H34.539V126.04H38.85ZM50.3071 129.676C50.9851 129.676 51.5971 129.787 52.1431 130.009C52.6951 130.231 53.1631 130.546 53.5471 130.954C53.9371 131.362 54.2371 131.857 54.4471 132.439C54.6571 133.021 54.7621 133.675 54.7621 134.401C54.7621 135.127 54.6571 135.781 54.4471 136.363C54.2371 136.945 53.9371 137.443 53.5471 137.857C53.1631 138.265 52.6951 138.58 52.1431 138.802C51.5971 139.024 50.9851 139.135 50.3071 139.135C49.6231 139.135 49.0051 139.024 48.4531 138.802C47.9071 138.58 47.4391 138.265 47.0491 137.857C46.6591 137.443 46.3591 136.945 46.1491 136.363C45.9391 135.781 45.8341 135.127 45.8341 134.401C45.8341 133.675 45.9391 133.021 46.1491 132.439C46.3591 131.857 46.6591 131.362 47.0491 130.954C47.4391 130.546 47.9071 130.231 48.4531 130.009C49.0051 129.787 49.6231 129.676 50.3071 129.676ZM50.3071 137.623C51.1351 137.623 51.7501 137.347 52.1521 136.795C52.5601 136.237 52.7641 135.442 52.7641 134.41C52.7641 133.378 52.5601 132.583 52.1521 132.025C51.7501 131.461 51.1351 131.179 50.3071 131.179C49.4671 131.179 48.8431 131.461 48.4351 132.025C48.0271 132.583 47.8231 133.378 47.8231 134.41C47.8231 135.442 48.0271 136.237 48.4351 136.795C48.8431 137.347 49.4671 137.623 50.3071 137.623ZM64.9013 129.82V139H63.7313C63.4733 139 63.3083 138.877 63.2363 138.631L63.0923 137.776C62.9003 137.98 62.6963 138.166 62.4803 138.334C62.2703 138.502 62.0453 138.646 61.8053 138.766C61.5653 138.886 61.3073 138.979 61.0313 139.045C60.7613 139.111 60.4703 139.144 60.1583 139.144C59.6543 139.144 59.2103 139.06 58.8263 138.892C58.4423 138.724 58.1183 138.487 57.8543 138.181C57.5963 137.875 57.4013 137.509 57.2693 137.083C57.1373 136.651 57.0713 136.177 57.0713 135.661V129.82H59.0063V135.661C59.0063 136.279 59.1473 136.759 59.4293 137.101C59.7173 137.443 60.1523 137.614 60.7343 137.614C61.1603 137.614 61.5563 137.518 61.9223 137.326C62.2943 137.128 62.6423 136.858 62.9663 136.516V129.82H64.9013ZM69.6002 131.035C69.7982 130.831 70.0022 130.648 70.2122 130.486C70.4282 130.318 70.6562 130.174 70.8962 130.054C71.1362 129.934 71.3912 129.841 71.6612 129.775C71.9312 129.709 72.2252 129.676 72.5432 129.676C73.0472 129.676 73.4882 129.76 73.8662 129.928C74.2502 130.096 74.5712 130.333 74.8292 130.639C75.0932 130.945 75.2912 131.314 75.4232 131.746C75.5552 132.172 75.6212 132.643 75.6212 133.159V139H73.6952V133.159C73.6952 132.541 73.5512 132.061 73.2632 131.719C72.9812 131.377 72.5492 131.206 71.9672 131.206C71.5352 131.206 71.1332 131.305 70.7612 131.503C70.3952 131.701 70.0502 131.971 69.7262 132.313V139H67.7912V129.82H68.9612C69.2252 129.82 69.3932 129.943 69.4652 130.189L69.6002 131.035ZM84.91 131.62C84.85 131.698 84.793 131.758 84.739 131.8C84.685 131.842 84.607 131.863 84.505 131.863C84.403 131.863 84.295 131.827 84.181 131.755C84.073 131.683 83.941 131.605 83.785 131.521C83.635 131.431 83.452 131.35 83.236 131.278C83.02 131.206 82.75 131.17 82.426 131.17C82.006 131.17 81.637 131.245 81.319 131.395C81.007 131.545 80.743 131.761 80.527 132.043C80.317 132.319 80.158 132.658 80.05 133.06C79.948 133.456 79.897 133.903 79.897 134.401C79.897 134.917 79.954 135.376 80.068 135.778C80.182 136.18 80.344 136.519 80.554 136.795C80.77 137.071 81.028 137.281 81.328 137.425C81.634 137.569 81.976 137.641 82.354 137.641C82.726 137.641 83.029 137.596 83.263 137.506C83.497 137.416 83.692 137.317 83.848 137.209C84.004 137.101 84.136 137.002 84.244 136.912C84.358 136.822 84.478 136.777 84.604 136.777C84.76 136.777 84.88 136.837 84.964 136.957L85.513 137.668C85.291 137.938 85.045 138.166 84.775 138.352C84.505 138.538 84.22 138.691 83.92 138.811C83.62 138.925 83.308 139.006 82.984 139.054C82.66 139.108 82.333 139.135 82.003 139.135C81.433 139.135 80.899 139.03 80.401 138.82C79.909 138.604 79.477 138.295 79.105 137.893C78.739 137.485 78.448 136.99 78.232 136.408C78.022 135.82 77.917 135.151 77.917 134.401C77.917 133.723 78.013 133.096 78.205 132.52C78.397 131.938 78.676 131.437 79.042 131.017C79.414 130.597 79.873 130.27 80.419 130.036C80.965 129.796 81.595 129.676 82.309 129.676C82.975 129.676 83.56 129.784 84.064 130C84.574 130.216 85.027 130.522 85.423 130.918L84.91 131.62ZM93.4723 133.375C93.4723 133.051 93.4243 132.751 93.3283 132.475C93.2383 132.193 93.1033 131.95 92.9233 131.746C92.7433 131.536 92.5183 131.374 92.2483 131.26C91.9843 131.14 91.6783 131.08 91.3303 131.08C90.6283 131.08 90.0763 131.281 89.6743 131.683C89.2723 132.085 89.0173 132.649 88.9093 133.375H93.4723ZM88.8553 134.563C88.8793 135.085 88.9603 135.538 89.0983 135.922C89.2363 136.3 89.4193 136.615 89.6473 136.867C89.8813 137.119 90.1573 137.308 90.4753 137.434C90.7993 137.554 91.1593 137.614 91.5553 137.614C91.9333 137.614 92.2603 137.572 92.5363 137.488C92.8123 137.398 93.0523 137.302 93.2563 137.2C93.4603 137.092 93.6343 136.996 93.7783 136.912C93.9223 136.822 94.0543 136.777 94.1743 136.777C94.3303 136.777 94.4503 136.837 94.5343 136.957L95.0833 137.668C94.8553 137.938 94.5973 138.166 94.3093 138.352C94.0213 138.538 93.7153 138.691 93.3913 138.811C93.0673 138.925 92.7343 139.006 92.3923 139.054C92.0503 139.108 91.7173 139.135 91.3933 139.135C90.7573 139.135 90.1663 139.03 89.6203 138.82C89.0803 138.604 88.6093 138.289 88.2073 137.875C87.8113 137.461 87.4993 136.948 87.2713 136.336C87.0493 135.724 86.9383 135.019 86.9383 134.221C86.9383 133.585 87.0373 132.991 87.2353 132.439C87.4393 131.887 87.7273 131.407 88.0993 130.999C88.4773 130.591 88.9333 130.27 89.4673 130.036C90.0073 129.796 90.6163 129.676 91.2943 129.676C91.8583 129.676 92.3803 129.769 92.8603 129.955C93.3403 130.135 93.7543 130.402 94.1023 130.756C94.4503 131.11 94.7203 131.545 94.9123 132.061C95.1103 132.571 95.2093 133.153 95.2093 133.807C95.2093 134.107 95.1763 134.308 95.1103 134.41C95.0443 134.512 94.9243 134.563 94.7503 134.563H88.8553ZM104.403 131.521C104.691 130.939 105.039 130.483 105.447 130.153C105.855 129.817 106.344 129.649 106.914 129.649C107.112 129.649 107.298 129.673 107.472 129.721C107.646 129.763 107.802 129.829 107.94 129.919L107.805 131.377C107.781 131.479 107.742 131.551 107.688 131.593C107.64 131.629 107.574 131.647 107.49 131.647C107.4 131.647 107.271 131.632 107.103 131.602C106.935 131.566 106.758 131.548 106.572 131.548C106.302 131.548 106.062 131.587 105.852 131.665C105.648 131.743 105.462 131.857 105.294 132.007C105.132 132.157 104.988 132.34 104.862 132.556C104.736 132.772 104.619 133.018 104.511 133.294V139H102.576V129.82H103.701C103.905 129.82 104.046 129.859 104.124 129.937C104.202 130.009 104.256 130.138 104.286 130.324L104.403 131.521ZM114.525 134.986C113.835 135.01 113.253 135.067 112.779 135.157C112.305 135.241 111.921 135.352 111.627 135.49C111.333 135.622 111.12 135.781 110.988 135.967C110.862 136.153 110.799 136.357 110.799 136.579C110.799 136.795 110.832 136.981 110.898 137.137C110.97 137.287 111.066 137.413 111.186 137.515C111.312 137.611 111.456 137.683 111.618 137.731C111.786 137.773 111.969 137.794 112.167 137.794C112.671 137.794 113.103 137.701 113.463 137.515C113.829 137.323 114.183 137.047 114.525 136.687V134.986ZM109.395 131.098C110.433 130.132 111.669 129.649 113.103 129.649C113.631 129.649 114.099 129.736 114.507 129.91C114.921 130.078 115.266 130.318 115.542 130.63C115.824 130.942 116.037 131.314 116.181 131.746C116.331 132.172 116.406 132.646 116.406 133.168V139H115.542C115.356 139 115.215 138.973 115.119 138.919C115.023 138.859 114.942 138.742 114.876 138.568L114.687 137.821C114.453 138.031 114.222 138.22 113.994 138.388C113.766 138.55 113.529 138.688 113.283 138.802C113.043 138.916 112.782 139 112.5 139.054C112.224 139.114 111.918 139.144 111.582 139.144C111.21 139.144 110.862 139.093 110.538 138.991C110.22 138.889 109.944 138.736 109.71 138.532C109.476 138.322 109.29 138.064 109.152 137.758C109.02 137.452 108.954 137.092 108.954 136.678C108.954 136.324 109.047 135.979 109.233 135.643C109.425 135.307 109.737 135.007 110.169 134.743C110.607 134.473 111.18 134.251 111.888 134.077C112.602 133.903 113.481 133.804 114.525 133.78V133.168C114.525 132.508 114.384 132.016 114.102 131.692C113.82 131.368 113.406 131.206 112.86 131.206C112.488 131.206 112.176 131.254 111.924 131.35C111.672 131.44 111.453 131.539 111.267 131.647C111.081 131.755 110.916 131.857 110.772 131.953C110.628 132.043 110.475 132.088 110.313 132.088C110.181 132.088 110.067 132.055 109.971 131.989C109.881 131.917 109.806 131.83 109.746 131.728L109.395 131.098ZM122.033 139.144C121.271 139.144 120.683 138.931 120.269 138.505C119.861 138.073 119.657 137.467 119.657 136.687V131.341H118.649C118.541 131.341 118.448 131.308 118.37 131.242C118.292 131.17 118.253 131.065 118.253 130.927V130.144L119.738 129.928L120.161 127.273C120.191 127.171 120.242 127.09 120.314 127.03C120.386 126.964 120.482 126.931 120.602 126.931H121.592V129.946H124.139V131.341H121.592V136.552C121.592 136.882 121.673 137.134 121.835 137.308C121.997 137.482 122.213 137.569 122.483 137.569C122.633 137.569 122.762 137.551 122.87 137.515C122.978 137.473 123.071 137.431 123.149 137.389C123.227 137.341 123.293 137.299 123.347 137.263C123.407 137.221 123.464 137.2 123.518 137.2C123.626 137.2 123.713 137.26 123.779 137.38L124.355 138.325C124.055 138.589 123.701 138.793 123.293 138.937C122.885 139.075 122.465 139.144 122.033 139.144ZM132.155 133.375C132.155 133.051 132.107 132.751 132.011 132.475C131.921 132.193 131.786 131.95 131.606 131.746C131.426 131.536 131.201 131.374 130.931 131.26C130.667 131.14 130.361 131.08 130.013 131.08C129.311 131.08 128.759 131.281 128.357 131.683C127.955 132.085 127.7 132.649 127.592 133.375H132.155ZM127.538 134.563C127.562 135.085 127.643 135.538 127.781 135.922C127.919 136.3 128.102 136.615 128.33 136.867C128.564 137.119 128.84 137.308 129.158 137.434C129.482 137.554 129.842 137.614 130.238 137.614C130.616 137.614 130.943 137.572 131.219 137.488C131.495 137.398 131.735 137.302 131.939 137.2C132.143 137.092 132.317 136.996 132.461 136.912C132.605 136.822 132.737 136.777 132.857 136.777C133.013 136.777 133.133 136.837 133.217 136.957L133.766 137.668C133.538 137.938 133.28 138.166 132.992 138.352C132.704 138.538 132.398 138.691 132.074 138.811C131.75 138.925 131.417 139.006 131.075 139.054C130.733 139.108 130.4 139.135 130.076 139.135C129.44 139.135 128.849 139.03 128.303 138.82C127.763 138.604 127.292 138.289 126.89 137.875C126.494 137.461 126.182 136.948 125.954 136.336C125.732 135.724 125.621 135.019 125.621 134.221C125.621 133.585 125.72 132.991 125.918 132.439C126.122 131.887 126.41 131.407 126.782 130.999C127.16 130.591 127.616 130.27 128.15 130.036C128.69 129.796 129.299 129.676 129.977 129.676C130.541 129.676 131.063 129.769 131.543 129.955C132.023 130.135 132.437 130.402 132.785 130.756C133.133 131.11 133.403 131.545 133.595 132.061C133.793 132.571 133.892 133.153 133.892 133.807C133.892 134.107 133.859 134.308 133.793 134.41C133.727 134.512 133.607 134.563 133.433 134.563H127.538Z" fill="#B2B2B2"/>
<path d="M48.744 187.752C49.1173 187.752 49.4107 187.864 49.624 188.088C49.8373 188.301 49.944 188.579 49.944 188.92V191H34.36V189.832C34.36 189.597 34.408 189.352 34.504 189.096C34.6 188.84 34.7547 188.605 34.968 188.392L42.136 181.208C42.744 180.6 43.2827 180.019 43.752 179.464C44.232 178.909 44.6373 178.355 44.968 177.8C45.3093 177.245 45.5653 176.685 45.736 176.12C45.9173 175.544 46.008 174.941 46.008 174.312C46.008 173.704 45.912 173.171 45.72 172.712C45.5387 172.243 45.2827 171.859 44.952 171.56C44.632 171.251 44.2427 171.021 43.784 170.872C43.336 170.712 42.84 170.632 42.296 170.632C41.7733 170.632 41.288 170.707 40.84 170.856C40.4027 171.005 40.008 171.213 39.656 171.48C39.3147 171.747 39.0267 172.067 38.792 172.44C38.568 172.803 38.4027 173.203 38.296 173.64C38.136 174.077 37.928 174.371 37.672 174.52C37.4267 174.669 37.064 174.701 36.584 174.616L34.776 174.296C34.936 173.208 35.2347 172.253 35.672 171.432C36.12 170.611 36.68 169.928 37.352 169.384C38.024 168.829 38.792 168.413 39.656 168.136C40.5307 167.848 41.4747 167.704 42.488 167.704C43.512 167.704 44.4507 167.859 45.304 168.168C46.168 168.467 46.9093 168.899 47.528 169.464C48.1573 170.019 48.648 170.696 49 171.496C49.352 172.296 49.528 173.197 49.528 174.2C49.528 175.053 49.4 175.843 49.144 176.568C48.8987 177.293 48.5627 177.987 48.136 178.648C47.7093 179.309 47.208 179.955 46.632 180.584C46.0667 181.203 45.4693 181.832 44.84 182.472L39.272 188.168C39.7307 188.04 40.1893 187.939 40.648 187.864C41.1173 187.789 41.56 187.752 41.976 187.752H48.744ZM61.8025 188.536C62.4958 188.536 63.1145 188.44 63.6585 188.248C64.2025 188.045 64.6558 187.768 65.0185 187.416C65.3918 187.053 65.6745 186.627 65.8665 186.136C66.0585 185.645 66.1545 185.112 66.1545 184.536C66.1545 183.832 66.0425 183.224 65.8185 182.712C65.6052 182.2 65.3012 181.779 64.9065 181.448C64.5225 181.107 64.0638 180.856 63.5305 180.696C62.9972 180.525 62.4212 180.44 61.8025 180.44C61.1838 180.44 60.6078 180.525 60.0745 180.696C59.5412 180.856 59.0772 181.107 58.6825 181.448C58.2985 181.779 57.9945 182.2 57.7705 182.712C57.5572 183.224 57.4505 183.832 57.4505 184.536C57.4505 185.112 57.5465 185.645 57.7385 186.136C57.9305 186.627 58.2078 187.053 58.5705 187.416C58.9438 187.768 59.4025 188.045 59.9465 188.248C60.4905 188.44 61.1092 188.536 61.8025 188.536ZM61.8025 170.344C61.1732 170.344 60.6185 170.44 60.1385 170.632C59.6692 170.824 59.2798 171.08 58.9705 171.4C58.6612 171.72 58.4265 172.099 58.2665 172.536C58.1172 172.963 58.0425 173.416 58.0425 173.896C58.0425 174.376 58.1065 174.845 58.2345 175.304C58.3732 175.763 58.5865 176.173 58.8745 176.536C59.1732 176.888 59.5625 177.171 60.0425 177.384C60.5225 177.597 61.1092 177.704 61.8025 177.704C62.4958 177.704 63.0825 177.597 63.5625 177.384C64.0425 177.171 64.4265 176.888 64.7145 176.536C65.0132 176.173 65.2265 175.763 65.3545 175.304C65.4932 174.845 65.5625 174.376 65.5625 173.896C65.5625 173.416 65.4825 172.963 65.3225 172.536C65.1732 172.099 64.9385 171.72 64.6185 171.4C64.3092 171.08 63.9198 170.824 63.4505 170.632C62.9812 170.44 62.4318 170.344 61.8025 170.344ZM65.4345 178.984C66.8532 179.421 67.9145 180.115 68.6185 181.064C69.3332 182.013 69.6905 183.192 69.6905 184.6C69.6905 185.613 69.4985 186.531 69.1145 187.352C68.7305 188.173 68.1918 188.872 67.4985 189.448C66.8052 190.024 65.9732 190.472 65.0025 190.792C64.0425 191.101 62.9758 191.256 61.8025 191.256C60.6292 191.256 59.5572 191.101 58.5865 190.792C57.6265 190.472 56.7998 190.024 56.1065 189.448C55.4132 188.872 54.8745 188.173 54.4905 187.352C54.1065 186.531 53.9145 185.613 53.9145 184.6C53.9145 183.192 54.2665 182.013 54.9705 181.064C55.6852 180.115 56.7518 179.421 58.1705 178.984C57.0185 178.525 56.1492 177.859 55.5625 176.984C54.9865 176.109 54.6985 175.059 54.6985 173.832C54.6985 172.968 54.8692 172.163 55.2105 171.416C55.5518 170.669 56.0318 170.024 56.6505 169.48C57.2798 168.925 58.0318 168.493 58.9065 168.184C59.7812 167.864 60.7465 167.704 61.8025 167.704C62.8585 167.704 63.8185 167.864 64.6825 168.184C65.5572 168.493 66.3038 168.925 66.9225 169.48C67.5518 170.024 68.0372 170.669 68.3785 171.416C68.7305 172.163 68.9065 172.968 68.9065 173.832C68.9065 175.059 68.6132 176.109 68.0265 176.984C67.4505 177.859 66.5865 178.525 65.4345 178.984ZM73.613 189.016C73.613 188.707 73.6663 188.419 73.773 188.152C73.8903 187.875 74.045 187.635 74.237 187.432C74.4397 187.229 74.6743 187.069 74.941 186.952C75.2183 186.835 75.5117 186.776 75.821 186.776C76.1303 186.776 76.4183 186.835 76.685 186.952C76.9623 187.069 77.2023 187.229 77.405 187.432C77.6077 187.635 77.7677 187.875 77.885 188.152C78.0023 188.419 78.061 188.707 78.061 189.016C78.061 189.336 78.0023 189.629 77.885 189.896C77.7677 190.163 77.6077 190.397 77.405 190.6C77.2023 190.803 76.9623 190.957 76.685 191.064C76.4183 191.181 76.1303 191.24 75.821 191.24C75.5117 191.24 75.2183 191.181 74.941 191.064C74.6743 190.957 74.4397 190.803 74.237 190.6C74.045 190.397 73.8903 190.163 73.773 189.896C73.6663 189.629 73.613 189.336 73.613 189.016ZM96.9995 188.392V191H84.4395V188.392H89.2395V173.96C89.2395 173.448 89.2555 172.925 89.2875 172.392L85.5915 175.512C85.4315 175.64 85.2662 175.725 85.0955 175.768C84.9355 175.8 84.7808 175.8 84.6315 175.768C84.4928 175.736 84.3648 175.688 84.2475 175.624C84.1408 175.549 84.0555 175.469 83.9915 175.384L82.9195 173.88L89.8635 167.912H92.6635V188.392H96.9995ZM105.018 174.808C105.018 176.173 105.381 177.224 106.106 177.96C106.842 178.685 107.866 179.048 109.178 179.048C109.882 179.048 110.501 178.936 111.034 178.712C111.578 178.488 112.037 178.189 112.41 177.816C112.783 177.432 113.066 176.989 113.258 176.488C113.45 175.976 113.546 175.432 113.546 174.856C113.546 174.184 113.439 173.587 113.226 173.064C113.023 172.531 112.73 172.077 112.346 171.704C111.973 171.331 111.525 171.048 111.002 170.856C110.479 170.653 109.909 170.552 109.29 170.552C108.639 170.552 108.053 170.659 107.53 170.872C107.007 171.085 106.559 171.384 106.186 171.768C105.813 172.141 105.525 172.589 105.322 173.112C105.119 173.624 105.018 174.189 105.018 174.808ZM110.922 181.96C111.135 181.693 111.333 181.443 111.514 181.208C111.695 180.963 111.866 180.717 112.026 180.472C111.471 180.867 110.853 181.171 110.17 181.384C109.487 181.587 108.762 181.688 107.994 181.688C107.162 181.688 106.362 181.549 105.594 181.272C104.826 180.984 104.143 180.563 103.546 180.008C102.949 179.443 102.469 178.749 102.106 177.928C101.754 177.096 101.578 176.141 101.578 175.064C101.578 174.051 101.765 173.096 102.138 172.2C102.522 171.304 103.055 170.525 103.738 169.864C104.421 169.192 105.237 168.664 106.186 168.28C107.135 167.896 108.186 167.704 109.338 167.704C110.479 167.704 111.514 167.891 112.442 168.264C113.37 168.627 114.159 169.144 114.81 169.816C115.461 170.477 115.962 171.272 116.314 172.2C116.666 173.117 116.842 174.131 116.842 175.24C116.842 175.933 116.778 176.589 116.65 177.208C116.533 177.827 116.357 178.429 116.122 179.016C115.898 179.592 115.621 180.163 115.29 180.728C114.97 181.283 114.607 181.848 114.202 182.424L108.778 190.2C108.618 190.435 108.378 190.627 108.058 190.776C107.749 190.925 107.397 191 107.002 191H103.85L110.922 181.96ZM131.357 173.528C131.357 174.413 131.213 175.208 130.925 175.912C130.647 176.616 130.269 177.219 129.789 177.72C129.309 178.211 128.754 178.589 128.125 178.856C127.495 179.112 126.834 179.24 126.141 179.24C125.394 179.24 124.701 179.112 124.061 178.856C123.431 178.589 122.882 178.211 122.413 177.72C121.954 177.219 121.591 176.616 121.325 175.912C121.058 175.208 120.925 174.413 120.925 173.528C120.925 172.621 121.058 171.811 121.325 171.096C121.591 170.371 121.954 169.763 122.413 169.272C122.882 168.771 123.431 168.387 124.061 168.12C124.701 167.853 125.394 167.72 126.141 167.72C126.887 167.72 127.575 167.853 128.205 168.12C128.845 168.387 129.394 168.771 129.853 169.272C130.322 169.763 130.69 170.371 130.957 171.096C131.223 171.811 131.357 172.621 131.357 173.528ZM128.701 173.528C128.701 172.877 128.631 172.328 128.493 171.88C128.365 171.421 128.183 171.053 127.949 170.776C127.725 170.488 127.453 170.285 127.133 170.168C126.823 170.04 126.493 169.976 126.141 169.976C125.778 169.976 125.442 170.04 125.133 170.168C124.823 170.285 124.557 170.488 124.333 170.776C124.109 171.053 123.933 171.421 123.805 171.88C123.677 172.328 123.613 172.877 123.613 173.528C123.613 174.168 123.677 174.707 123.805 175.144C123.933 175.581 124.109 175.939 124.333 176.216C124.557 176.483 124.823 176.675 125.133 176.792C125.442 176.909 125.778 176.968 126.141 176.968C126.493 176.968 126.823 176.909 127.133 176.792C127.453 176.675 127.725 176.483 127.949 176.216C128.183 175.939 128.365 175.581 128.493 175.144C128.631 174.707 128.701 174.168 128.701 173.528ZM139.261 168.52C139.378 168.371 139.517 168.243 139.677 168.136C139.847 168.019 140.082 167.96 140.381 167.96H142.861L125.885 190.472C125.767 190.621 125.623 190.749 125.453 190.856C125.282 190.952 125.074 191 124.829 191H122.269L139.261 168.52ZM144.253 185.576C144.253 186.461 144.109 187.256 143.821 187.96C143.533 188.664 143.149 189.261 142.669 189.752C142.189 190.243 141.634 190.621 141.005 190.888C140.375 191.144 139.714 191.272 139.021 191.272C138.274 191.272 137.581 191.144 136.941 190.888C136.311 190.621 135.762 190.243 135.293 189.752C134.834 189.261 134.471 188.664 134.205 187.96C133.949 187.256 133.821 186.461 133.821 185.576C133.821 184.669 133.949 183.859 134.205 183.144C134.471 182.419 134.834 181.805 135.293 181.304C135.762 180.803 136.311 180.424 136.941 180.168C137.581 179.901 138.274 179.768 139.021 179.768C139.767 179.768 140.461 179.901 141.101 180.168C141.741 180.424 142.29 180.803 142.749 181.304C143.218 181.805 143.586 182.419 143.853 183.144C144.119 183.859 144.253 184.669 144.253 185.576ZM141.597 185.576C141.597 184.925 141.527 184.376 141.389 183.928C141.261 183.469 141.079 183.101 140.845 182.824C140.61 182.536 140.333 182.333 140.013 182.216C139.703 182.088 139.373 182.024 139.021 182.024C138.669 182.024 138.338 182.088 138.029 182.216C137.719 182.333 137.447 182.536 137.213 182.824C136.989 183.101 136.813 183.469 136.685 183.928C136.557 184.376 136.493 184.925 136.493 185.576C136.493 186.216 136.557 186.755 136.685 187.192C136.813 187.629 136.989 187.987 137.213 188.264C137.447 188.531 137.719 188.723 138.029 188.84C138.338 188.957 138.669 189.016 139.021 189.016C139.373 189.016 139.703 188.957 140.013 188.84C140.333 188.723 140.61 188.531 140.845 188.264C141.079 187.987 141.261 187.629 141.389 187.192C141.527 186.755 141.597 186.216 141.597 185.576Z" fill="white"/>
<path d="M34.071 232.763H38.634V234.401H34.071V232.763ZM49.4803 237.533V239H42.4153V237.533H45.1153V229.415C45.1153 229.127 45.1243 228.833 45.1423 228.533L43.0633 230.288C42.9733 230.36 42.8803 230.408 42.7843 230.432C42.6943 230.45 42.6073 230.45 42.5233 230.432C42.4453 230.414 42.3733 230.387 42.3073 230.351C42.2473 230.309 42.1993 230.264 42.1633 230.216L41.5603 229.37L45.4663 226.013H47.0413V237.533H49.4803ZM53.9907 229.892C53.9907 230.66 54.1947 231.251 54.6027 231.665C55.0167 232.073 55.5927 232.277 56.3307 232.277C56.7267 232.277 57.0747 232.214 57.3747 232.088C57.6807 231.962 57.9387 231.794 58.1487 231.584C58.3587 231.368 58.5177 231.119 58.6257 230.837C58.7337 230.549 58.7877 230.243 58.7877 229.919C58.7877 229.541 58.7277 229.205 58.6077 228.911C58.4937 228.611 58.3287 228.356 58.1127 228.146C57.9027 227.936 57.6507 227.777 57.3567 227.669C57.0627 227.555 56.7417 227.498 56.3937 227.498C56.0277 227.498 55.6977 227.558 55.4037 227.678C55.1097 227.798 54.8577 227.966 54.6477 228.182C54.4377 228.392 54.2757 228.644 54.1617 228.938C54.0477 229.226 53.9907 229.544 53.9907 229.892ZM57.3117 233.915C57.4317 233.765 57.5427 233.624 57.6447 233.492C57.7467 233.354 57.8427 233.216 57.9327 233.078C57.6207 233.3 57.2727 233.471 56.8887 233.591C56.5047 233.705 56.0967 233.762 55.6647 233.762C55.1967 233.762 54.7467 233.684 54.3147 233.528C53.8827 233.366 53.4987 233.129 53.1627 232.817C52.8267 232.499 52.5567 232.109 52.3527 231.647C52.1547 231.179 52.0557 230.642 52.0557 230.036C52.0557 229.466 52.1607 228.929 52.3707 228.425C52.5867 227.921 52.8867 227.483 53.2707 227.111C53.6547 226.733 54.1137 226.436 54.6477 226.22C55.1817 226.004 55.7727 225.896 56.4207 225.896C57.0627 225.896 57.6447 226.001 58.1667 226.211C58.6887 226.415 59.1327 226.706 59.4987 227.084C59.8647 227.456 60.1467 227.903 60.3447 228.425C60.5427 228.941 60.6417 229.511 60.6417 230.135C60.6417 230.525 60.6057 230.894 60.5337 231.242C60.4677 231.59 60.3687 231.929 60.2367 232.259C60.1107 232.583 59.9547 232.904 59.7687 233.222C59.5887 233.534 59.3847 233.852 59.1567 234.176L56.1057 238.55C56.0157 238.682 55.8807 238.79 55.7007 238.874C55.5267 238.958 55.3287 239 55.1067 239H53.3337L57.3117 233.915ZM68.8061 229.172C68.8061 229.67 68.7251 230.117 68.5631 230.513C68.4071 230.909 68.1941 231.248 67.9241 231.53C67.6541 231.806 67.3421 232.019 66.9881 232.169C66.6341 232.313 66.2621 232.385 65.8721 232.385C65.4521 232.385 65.0621 232.313 64.7021 232.169C64.3481 232.019 64.0391 231.806 63.7751 231.53C63.5171 231.248 63.3131 230.909 63.1631 230.513C63.0131 230.117 62.9381 229.67 62.9381 229.172C62.9381 228.662 63.0131 228.206 63.1631 227.804C63.3131 227.396 63.5171 227.054 63.7751 226.778C64.0391 226.496 64.3481 226.28 64.7021 226.13C65.0621 225.98 65.4521 225.905 65.8721 225.905C66.2921 225.905 66.6791 225.98 67.0331 226.13C67.3931 226.28 67.7021 226.496 67.9601 226.778C68.2241 227.054 68.4311 227.396 68.5811 227.804C68.7311 228.206 68.8061 228.662 68.8061 229.172ZM67.3121 229.172C67.3121 228.806 67.2731 228.497 67.1951 228.245C67.1231 227.987 67.0211 227.78 66.8891 227.624C66.7631 227.462 66.6101 227.348 66.4301 227.282C66.2561 227.21 66.0701 227.174 65.8721 227.174C65.6681 227.174 65.4791 227.21 65.3051 227.282C65.1311 227.348 64.9811 227.462 64.8551 227.624C64.7291 227.78 64.6301 227.987 64.5581 228.245C64.4861 228.497 64.4501 228.806 64.4501 229.172C64.4501 229.532 64.4861 229.835 64.5581 230.081C64.6301 230.327 64.7291 230.528 64.8551 230.684C64.9811 230.834 65.1311 230.942 65.3051 231.008C65.4791 231.074 65.6681 231.107 65.8721 231.107C66.0701 231.107 66.2561 231.074 66.4301 231.008C66.6101 230.942 66.7631 230.834 66.8891 230.684C67.0211 230.528 67.1231 230.327 67.1951 230.081C67.2731 229.835 67.3121 229.532 67.3121 229.172ZM73.2521 226.355C73.3181 226.271 73.3961 226.199 73.4861 226.139C73.5821 226.073 73.7141 226.04 73.8821 226.04H75.2771L65.7281 238.703C65.6621 238.787 65.5811 238.859 65.4851 238.919C65.3891 238.973 65.2721 239 65.1341 239H63.6941L73.2521 226.355ZM76.0601 235.949C76.0601 236.447 75.9791 236.894 75.8171 237.29C75.6551 237.686 75.4391 238.022 75.1691 238.298C74.8991 238.574 74.5871 238.787 74.2331 238.937C73.8791 239.081 73.5071 239.153 73.1171 239.153C72.6971 239.153 72.3071 239.081 71.9471 238.937C71.5931 238.787 71.2841 238.574 71.0201 238.298C70.7621 238.022 70.5581 237.686 70.4081 237.29C70.2641 236.894 70.1921 236.447 70.1921 235.949C70.1921 235.439 70.2641 234.983 70.4081 234.581C70.5581 234.173 70.7621 233.828 71.0201 233.546C71.2841 233.264 71.5931 233.051 71.9471 232.907C72.3071 232.757 72.6971 232.682 73.1171 232.682C73.5371 232.682 73.9271 232.757 74.2871 232.907C74.6471 233.051 74.9561 233.264 75.2141 233.546C75.4781 233.828 75.6851 234.173 75.8351 234.581C75.9851 234.983 76.0601 235.439 76.0601 235.949ZM74.5661 235.949C74.5661 235.583 74.5271 235.274 74.4491 235.022C74.3771 234.764 74.2751 234.557 74.1431 234.401C74.0111 234.239 73.8551 234.125 73.6751 234.059C73.5011 233.987 73.3151 233.951 73.1171 233.951C72.9191 233.951 72.7331 233.987 72.5591 234.059C72.3851 234.125 72.2321 234.239 72.1001 234.401C71.9741 234.557 71.8751 234.764 71.8031 235.022C71.7311 235.274 71.6951 235.583 71.6951 235.949C71.6951 236.309 71.7311 236.612 71.8031 236.858C71.8751 237.104 71.9741 237.305 72.1001 237.461C72.2321 237.611 72.3851 237.719 72.5591 237.785C72.7331 237.851 72.9191 237.884 73.1171 237.884C73.3151 237.884 73.5011 237.851 73.6751 237.785C73.8551 237.719 74.0111 237.611 74.1431 237.461C74.2751 237.305 74.3771 237.104 74.4491 236.858C74.5271 236.612 74.5661 236.309 74.5661 235.949Z" fill="#9A0000" fill-opacity="0.5"/>
</g>
<defs>
<filter id="filter0_b_177_174" x="-100" y="-100" width="400" height="475" filterUnits="userSpaceOnUse" color-interpolation-filters="sRGB">
<feFlood flood-opacity="0" result="BackgroundImageFix"/>
<feGaussianBlur in="BackgroundImageFix" stdDeviation="50"/>
<feComposite in2="SourceAlpha" operator="in" result="effect1_backgroundBlur_177_174"/>
<feBlend mode="normal" in="SourceGraphic" in2="effect1_backgroundBlur_177_174" result="shape"/>
</filter>
</defs>
</svg>
