<svg width="400" height="177" viewBox="0 0 400 177" fill="none" xmlns="http://www.w3.org/2000/svg">
<g filter="url(#filter0_b_177_118)">
<rect width="400" height="177" rx="15" fill="#05184B"/>
<rect x="0.5" y="0.5" width="399" height="176" rx="14.5" stroke="#00349A"/>
<path d="M35.944 66.06H30.556V81H27.76V66.06H22.36V63.72H35.944V66.06ZM40.9746 68.568C41.8786 68.568 42.6946 68.716 43.4226 69.012C44.1586 69.308 44.7826 69.728 45.2946 70.272C45.8146 70.816 46.2146 71.476 46.4946 72.252C46.7746 73.028 46.9146 73.9 46.9146 74.868C46.9146 75.836 46.7746 76.708 46.4946 77.484C46.2146 78.26 45.8146 78.924 45.2946 79.476C44.7826 80.02 44.1586 80.44 43.4226 80.736C42.6946 81.032 41.8786 81.18 40.9746 81.18C40.0626 81.18 39.2386 81.032 38.5026 80.736C37.7746 80.44 37.1506 80.02 36.6306 79.476C36.1106 78.924 35.7106 78.26 35.4306 77.484C35.1506 76.708 35.0106 75.836 35.0106 74.868C35.0106 73.9 35.1506 73.028 35.4306 72.252C35.7106 71.476 36.1106 70.816 36.6306 70.272C37.1506 69.728 37.7746 69.308 38.5026 69.012C39.2386 68.716 40.0626 68.568 40.9746 68.568ZM40.9746 79.164C42.0786 79.164 42.8986 78.796 43.4346 78.06C43.9786 77.316 44.2506 76.256 44.2506 74.88C44.2506 73.504 43.9786 72.444 43.4346 71.7C42.8986 70.948 42.0786 70.572 40.9746 70.572C39.8546 70.572 39.0226 70.948 38.4786 71.7C37.9346 72.444 37.6626 73.504 37.6626 74.88C37.6626 76.256 37.9346 77.316 38.4786 78.06C39.0226 78.796 39.8546 79.164 40.9746 79.164ZM53.8032 81.192C52.7872 81.192 52.0032 80.908 51.4512 80.34C50.9072 79.764 50.6352 78.956 50.6352 77.916V70.788H49.2912C49.1472 70.788 49.0232 70.744 48.9192 70.656C48.8152 70.56 48.7632 70.42 48.7632 70.236V69.192L50.7432 68.904L51.3072 65.364C51.3472 65.228 51.4152 65.12 51.5112 65.04C51.6072 64.952 51.7352 64.908 51.8952 64.908H53.2152V68.928H56.6112V70.788H53.2152V77.736C53.2152 78.176 53.3232 78.512 53.5392 78.744C53.7552 78.976 54.0432 79.092 54.4032 79.092C54.6032 79.092 54.7752 79.068 54.9192 79.02C55.0632 78.964 55.1872 78.908 55.2912 78.852C55.3952 78.788 55.4832 78.732 55.5552 78.684C55.6352 78.628 55.7112 78.6 55.7832 78.6C55.9272 78.6 56.0432 78.68 56.1312 78.84L56.8992 80.1C56.4992 80.452 56.0272 80.724 55.4832 80.916C54.9392 81.1 54.3792 81.192 53.8032 81.192ZM65.9048 75.648C64.9848 75.68 64.2088 75.756 63.5768 75.876C62.9448 75.988 62.4328 76.136 62.0408 76.32C61.6488 76.496 61.3648 76.708 61.1888 76.956C61.0208 77.204 60.9368 77.476 60.9368 77.772C60.9368 78.06 60.9808 78.308 61.0688 78.516C61.1648 78.716 61.2928 78.884 61.4528 79.02C61.6208 79.148 61.8128 79.244 62.0288 79.308C62.2528 79.364 62.4968 79.392 62.7608 79.392C63.4328 79.392 64.0088 79.268 64.4888 79.02C64.9768 78.764 65.4488 78.396 65.9048 77.916V75.648ZM59.0648 70.464C60.4488 69.176 62.0968 68.532 64.0088 68.532C64.7128 68.532 65.3368 68.648 65.8808 68.88C66.4328 69.104 66.8928 69.424 67.2608 69.84C67.6368 70.256 67.9208 70.752 68.1128 71.328C68.3128 71.896 68.4128 72.528 68.4128 73.224V81H67.2608C67.0128 81 66.8248 80.964 66.6968 80.892C66.5688 80.812 66.4608 80.656 66.3728 80.424L66.1208 79.428C65.8088 79.708 65.5008 79.96 65.1968 80.184C64.8928 80.4 64.5768 80.584 64.2488 80.736C63.9288 80.888 63.5808 81 63.2048 81.072C62.8368 81.152 62.4288 81.192 61.9808 81.192C61.4848 81.192 61.0208 81.124 60.5888 80.988C60.1648 80.852 59.7968 80.648 59.4848 80.376C59.1728 80.096 58.9248 79.752 58.7408 79.344C58.5648 78.936 58.4768 78.456 58.4768 77.904C58.4768 77.432 58.6008 76.972 58.8488 76.524C59.1048 76.076 59.5208 75.676 60.0968 75.324C60.6808 74.964 61.4448 74.668 62.3888 74.436C63.3408 74.204 64.5128 74.072 65.9048 74.04V73.224C65.9048 72.344 65.7168 71.688 65.3408 71.256C64.9648 70.824 64.4128 70.608 63.6848 70.608C63.1888 70.608 62.7728 70.672 62.4368 70.8C62.1008 70.92 61.8088 71.052 61.5608 71.196C61.3128 71.34 61.0928 71.476 60.9008 71.604C60.7088 71.724 60.5048 71.784 60.2888 71.784C60.1128 71.784 59.9608 71.74 59.8328 71.652C59.7128 71.556 59.6128 71.44 59.5328 71.304L59.0648 70.464ZM74.7831 63.24V81H72.2031V63.24H74.7831ZM92.6922 70.98C92.6282 71.092 92.5562 71.172 92.4762 71.22C92.3962 71.268 92.2962 71.292 92.1762 71.292C92.0402 71.292 91.8922 71.252 91.7322 71.172C91.5722 71.084 91.3842 70.988 91.1682 70.884C90.9522 70.78 90.6962 70.688 90.4002 70.608C90.1122 70.52 89.7722 70.476 89.3802 70.476C89.0602 70.476 88.7682 70.516 88.5042 70.596C88.2482 70.668 88.0282 70.776 87.8442 70.92C87.6682 71.056 87.5322 71.22 87.4362 71.412C87.3402 71.596 87.2922 71.796 87.2922 72.012C87.2922 72.3 87.3802 72.54 87.5562 72.732C87.7322 72.924 87.9642 73.092 88.2522 73.236C88.5402 73.372 88.8682 73.496 89.2362 73.608C89.6042 73.72 89.9802 73.84 90.3642 73.968C90.7482 74.096 91.1242 74.244 91.4922 74.412C91.8602 74.58 92.1882 74.788 92.4762 75.036C92.7642 75.276 92.9962 75.572 93.1722 75.924C93.3482 76.268 93.4362 76.688 93.4362 77.184C93.4362 77.76 93.3322 78.292 93.1242 78.78C92.9162 79.268 92.6122 79.692 92.2122 80.052C91.8122 80.412 91.3122 80.692 90.7122 80.892C90.1202 81.092 89.4402 81.192 88.6722 81.192C88.2482 81.192 87.8362 81.152 87.4362 81.072C87.0442 81 86.6682 80.9 86.3082 80.772C85.9562 80.636 85.6242 80.476 85.3122 80.292C85.0082 80.108 84.7362 79.908 84.4962 79.692L85.0962 78.708C85.1682 78.588 85.2562 78.496 85.3602 78.432C85.4722 78.36 85.6082 78.324 85.7682 78.324C85.9362 78.324 86.1002 78.38 86.2602 78.492C86.4282 78.596 86.6202 78.712 86.8362 78.84C87.0602 78.968 87.3282 79.088 87.6402 79.2C87.9522 79.304 88.3402 79.356 88.8042 79.356C89.1882 79.356 89.5202 79.312 89.8002 79.224C90.0802 79.128 90.3122 79 90.4962 78.84C90.6802 78.68 90.8162 78.5 90.9042 78.3C90.9922 78.092 91.0362 77.872 91.0362 77.64C91.0362 77.328 90.9482 77.072 90.7722 76.872C90.5962 76.672 90.3602 76.5 90.0642 76.356C89.7762 76.212 89.4442 76.084 89.0682 75.972C88.7002 75.86 88.3242 75.74 87.9402 75.612C87.5562 75.484 87.1762 75.336 86.8002 75.168C86.4322 75 86.1002 74.788 85.8042 74.532C85.5162 74.268 85.2842 73.952 85.1082 73.584C84.9322 73.208 84.8442 72.752 84.8442 72.216C84.8442 71.728 84.9402 71.264 85.1322 70.824C85.3322 70.384 85.6202 69.996 85.9962 69.66C86.3802 69.324 86.8482 69.06 87.4002 68.868C87.9602 68.668 88.6042 68.568 89.3322 68.568C90.1562 68.568 90.9042 68.7 91.5762 68.964C92.2482 69.228 92.8122 69.588 93.2682 70.044L92.6922 70.98ZM104.609 73.5C104.609 73.068 104.545 72.668 104.417 72.3C104.297 71.924 104.117 71.6 103.877 71.328C103.637 71.048 103.337 70.832 102.977 70.68C102.625 70.52 102.217 70.44 101.753 70.44C100.817 70.44 100.081 70.708 99.5448 71.244C99.0088 71.78 98.6688 72.532 98.5248 73.5H104.609ZM98.4528 75.084C98.4848 75.78 98.5928 76.384 98.7768 76.896C98.9608 77.4 99.2048 77.82 99.5088 78.156C99.8208 78.492 100.189 78.744 100.613 78.912C101.045 79.072 101.525 79.152 102.053 79.152C102.557 79.152 102.993 79.096 103.361 78.984C103.729 78.864 104.049 78.736 104.321 78.6C104.593 78.456 104.825 78.328 105.017 78.216C105.209 78.096 105.385 78.036 105.545 78.036C105.753 78.036 105.913 78.116 106.025 78.276L106.757 79.224C106.453 79.584 106.109 79.888 105.725 80.136C105.341 80.384 104.933 80.588 104.501 80.748C104.069 80.9 103.625 81.008 103.169 81.072C102.713 81.144 102.269 81.18 101.837 81.18C100.989 81.18 100.201 81.04 99.4728 80.76C98.7528 80.472 98.1248 80.052 97.5888 79.5C97.0608 78.948 96.6448 78.264 96.3408 77.448C96.0448 76.632 95.8968 75.692 95.8968 74.628C95.8968 73.78 96.0288 72.988 96.2928 72.252C96.5648 71.516 96.9488 70.876 97.4448 70.332C97.9488 69.788 98.5568 69.36 99.2688 69.048C99.9888 68.728 100.801 68.568 101.705 68.568C102.457 68.568 103.153 68.692 103.793 68.94C104.433 69.18 104.985 69.536 105.449 70.008C105.913 70.48 106.273 71.06 106.529 71.748C106.793 72.428 106.925 73.204 106.925 74.076C106.925 74.476 106.881 74.744 106.793 74.88C106.705 75.016 106.545 75.084 106.313 75.084H98.4528ZM112.679 63.24V81H110.099V63.24H112.679ZM119.211 63.24V81H116.631V63.24H119.211ZM130.424 70.98C130.36 71.092 130.288 71.172 130.208 71.22C130.128 71.268 130.028 71.292 129.908 71.292C129.772 71.292 129.624 71.252 129.464 71.172C129.304 71.084 129.116 70.988 128.9 70.884C128.684 70.78 128.428 70.688 128.132 70.608C127.844 70.52 127.504 70.476 127.112 70.476C126.792 70.476 126.5 70.516 126.236 70.596C125.98 70.668 125.76 70.776 125.576 70.92C125.4 71.056 125.264 71.22 125.168 71.412C125.072 71.596 125.024 71.796 125.024 72.012C125.024 72.3 125.112 72.54 125.288 72.732C125.464 72.924 125.696 73.092 125.984 73.236C126.272 73.372 126.6 73.496 126.968 73.608C127.336 73.72 127.712 73.84 128.096 73.968C128.48 74.096 128.856 74.244 129.224 74.412C129.592 74.58 129.92 74.788 130.208 75.036C130.496 75.276 130.728 75.572 130.904 75.924C131.08 76.268 131.168 76.688 131.168 77.184C131.168 77.76 131.064 78.292 130.856 78.78C130.648 79.268 130.344 79.692 129.944 80.052C129.544 80.412 129.044 80.692 128.444 80.892C127.852 81.092 127.172 81.192 126.404 81.192C125.98 81.192 125.568 81.152 125.168 81.072C124.776 81 124.4 80.9 124.04 80.772C123.688 80.636 123.356 80.476 123.044 80.292C122.74 80.108 122.468 79.908 122.228 79.692L122.828 78.708C122.9 78.588 122.988 78.496 123.092 78.432C123.204 78.36 123.34 78.324 123.5 78.324C123.668 78.324 123.832 78.38 123.992 78.492C124.16 78.596 124.352 78.712 124.568 78.84C124.792 78.968 125.06 79.088 125.372 79.2C125.684 79.304 126.072 79.356 126.536 79.356C126.92 79.356 127.252 79.312 127.532 79.224C127.812 79.128 128.044 79 128.228 78.84C128.412 78.68 128.548 78.5 128.636 78.3C128.724 78.092 128.768 77.872 128.768 77.64C128.768 77.328 128.68 77.072 128.504 76.872C128.328 76.672 128.092 76.5 127.796 76.356C127.508 76.212 127.176 76.084 126.8 75.972C126.432 75.86 126.056 75.74 125.672 75.612C125.288 75.484 124.908 75.336 124.532 75.168C124.164 75 123.832 74.788 123.536 74.532C123.248 74.268 123.016 73.952 122.84 73.584C122.664 73.208 122.576 72.752 122.576 72.216C122.576 71.728 122.672 71.264 122.864 70.824C123.064 70.384 123.352 69.996 123.728 69.66C124.112 69.324 124.58 69.06 125.132 68.868C125.692 68.668 126.336 68.568 127.064 68.568C127.888 68.568 128.636 68.7 129.308 68.964C129.98 69.228 130.544 69.588 131 70.044L130.424 70.98Z" fill="#B2B2B2"/>
<path d="M31.952 136.312C33.2213 136.163 34.1813 135.747 34.832 135.064C35.4933 134.381 35.824 133.501 35.824 132.424C35.824 131.965 35.7387 131.565 35.568 131.224C35.3973 130.883 35.1627 130.584 34.864 130.328C34.576 130.072 34.2293 129.853 33.824 129.672C33.4187 129.48 32.9813 129.304 32.512 129.144L31.952 136.312ZM31.168 118.696C30.528 118.76 29.9787 118.893 29.52 119.096C29.0613 119.288 28.6827 119.528 28.384 119.816C28.0853 120.093 27.8667 120.408 27.728 120.76C27.5893 121.112 27.52 121.485 27.52 121.88C27.52 122.328 27.6 122.723 27.76 123.064C27.92 123.405 28.1387 123.709 28.416 123.976C28.704 124.232 29.04 124.461 29.424 124.664C29.808 124.856 30.224 125.037 30.672 125.208L31.168 118.696ZM32.768 125.88C33.536 126.115 34.2933 126.376 35.04 126.664C35.7973 126.941 36.4747 127.304 37.072 127.752C37.6693 128.189 38.1493 128.739 38.512 129.4C38.8853 130.061 39.072 130.888 39.072 131.88C39.072 132.851 38.9067 133.768 38.576 134.632C38.256 135.485 37.7813 136.243 37.152 136.904C36.5227 137.555 35.7493 138.088 34.832 138.504C33.9253 138.909 32.8907 139.149 31.728 139.224L31.536 141.784C31.5253 142.008 31.4347 142.211 31.264 142.392C31.0933 142.584 30.8747 142.68 30.608 142.68H29.328L29.6 139.176C28.3413 139.027 27.168 138.696 26.08 138.184C25.0027 137.661 24.08 137.011 23.312 136.232L24.352 134.648C24.448 134.509 24.5707 134.397 24.72 134.312C24.88 134.216 25.0507 134.168 25.232 134.168C25.456 134.168 25.696 134.259 25.952 134.44C26.2187 134.621 26.528 134.835 26.88 135.08C27.232 135.315 27.648 135.549 28.128 135.784C28.608 136.008 29.1733 136.173 29.824 136.28L30.416 128.52C29.6693 128.296 28.928 128.045 28.192 127.768C27.4667 127.48 26.8107 127.101 26.224 126.632C25.648 126.163 25.1787 125.576 24.816 124.872C24.464 124.168 24.288 123.283 24.288 122.216C24.288 121.416 24.4427 120.637 24.752 119.88C25.072 119.123 25.5307 118.451 26.128 117.864C26.736 117.267 27.4827 116.781 28.368 116.408C29.2533 116.024 30.2667 115.805 31.408 115.752L31.568 113.608C31.5787 113.373 31.6693 113.165 31.84 112.984C32.0107 112.803 32.2293 112.712 32.496 112.712H33.776L33.536 115.848C34.656 116.008 35.6267 116.317 36.448 116.776C37.2693 117.224 37.984 117.747 38.592 118.344L37.76 119.624C37.5253 119.997 37.2373 120.184 36.896 120.184C36.736 120.184 36.544 120.125 36.32 120.008C36.1067 119.891 35.8507 119.752 35.552 119.592C35.264 119.432 34.9333 119.272 34.56 119.112C34.1867 118.952 33.7707 118.829 33.312 118.744L32.768 125.88ZM43.4105 122.296C43.5705 121.208 43.8692 120.253 44.3065 119.432C44.7545 118.611 45.3145 117.928 45.9865 117.384C46.6585 116.829 47.4265 116.413 48.2905 116.136C49.1652 115.848 50.1092 115.704 51.1225 115.704C52.1465 115.704 53.0745 115.853 53.9065 116.152C54.7492 116.44 55.4692 116.845 56.0665 117.368C56.6745 117.891 57.1385 118.515 57.4585 119.24C57.7892 119.965 57.9545 120.76 57.9545 121.624C57.9545 122.36 57.8638 123.011 57.6825 123.576C57.5118 124.131 57.2612 124.621 56.9305 125.048C56.6105 125.475 56.2158 125.832 55.7465 126.12C55.2772 126.408 54.7492 126.648 54.1625 126.84C55.5918 127.256 56.6638 127.923 57.3785 128.84C58.0932 129.747 58.4505 130.888 58.4505 132.264C58.4505 133.373 58.2425 134.36 57.8265 135.224C57.4105 136.088 56.8452 136.819 56.1305 137.416C55.4265 138.013 54.5998 138.472 53.6505 138.792C52.7118 139.101 51.7145 139.256 50.6585 139.256C49.4745 139.256 48.4505 139.117 47.5865 138.84C46.7225 138.552 45.9758 138.147 45.3465 137.624C44.7278 137.091 44.2105 136.451 43.7945 135.704C43.3785 134.957 43.0265 134.12 42.7385 133.192L44.2265 132.568C44.6212 132.397 44.9945 132.349 45.3465 132.424C45.7092 132.499 45.9705 132.696 46.1305 133.016C46.3012 133.357 46.4932 133.725 46.7065 134.12C46.9198 134.504 47.1918 134.861 47.5225 135.192C47.8638 135.512 48.2798 135.784 48.7705 136.008C49.2718 136.221 49.8852 136.328 50.6105 136.328C51.3465 136.328 51.9865 136.211 52.5305 135.976C53.0852 135.731 53.5438 135.421 53.9065 135.048C54.2798 134.664 54.5572 134.237 54.7385 133.768C54.9198 133.299 55.0105 132.835 55.0105 132.376C55.0105 131.8 54.9412 131.272 54.8025 130.792C54.6638 130.301 54.3918 129.885 53.9865 129.544C53.5918 129.203 53.0265 128.936 52.2905 128.744C51.5652 128.541 50.6105 128.44 49.4265 128.44V125.96C50.3972 125.949 51.2132 125.853 51.8745 125.672C52.5465 125.48 53.0798 125.224 53.4745 124.904C53.8798 124.573 54.1678 124.179 54.3385 123.72C54.5198 123.261 54.6105 122.76 54.6105 122.216C54.6105 121.629 54.5198 121.112 54.3385 120.664C54.1572 120.216 53.9012 119.843 53.5705 119.544C53.2505 119.235 52.8665 119.005 52.4185 118.856C51.9705 118.707 51.4745 118.632 50.9305 118.632C50.4078 118.632 49.9225 118.707 49.4745 118.856C49.0372 119.005 48.6425 119.213 48.2905 119.48C47.9492 119.747 47.6612 120.067 47.4265 120.44C47.1918 120.803 47.0212 121.203 46.9145 121.64C46.7652 122.077 46.5625 122.371 46.3065 122.52C46.0612 122.669 45.6985 122.701 45.2185 122.616L43.4105 122.296ZM76.789 135.752C77.1623 135.752 77.4557 135.864 77.669 136.088C77.8823 136.301 77.989 136.579 77.989 136.92V139H62.405V137.832C62.405 137.597 62.453 137.352 62.549 137.096C62.645 136.84 62.7997 136.605 63.013 136.392L70.181 129.208C70.789 128.6 71.3277 128.019 71.797 127.464C72.277 126.909 72.6823 126.355 73.013 125.8C73.3543 125.245 73.6103 124.685 73.781 124.12C73.9623 123.544 74.053 122.941 74.053 122.312C74.053 121.704 73.957 121.171 73.765 120.712C73.5837 120.243 73.3277 119.859 72.997 119.56C72.677 119.251 72.2877 119.021 71.829 118.872C71.381 118.712 70.885 118.632 70.341 118.632C69.8183 118.632 69.333 118.707 68.885 118.856C68.4477 119.005 68.053 119.213 67.701 119.48C67.3597 119.747 67.0717 120.067 66.837 120.44C66.613 120.803 66.4477 121.203 66.341 121.64C66.181 122.077 65.973 122.371 65.717 122.52C65.4717 122.669 65.109 122.701 64.629 122.616L62.821 122.296C62.981 121.208 63.2797 120.253 63.717 119.432C64.165 118.611 64.725 117.928 65.397 117.384C66.069 116.829 66.837 116.413 67.701 116.136C68.5757 115.848 69.5197 115.704 70.533 115.704C71.557 115.704 72.4957 115.859 73.349 116.168C74.213 116.467 74.9543 116.899 75.573 117.464C76.2023 118.019 76.693 118.696 77.045 119.496C77.397 120.296 77.573 121.197 77.573 122.2C77.573 123.053 77.445 123.843 77.189 124.568C76.9437 125.293 76.6077 125.987 76.181 126.648C75.7543 127.309 75.253 127.955 74.677 128.584C74.1117 129.203 73.5143 129.832 72.885 130.472L67.317 136.168C67.7757 136.04 68.2343 135.939 68.693 135.864C69.1623 135.789 69.605 135.752 70.021 135.752H76.789ZM98.2475 127.48C98.2475 129.496 98.0288 131.24 97.5915 132.712C97.1648 134.184 96.5728 135.405 95.8155 136.376C95.0582 137.347 94.1675 138.067 93.1435 138.536C92.1195 139.005 91.0155 139.24 89.8315 139.24C88.6475 139.24 87.5435 139.005 86.5195 138.536C85.4955 138.067 84.6048 137.347 83.8475 136.376C83.1008 135.405 82.5142 134.184 82.0875 132.712C81.6608 131.24 81.4475 129.496 81.4475 127.48C81.4475 125.464 81.6608 123.72 82.0875 122.248C82.5142 120.765 83.1008 119.544 83.8475 118.584C84.6048 117.613 85.4955 116.893 86.5195 116.424C87.5435 115.944 88.6475 115.704 89.8315 115.704C91.0155 115.704 92.1195 115.944 93.1435 116.424C94.1675 116.893 95.0582 117.613 95.8155 118.584C96.5728 119.544 97.1648 120.765 97.5915 122.248C98.0288 123.72 98.2475 125.464 98.2475 127.48ZM94.6955 127.48C94.6955 125.773 94.5568 124.355 94.2795 123.224C94.0128 122.083 93.6555 121.171 93.2075 120.488C92.7595 119.805 92.2422 119.32 91.6555 119.032C91.0688 118.744 90.4608 118.6 89.8315 118.6C89.1915 118.6 88.5782 118.744 87.9915 119.032C87.4155 119.32 86.9035 119.805 86.4555 120.488C86.0075 121.171 85.6502 122.083 85.3835 123.224C85.1168 124.355 84.9835 125.773 84.9835 127.48C84.9835 129.187 85.1168 130.611 85.3835 131.752C85.6502 132.883 86.0075 133.789 86.4555 134.472C86.9035 135.155 87.4155 135.64 87.9915 135.928C88.5782 136.216 89.1915 136.36 89.8315 136.36C90.4608 136.36 91.0688 136.216 91.6555 135.928C92.2422 135.64 92.7595 135.155 93.2075 134.472C93.6555 133.789 94.0128 132.883 94.2795 131.752C94.5568 130.611 94.6955 129.187 94.6955 127.48ZM117.77 127.48C117.77 129.496 117.551 131.24 117.114 132.712C116.687 134.184 116.095 135.405 115.338 136.376C114.581 137.347 113.69 138.067 112.666 138.536C111.642 139.005 110.538 139.24 109.354 139.24C108.17 139.24 107.066 139.005 106.042 138.536C105.018 138.067 104.127 137.347 103.37 136.376C102.623 135.405 102.037 134.184 101.61 132.712C101.183 131.24 100.97 129.496 100.97 127.48C100.97 125.464 101.183 123.72 101.61 122.248C102.037 120.765 102.623 119.544 103.37 118.584C104.127 117.613 105.018 116.893 106.042 116.424C107.066 115.944 108.17 115.704 109.354 115.704C110.538 115.704 111.642 115.944 112.666 116.424C113.69 116.893 114.581 117.613 115.338 118.584C116.095 119.544 116.687 120.765 117.114 122.248C117.551 123.72 117.77 125.464 117.77 127.48ZM114.218 127.48C114.218 125.773 114.079 124.355 113.802 123.224C113.535 122.083 113.178 121.171 112.73 120.488C112.282 119.805 111.765 119.32 111.178 119.032C110.591 118.744 109.983 118.6 109.354 118.6C108.714 118.6 108.101 118.744 107.514 119.032C106.938 119.32 106.426 119.805 105.978 120.488C105.53 121.171 105.173 122.083 104.906 123.224C104.639 124.355 104.506 125.773 104.506 127.48C104.506 129.187 104.639 130.611 104.906 131.752C105.173 132.883 105.53 133.789 105.978 134.472C106.426 135.155 106.938 135.64 107.514 135.928C108.101 136.216 108.714 136.36 109.354 136.36C109.983 136.36 110.591 136.216 111.178 135.928C111.765 135.64 112.282 135.155 112.73 134.472C113.178 133.789 113.535 132.883 113.802 131.752C114.079 130.611 114.218 129.187 114.218 127.48ZM121.181 137.016C121.181 136.707 121.234 136.419 121.341 136.152C121.458 135.875 121.613 135.635 121.805 135.432C122.007 135.229 122.242 135.069 122.509 134.952C122.786 134.835 123.079 134.776 123.389 134.776C123.698 134.776 123.986 134.835 124.253 134.952C124.53 135.069 124.77 135.229 124.973 135.432C125.175 135.635 125.335 135.875 125.453 136.152C125.57 136.419 125.629 136.707 125.629 137.016C125.629 137.336 125.57 137.629 125.453 137.896C125.335 138.163 125.175 138.397 124.973 138.6C124.77 138.803 124.53 138.957 124.253 139.064C123.986 139.181 123.698 139.24 123.389 139.24C123.079 139.24 122.786 139.181 122.509 139.064C122.242 138.957 122.007 138.803 121.805 138.6C121.613 138.397 121.458 138.163 121.341 137.896C121.234 137.629 121.181 137.336 121.181 137.016ZM145.815 127.48C145.815 129.496 145.596 131.24 145.159 132.712C144.732 134.184 144.14 135.405 143.383 136.376C142.626 137.347 141.735 138.067 140.711 138.536C139.687 139.005 138.583 139.24 137.399 139.24C136.215 139.24 135.111 139.005 134.087 138.536C133.063 138.067 132.172 137.347 131.415 136.376C130.668 135.405 130.082 134.184 129.655 132.712C129.228 131.24 129.015 129.496 129.015 127.48C129.015 125.464 129.228 123.72 129.655 122.248C130.082 120.765 130.668 119.544 131.415 118.584C132.172 117.613 133.063 116.893 134.087 116.424C135.111 115.944 136.215 115.704 137.399 115.704C138.583 115.704 139.687 115.944 140.711 116.424C141.735 116.893 142.626 117.613 143.383 118.584C144.14 119.544 144.732 120.765 145.159 122.248C145.596 123.72 145.815 125.464 145.815 127.48ZM142.263 127.48C142.263 125.773 142.124 124.355 141.847 123.224C141.58 122.083 141.223 121.171 140.775 120.488C140.327 119.805 139.81 119.32 139.223 119.032C138.636 118.744 138.028 118.6 137.399 118.6C136.759 118.6 136.146 118.744 135.559 119.032C134.983 119.32 134.471 119.805 134.023 120.488C133.575 121.171 133.218 122.083 132.951 123.224C132.684 124.355 132.551 125.773 132.551 127.48C132.551 129.187 132.684 130.611 132.951 131.752C133.218 132.883 133.575 133.789 134.023 134.472C134.471 135.155 134.983 135.64 135.559 135.928C136.146 136.216 136.759 136.36 137.399 136.36C138.028 136.36 138.636 136.216 139.223 135.928C139.81 135.64 140.327 135.155 140.775 134.472C141.223 133.789 141.58 132.883 141.847 131.752C142.124 130.611 142.263 129.187 142.263 127.48ZM165.338 127.48C165.338 129.496 165.119 131.24 164.682 132.712C164.255 134.184 163.663 135.405 162.906 136.376C162.148 137.347 161.258 138.067 160.234 138.536C159.21 139.005 158.106 139.24 156.922 139.24C155.738 139.24 154.634 139.005 153.61 138.536C152.586 138.067 151.695 137.347 150.938 136.376C150.191 135.405 149.604 134.184 149.178 132.712C148.751 131.24 148.538 129.496 148.538 127.48C148.538 125.464 148.751 123.72 149.178 122.248C149.604 120.765 150.191 119.544 150.938 118.584C151.695 117.613 152.586 116.893 153.61 116.424C154.634 115.944 155.738 115.704 156.922 115.704C158.106 115.704 159.21 115.944 160.234 116.424C161.258 116.893 162.148 117.613 162.906 118.584C163.663 119.544 164.255 120.765 164.682 122.248C165.119 123.72 165.338 125.464 165.338 127.48ZM161.786 127.48C161.786 125.773 161.647 124.355 161.37 123.224C161.103 122.083 160.746 121.171 160.298 120.488C159.85 119.805 159.332 119.32 158.746 119.032C158.159 118.744 157.551 118.6 156.922 118.6C156.282 118.6 155.668 118.744 155.082 119.032C154.506 119.32 153.994 119.805 153.546 120.488C153.098 121.171 152.74 122.083 152.474 123.224C152.207 124.355 152.074 125.773 152.074 127.48C152.074 129.187 152.207 130.611 152.474 131.752C152.74 132.883 153.098 133.789 153.546 134.472C153.994 135.155 154.506 135.64 155.082 135.928C155.668 136.216 156.282 136.36 156.922 136.36C157.551 136.36 158.159 136.216 158.746 135.928C159.332 135.64 159.85 135.155 160.298 134.472C160.746 133.789 161.103 132.883 161.37 131.752C161.647 130.611 161.786 129.187 161.786 127.48Z" fill="white"/>
<path d="M297.96 96.152C298.48 96.152 298.944 96.08 299.352 95.936C299.76 95.784 300.1 95.576 300.372 95.312C300.652 95.04 300.864 94.72 301.008 94.352C301.152 93.984 301.224 93.584 301.224 93.152C301.224 92.624 301.14 92.168 300.972 91.784C300.812 91.4 300.584 91.084 300.288 90.836C300 90.58 299.656 90.392 299.256 90.272C298.856 90.144 298.424 90.08 297.96 90.08C297.496 90.08 297.064 90.144 296.664 90.272C296.264 90.392 295.916 90.58 295.62 90.836C295.332 91.084 295.104 91.4 294.936 91.784C294.776 92.168 294.696 92.624 294.696 93.152C294.696 93.584 294.768 93.984 294.912 94.352C295.056 94.72 295.264 95.04 295.536 95.312C295.816 95.576 296.16 95.784 296.568 95.936C296.976 96.08 297.44 96.152 297.96 96.152ZM297.96 82.508C297.488 82.508 297.072 82.58 296.712 82.724C296.36 82.868 296.068 83.06 295.836 83.3C295.604 83.54 295.428 83.824 295.308 84.152C295.196 84.472 295.14 84.812 295.14 85.172C295.14 85.532 295.188 85.884 295.284 86.228C295.388 86.572 295.548 86.88 295.764 87.152C295.988 87.416 296.28 87.628 296.64 87.788C297 87.948 297.44 88.028 297.96 88.028C298.48 88.028 298.92 87.948 299.28 87.788C299.64 87.628 299.928 87.416 300.144 87.152C300.368 86.88 300.528 86.572 300.624 86.228C300.728 85.884 300.78 85.532 300.78 85.172C300.78 84.812 300.72 84.472 300.6 84.152C300.488 83.824 300.312 83.54 300.072 83.3C299.84 83.06 299.548 82.868 299.196 82.724C298.844 82.58 298.432 82.508 297.96 82.508ZM300.684 88.988C301.748 89.316 302.544 89.836 303.072 90.548C303.608 91.26 303.876 92.144 303.876 93.2C303.876 93.96 303.732 94.648 303.444 95.264C303.156 95.88 302.752 96.404 302.232 96.836C301.712 97.268 301.088 97.604 300.36 97.844C299.64 98.076 298.84 98.192 297.96 98.192C297.08 98.192 296.276 98.076 295.548 97.844C294.828 97.604 294.208 97.268 293.688 96.836C293.168 96.404 292.764 95.88 292.476 95.264C292.188 94.648 292.044 93.96 292.044 93.2C292.044 92.144 292.308 91.26 292.836 90.548C293.372 89.836 294.172 89.316 295.236 88.988C294.372 88.644 293.72 88.144 293.28 87.488C292.848 86.832 292.632 86.044 292.632 85.124C292.632 84.476 292.76 83.872 293.016 83.312C293.272 82.752 293.632 82.268 294.096 81.86C294.568 81.444 295.132 81.12 295.788 80.888C296.444 80.648 297.168 80.528 297.96 80.528C298.752 80.528 299.472 80.648 300.12 80.888C300.776 81.12 301.336 81.444 301.8 81.86C302.272 82.268 302.636 82.752 302.892 83.312C303.156 83.872 303.288 84.476 303.288 85.124C303.288 86.044 303.068 86.832 302.628 87.488C302.196 88.144 301.548 88.644 300.684 88.988ZM318.902 89.36C318.902 90.872 318.738 92.18 318.41 93.284C318.09 94.388 317.646 95.304 317.078 96.032C316.51 96.76 315.842 97.3 315.074 97.652C314.306 98.004 313.478 98.18 312.59 98.18C311.702 98.18 310.874 98.004 310.106 97.652C309.338 97.3 308.67 96.76 308.102 96.032C307.542 95.304 307.102 94.388 306.782 93.284C306.462 92.18 306.302 90.872 306.302 89.36C306.302 87.848 306.462 86.54 306.782 85.436C307.102 84.324 307.542 83.408 308.102 82.688C308.67 81.96 309.338 81.42 310.106 81.068C310.874 80.708 311.702 80.528 312.59 80.528C313.478 80.528 314.306 80.708 315.074 81.068C315.842 81.42 316.51 81.96 317.078 82.688C317.646 83.408 318.09 84.324 318.41 85.436C318.738 86.54 318.902 87.848 318.902 89.36ZM316.238 89.36C316.238 88.08 316.134 87.016 315.926 86.168C315.726 85.312 315.458 84.628 315.122 84.116C314.786 83.604 314.398 83.24 313.958 83.024C313.518 82.808 313.062 82.7 312.59 82.7C312.11 82.7 311.65 82.808 311.21 83.024C310.778 83.24 310.394 83.604 310.058 84.116C309.722 84.628 309.454 85.312 309.254 86.168C309.054 87.016 308.954 88.08 308.954 89.36C308.954 90.64 309.054 91.708 309.254 92.564C309.454 93.412 309.722 94.092 310.058 94.604C310.394 95.116 310.778 95.48 311.21 95.696C311.65 95.912 312.11 96.02 312.59 96.02C313.062 96.02 313.518 95.912 313.958 95.696C314.398 95.48 314.786 95.116 315.122 94.604C315.458 94.092 315.726 93.412 315.926 92.564C316.134 91.708 316.238 90.64 316.238 89.36ZM329.092 84.896C329.092 85.56 328.984 86.156 328.768 86.684C328.56 87.212 328.276 87.664 327.916 88.04C327.556 88.408 327.14 88.692 326.668 88.892C326.196 89.084 325.7 89.18 325.18 89.18C324.62 89.18 324.1 89.084 323.62 88.892C323.148 88.692 322.736 88.408 322.384 88.04C322.04 87.664 321.768 87.212 321.568 86.684C321.368 86.156 321.268 85.56 321.268 84.896C321.268 84.216 321.368 83.608 321.568 83.072C321.768 82.528 322.04 82.072 322.384 81.704C322.736 81.328 323.148 81.04 323.62 80.84C324.1 80.64 324.62 80.54 325.18 80.54C325.74 80.54 326.256 80.64 326.728 80.84C327.208 81.04 327.62 81.328 327.964 81.704C328.316 82.072 328.592 82.528 328.792 83.072C328.992 83.608 329.092 84.216 329.092 84.896ZM327.1 84.896C327.1 84.408 327.048 83.996 326.944 83.66C326.848 83.316 326.712 83.04 326.536 82.832C326.368 82.616 326.164 82.464 325.924 82.376C325.692 82.28 325.444 82.232 325.18 82.232C324.908 82.232 324.656 82.28 324.424 82.376C324.192 82.464 323.992 82.616 323.824 82.832C323.656 83.04 323.524 83.316 323.428 83.66C323.332 83.996 323.284 84.408 323.284 84.896C323.284 85.376 323.332 85.78 323.428 86.108C323.524 86.436 323.656 86.704 323.824 86.912C323.992 87.112 324.192 87.256 324.424 87.344C324.656 87.432 324.908 87.476 325.18 87.476C325.444 87.476 325.692 87.432 325.924 87.344C326.164 87.256 326.368 87.112 326.536 86.912C326.712 86.704 326.848 86.436 326.944 86.108C327.048 85.78 327.1 85.376 327.1 84.896ZM335.02 81.14C335.108 81.028 335.212 80.932 335.332 80.852C335.46 80.764 335.636 80.72 335.86 80.72H337.72L324.988 97.604C324.9 97.716 324.792 97.812 324.664 97.892C324.536 97.964 324.38 98 324.196 98H322.276L335.02 81.14ZM338.764 93.932C338.764 94.596 338.656 95.192 338.44 95.72C338.224 96.248 337.936 96.696 337.576 97.064C337.216 97.432 336.8 97.716 336.328 97.916C335.856 98.108 335.36 98.204 334.84 98.204C334.28 98.204 333.76 98.108 333.28 97.916C332.808 97.716 332.396 97.432 332.044 97.064C331.7 96.696 331.428 96.248 331.228 95.72C331.036 95.192 330.94 94.596 330.94 93.932C330.94 93.252 331.036 92.644 331.228 92.108C331.428 91.564 331.7 91.104 332.044 90.728C332.396 90.352 332.808 90.068 333.28 89.876C333.76 89.676 334.28 89.576 334.84 89.576C335.4 89.576 335.92 89.676 336.4 89.876C336.88 90.068 337.292 90.352 337.636 90.728C337.988 91.104 338.264 91.564 338.464 92.108C338.664 92.644 338.764 93.252 338.764 93.932ZM336.772 93.932C336.772 93.444 336.72 93.032 336.616 92.696C336.52 92.352 336.384 92.076 336.208 91.868C336.032 91.652 335.824 91.5 335.584 91.412C335.352 91.316 335.104 91.268 334.84 91.268C334.576 91.268 334.328 91.316 334.096 91.412C333.864 91.5 333.66 91.652 333.484 91.868C333.316 92.076 333.184 92.352 333.088 92.696C332.992 93.032 332.944 93.444 332.944 93.932C332.944 94.412 332.992 94.816 333.088 95.144C333.184 95.472 333.316 95.74 333.484 95.948C333.66 96.148 333.864 96.292 334.096 96.38C334.328 96.468 334.576 96.512 334.84 96.512C335.104 96.512 335.352 96.468 335.584 96.38C335.824 96.292 336.032 96.148 336.208 95.948C336.384 95.74 336.52 95.472 336.616 95.144C336.72 94.816 336.772 94.412 336.772 93.932Z" fill="white"/>
<path d="M363 89C363 116.614 340.614 139 313 139C285.386 139 263 116.614 263 89C263 61.3858 285.386 39 313 39C340.614 39 363 61.3858 363 89ZM273 89C273 111.091 290.909 129 313 129C335.091 129 353 111.091 353 89C353 66.9086 335.091 49 313 49C290.909 49 273 66.9086 273 89Z" fill="#54C4A9"/>
<path d="M313 39C306.434 39 299.932 40.2933 293.866 42.806C287.8 45.3188 282.288 49.0017 277.645 53.6447C273.002 58.2876 269.319 63.7996 266.806 69.8658C264.293 75.9321 263 82.4339 263 89L273 89C273 83.7471 274.035 78.5457 276.045 73.6927C278.055 68.8396 281.001 64.4301 284.716 60.7157C288.43 57.0014 292.84 54.055 297.693 52.0448C302.546 50.0346 307.747 49 313 49L313 39Z" fill="#D9D9D9"/>
<path d="M41.81 30.515H39.795V32.64H39V30.515H36.995V29.775H39V27.66H39.795V29.775H41.81V30.515ZM42.9208 28.275C42.9708 27.9417 43.0641 27.6483 43.2008 27.395C43.3374 27.1417 43.5091 26.93 43.7158 26.76C43.9224 26.5867 44.1591 26.4567 44.4258 26.37C44.6958 26.2833 44.9858 26.24 45.2958 26.24C45.6058 26.24 45.8908 26.285 46.1508 26.375C46.4108 26.4617 46.6324 26.5867 46.8158 26.75C47.0024 26.91 47.1474 27.1033 47.2508 27.33C47.3541 27.5567 47.4058 27.8067 47.4058 28.08C47.4058 28.31 47.3774 28.5133 47.3208 28.69C47.2641 28.8667 47.1824 29.0217 47.0758 29.155C46.9724 29.2883 46.8458 29.4017 46.6958 29.495C46.5458 29.585 46.3774 29.66 46.1908 29.72C46.6474 29.8467 46.9908 30.0533 47.2208 30.34C47.4508 30.6233 47.5658 30.9833 47.5658 31.42C47.5658 31.7567 47.5024 32.06 47.3758 32.33C47.2491 32.5967 47.0758 32.8233 46.8558 33.01C46.6358 33.1933 46.3791 33.335 46.0858 33.435C45.7958 33.5317 45.4858 33.58 45.1558 33.58C44.7791 33.58 44.4558 33.535 44.1858 33.445C43.9158 33.3517 43.6858 33.2233 43.4958 33.06C43.3058 32.8933 43.1474 32.695 43.0208 32.465C42.8974 32.2317 42.7924 31.9767 42.7058 31.7L43.1308 31.52C43.2408 31.4733 43.3474 31.46 43.4508 31.48C43.5541 31.5 43.6291 31.5583 43.6758 31.655C43.7258 31.755 43.7824 31.8683 43.8458 31.995C43.9124 32.1183 44.0008 32.2367 44.1108 32.35C44.2208 32.46 44.3574 32.5533 44.5208 32.63C44.6874 32.7067 44.8958 32.745 45.1458 32.745C45.3858 32.745 45.5958 32.7067 45.7758 32.63C45.9558 32.55 46.1058 32.4483 46.2258 32.325C46.3458 32.1983 46.4358 32.0583 46.4958 31.905C46.5558 31.7517 46.5858 31.6 46.5858 31.45C46.5858 31.2633 46.5624 31.0917 46.5158 30.935C46.4691 30.7783 46.3791 30.645 46.2458 30.535C46.1158 30.4217 45.9341 30.3333 45.7008 30.27C45.4674 30.2067 45.1641 30.175 44.7908 30.175V29.465C45.0974 29.4617 45.3558 29.43 45.5658 29.37C45.7791 29.31 45.9508 29.2267 46.0808 29.12C46.2108 29.0133 46.3041 28.8867 46.3608 28.74C46.4208 28.5933 46.4508 28.43 46.4508 28.25C46.4508 28.0533 46.4208 27.8817 46.3608 27.735C46.3008 27.5883 46.2158 27.4667 46.1058 27.37C45.9991 27.27 45.8708 27.1967 45.7208 27.15C45.5741 27.1 45.4141 27.075 45.2408 27.075C45.0674 27.075 44.9074 27.1 44.7608 27.15C44.6141 27.2 44.4841 27.27 44.3708 27.36C44.2574 27.45 44.1624 27.5567 44.0858 27.68C44.0091 27.8033 43.9541 27.9367 43.9208 28.08C43.8741 28.2067 43.8141 28.2917 43.7408 28.335C43.6708 28.3783 43.5691 28.3883 43.4358 28.365L42.9208 28.275ZM53.2116 32.755V33.5H49.3316V32.755H50.8516V28.05C50.8516 27.9 50.8566 27.745 50.8666 27.585L49.6466 28.62C49.5999 28.6567 49.5532 28.68 49.5066 28.69C49.4599 28.7 49.4149 28.7017 49.3716 28.695C49.3316 28.6883 49.2949 28.675 49.2616 28.655C49.2316 28.6317 49.2066 28.6083 49.1866 28.585L48.8816 28.16L51.0316 26.305H51.8266V32.755H53.2116ZM54.4273 32.915C54.4273 32.825 54.444 32.74 54.4773 32.66C54.5107 32.58 54.5557 32.51 54.6123 32.45C54.6723 32.39 54.7423 32.3433 54.8223 32.31C54.9023 32.2733 54.989 32.255 55.0823 32.255C55.1723 32.255 55.2573 32.2733 55.3373 32.31C55.4173 32.3433 55.4873 32.39 55.5473 32.45C55.6073 32.51 55.654 32.58 55.6873 32.66C55.724 32.74 55.7423 32.825 55.7423 32.915C55.7423 33.0083 55.724 33.095 55.6873 33.175C55.654 33.255 55.6073 33.325 55.5473 33.385C55.4873 33.445 55.4173 33.4917 55.3373 33.525C55.2573 33.5583 55.1723 33.575 55.0823 33.575C54.989 33.575 54.9023 33.5583 54.8223 33.525C54.7423 33.4917 54.6723 33.445 54.6123 33.385C54.5557 33.325 54.5107 33.255 54.4773 33.175C54.444 33.095 54.4273 33.0083 54.4273 32.915ZM61.1956 32.575C61.3023 32.575 61.3856 32.6067 61.4456 32.67C61.5056 32.73 61.5356 32.81 61.5356 32.91V33.5H56.7156V33.165C56.7156 33.0983 56.729 33.0283 56.7556 32.955C56.7823 32.8783 56.8273 32.81 56.8906 32.75L59.1606 30.475C59.3506 30.285 59.5223 30.1017 59.6756 29.925C59.829 29.7483 59.959 29.5733 60.0656 29.4C60.1723 29.2233 60.254 29.0433 60.3106 28.86C60.3706 28.6767 60.4006 28.4833 60.4006 28.28C60.4006 28.08 60.369 27.905 60.3056 27.755C60.2423 27.6017 60.1556 27.475 60.0456 27.375C59.9356 27.275 59.8056 27.2 59.6556 27.15C59.5056 27.1 59.344 27.075 59.1706 27.075C58.9973 27.075 58.8373 27.1 58.6906 27.15C58.5473 27.2 58.419 27.27 58.3056 27.36C58.1923 27.45 58.0973 27.5567 58.0206 27.68C57.944 27.8033 57.889 27.9367 57.8556 28.08C57.809 28.2067 57.749 28.2917 57.6756 28.335C57.6056 28.3783 57.5023 28.3883 57.3656 28.365L56.8556 28.275C56.9023 27.9417 56.994 27.6483 57.1306 27.395C57.2673 27.1417 57.439 26.93 57.6456 26.76C57.8523 26.5867 58.089 26.4567 58.3556 26.37C58.6256 26.2833 58.9156 26.24 59.2256 26.24C59.539 26.24 59.8273 26.2867 60.0906 26.38C60.3573 26.47 60.5873 26.6017 60.7806 26.775C60.974 26.9483 61.1256 27.16 61.2356 27.41C61.3456 27.6567 61.4006 27.9367 61.4006 28.25C61.4006 28.5167 61.3606 28.765 61.2806 28.995C61.204 29.2217 61.0973 29.4383 60.9606 29.645C60.8273 29.8517 60.6706 30.0533 60.4906 30.25C60.314 30.4433 60.1256 30.64 59.9256 30.84L58.1056 32.7C58.2456 32.6633 58.3856 32.6333 58.5256 32.61C58.669 32.5867 58.804 32.575 58.9306 32.575H61.1956ZM64.9664 32.805C65.1931 32.805 65.3947 32.7733 65.5714 32.71C65.7481 32.6467 65.8981 32.5583 66.0214 32.445C66.1447 32.3283 66.2381 32.19 66.3014 32.03C66.3647 31.87 66.3964 31.695 66.3964 31.505C66.3964 31.2717 66.3581 31.0717 66.2814 30.905C66.2047 30.735 66.1014 30.5967 65.9714 30.49C65.8414 30.38 65.6897 30.3 65.5164 30.25C65.3431 30.1967 65.1597 30.17 64.9664 30.17C64.7697 30.17 64.5847 30.1967 64.4114 30.25C64.2381 30.3 64.0864 30.38 63.9564 30.49C63.8264 30.5967 63.7231 30.735 63.6464 30.905C63.5731 31.0717 63.5364 31.2717 63.5364 31.505C63.5364 31.695 63.5681 31.87 63.6314 32.03C63.6947 32.19 63.7881 32.3283 63.9114 32.445C64.0347 32.5583 64.1847 32.6467 64.3614 32.71C64.5381 32.7733 64.7397 32.805 64.9664 32.805ZM64.9664 26.99C64.7597 26.99 64.5781 27.0217 64.4214 27.085C64.2681 27.145 64.1397 27.2283 64.0364 27.335C63.9331 27.4417 63.8547 27.565 63.8014 27.705C63.7514 27.845 63.7264 27.995 63.7264 28.155C63.7264 28.3117 63.7481 28.465 63.7914 28.615C63.8381 28.7617 63.9097 28.8933 64.0064 29.01C64.1064 29.1233 64.2347 29.215 64.3914 29.285C64.5481 29.355 64.7397 29.39 64.9664 29.39C65.1897 29.39 65.3797 29.355 65.5364 29.285C65.6964 29.215 65.8247 29.1233 65.9214 29.01C66.0214 28.8933 66.0931 28.7617 66.1364 28.615C66.1831 28.465 66.2064 28.3117 66.2064 28.155C66.2064 27.995 66.1797 27.845 66.1264 27.705C66.0764 27.565 65.9997 27.4417 65.8964 27.335C65.7931 27.2283 65.6631 27.145 65.5064 27.085C65.3531 27.0217 65.1731 26.99 64.9664 26.99ZM66.0414 29.755C66.4881 29.8883 66.8264 30.1033 67.0564 30.4C67.2897 30.6967 67.4064 31.0717 67.4064 31.525C67.4064 31.8383 67.3464 32.1217 67.2264 32.375C67.1097 32.6283 66.9431 32.845 66.7264 33.025C66.5131 33.2017 66.2564 33.3383 65.9564 33.435C65.6564 33.5317 65.3264 33.58 64.9664 33.58C64.6064 33.58 64.2764 33.5317 63.9764 33.435C63.6764 33.3383 63.4181 33.2017 63.2014 33.025C62.9881 32.845 62.8214 32.6283 62.7014 32.375C62.5847 32.1217 62.5264 31.8383 62.5264 31.525C62.5264 31.0717 62.6414 30.6967 62.8714 30.4C63.1047 30.1033 63.4447 29.8883 63.8914 29.755C63.5214 29.615 63.2431 29.4067 63.0564 29.13C62.8697 28.85 62.7764 28.5183 62.7764 28.135C62.7764 27.8683 62.8281 27.62 62.9314 27.39C63.0381 27.1567 63.1864 26.955 63.3764 26.785C63.5697 26.615 63.8014 26.4817 64.0714 26.385C64.3414 26.2883 64.6397 26.24 64.9664 26.24C65.2931 26.24 65.5914 26.2883 65.8614 26.385C66.1314 26.4817 66.3614 26.615 66.5514 26.785C66.7447 26.955 66.8931 27.1567 66.9964 27.39C67.1031 27.62 67.1564 27.8683 67.1564 28.135C67.1564 28.5183 67.0631 28.85 66.8764 29.13C66.6897 29.4067 66.4114 29.615 66.0414 29.755ZM71.5072 28.055C71.5072 28.335 71.4622 28.585 71.3722 28.805C71.2855 29.025 71.1689 29.2117 71.0222 29.365C70.8755 29.515 70.7039 29.6317 70.5072 29.715C70.3139 29.795 70.1105 29.835 69.8972 29.835C69.6672 29.835 69.4539 29.795 69.2572 29.715C69.0639 29.6317 68.8955 29.515 68.7522 29.365C68.6089 29.2117 68.4955 29.025 68.4122 28.805C68.3322 28.585 68.2922 28.335 68.2922 28.055C68.2922 27.7683 68.3322 27.5133 68.4122 27.29C68.4955 27.0667 68.6089 26.8783 68.7522 26.725C68.8955 26.5683 69.0639 26.45 69.2572 26.37C69.4539 26.2867 69.6672 26.245 69.8972 26.245C70.1272 26.245 70.3389 26.2867 70.5322 26.37C70.7289 26.45 70.8989 26.5683 71.0422 26.725C71.1889 26.8783 71.3022 27.0667 71.3822 27.29C71.4655 27.5133 71.5072 27.7683 71.5072 28.055ZM70.7472 28.055C70.7472 27.8417 70.7239 27.6617 70.6772 27.515C70.6339 27.365 70.5739 27.245 70.4972 27.155C70.4205 27.0617 70.3305 26.995 70.2272 26.955C70.1239 26.9117 70.0139 26.89 69.8972 26.89C69.7805 26.89 69.6705 26.9117 69.5672 26.955C69.4639 26.995 69.3739 27.0617 69.2972 27.155C69.2239 27.245 69.1655 27.365 69.1222 27.515C69.0789 27.6617 69.0572 27.8417 69.0572 28.055C69.0572 28.2617 69.0789 28.4383 69.1222 28.585C69.1655 28.7283 69.2239 28.845 69.2972 28.935C69.3739 29.025 69.4639 29.09 69.5672 29.13C69.6705 29.17 69.7805 29.19 69.8972 29.19C70.0139 29.19 70.1239 29.17 70.2272 29.13C70.3305 29.09 70.4205 29.025 70.4972 28.935C70.5739 28.845 70.6339 28.7283 70.6772 28.585C70.7239 28.4383 70.7472 28.2617 70.7472 28.055ZM74.0072 26.48C74.0439 26.4367 74.0855 26.4 74.1322 26.37C74.1822 26.3367 74.2505 26.32 74.3372 26.32H75.0422L69.7722 33.345C69.7355 33.3917 69.6922 33.43 69.6422 33.46C69.5922 33.4867 69.5322 33.5 69.4622 33.5H68.7372L74.0072 26.48ZM75.5022 31.805C75.5022 32.085 75.4572 32.335 75.3672 32.555C75.2805 32.775 75.1639 32.9617 75.0172 33.115C74.8705 33.265 74.6989 33.3817 74.5022 33.465C74.3089 33.545 74.1055 33.585 73.8922 33.585C73.6622 33.585 73.4489 33.545 73.2522 33.465C73.0589 33.3817 72.8905 33.265 72.7472 33.115C72.6039 32.9617 72.4905 32.775 72.4072 32.555C72.3272 32.335 72.2872 32.085 72.2872 31.805C72.2872 31.5183 72.3272 31.2633 72.4072 31.04C72.4905 30.8167 72.6039 30.6283 72.7472 30.475C72.8905 30.3183 73.0589 30.2 73.2522 30.12C73.4489 30.04 73.6622 30 73.8922 30C74.1222 30 74.3339 30.04 74.5272 30.12C74.7239 30.2 74.8939 30.3183 75.0372 30.475C75.1839 30.6283 75.2972 30.8167 75.3772 31.04C75.4605 31.2633 75.5022 31.5183 75.5022 31.805ZM74.7422 31.805C74.7422 31.5917 74.7189 31.4117 74.6722 31.265C74.6289 31.1183 74.5689 31 74.4922 30.91C74.4155 30.8167 74.3255 30.75 74.2222 30.71C74.1189 30.6667 74.0089 30.645 73.8922 30.645C73.7722 30.645 73.6605 30.6667 73.5572 30.71C73.4572 30.75 73.3689 30.8167 73.2922 30.91C73.2189 31 73.1605 31.1183 73.1172 31.265C73.0739 31.4117 73.0522 31.5917 73.0522 31.805C73.0522 32.015 73.0739 32.1917 73.1172 32.335C73.1605 32.4783 73.2189 32.595 73.2922 32.685C73.3689 32.775 73.4572 32.84 73.5572 32.88C73.6605 32.92 73.7722 32.94 73.8922 32.94C74.0089 32.94 74.1189 32.92 74.2222 32.88C74.3255 32.84 74.4155 32.775 74.4922 32.685C74.5689 32.595 74.6289 32.4783 74.6722 32.335C74.7189 32.1917 74.7422 32.015 74.7422 31.805Z" fill="#B2B2B2"/>
<path d="M27 37V22M27 22L22 27M27 22L32 27" stroke="#61FF00" stroke-width="2"/>
</g>
<defs>
<filter id="filter0_b_177_118" x="-100" y="-100" width="600" height="377" filterUnits="userSpaceOnUse" color-interpolation-filters="sRGB">
<feFlood flood-opacity="0" result="BackgroundImageFix"/>
<feGaussianBlur in="BackgroundImageFix" stdDeviation="50"/>
<feComposite in2="SourceAlpha" operator="in" result="effect1_backgroundBlur_177_118"/>
<feBlend mode="normal" in="SourceGraphic" in2="effect1_backgroundBlur_177_118" result="shape"/>
</filter>
</defs>
</svg>
