<svg width="325" height="230" viewBox="0 0 325 230" fill="none" xmlns="http://www.w3.org/2000/svg">
<g opacity="0.95" filter="url(#filter0_b_177_144)">
<rect width="325" height="230" rx="15" fill="#05184B"/>
<rect x="0.5" y="0.5" width="324" height="229" rx="14.5" stroke="#00349A"/>
<circle cx="227" cy="109" r="74.5" stroke="white"/>
<circle opacity="0.5" cx="226.5" cy="112.5" r="62" stroke="white"/>
<circle opacity="0.5" cx="227" cy="113" r="49.5" stroke="white"/>
<circle opacity="0.5" cx="226.5" cy="112.5" r="37" stroke="white"/>
<circle opacity="0.5" cx="227" cy="113" r="24.5" stroke="white"/>
<path d="M160.5 143.5L224 110.5V183.5" stroke="white" stroke-width="0.5"/>
<path d="M292.5 144.5L224 110V183" stroke="white" stroke-width="0.5"/>
<path d="M277 137.5L224 167.5V110L277 137.5Z" fill="#004597"/>
<path d="M199.5 39.5L224 110L161 143.5" stroke="white" stroke-width="0.5"/>
<path d="M224 144L188 129L224 110.5V127V144Z" fill="#1FFFD7"/>
<path d="M206.345 59L224 110L167 140L206.345 59Z" fill="#1A2844"/>
<path d="M200 40.5L224 110L287.5 66" stroke="white" stroke-width="0.5"/>
<path d="M253 90L224 110L214 81.5L253 90Z" fill="#0A0082"/>
<path d="M253 124.5L224.5 110L254.5 89L253 124.5Z" fill="#3089AF"/>
<path d="M20.17 40.89C20.486 40.89 20.752 40.854 20.968 40.782C21.188 40.706 21.366 40.604 21.502 40.476C21.642 40.348 21.742 40.198 21.802 40.026C21.866 39.85 21.898 39.662 21.898 39.462C21.898 39.054 21.758 38.734 21.478 38.502C21.202 38.266 20.764 38.148 20.164 38.148H18.43V40.89H20.17ZM18.43 34.458V37.158H19.834C20.434 37.158 20.882 37.042 21.178 36.81C21.474 36.578 21.622 36.244 21.622 35.808C21.622 35.332 21.482 34.988 21.202 34.776C20.926 34.564 20.492 34.458 19.9 34.458H18.43ZM19.9 33.36C20.452 33.36 20.924 33.414 21.316 33.522C21.708 33.626 22.03 33.776 22.282 33.972C22.534 34.168 22.718 34.408 22.834 34.692C22.954 34.972 23.014 35.288 23.014 35.64C23.014 35.844 22.982 36.042 22.918 36.234C22.858 36.422 22.762 36.6 22.63 36.768C22.502 36.932 22.34 37.08 22.144 37.212C21.948 37.344 21.716 37.454 21.448 37.542C22.672 37.802 23.284 38.452 23.284 39.492C23.284 39.86 23.214 40.198 23.074 40.506C22.938 40.81 22.738 41.074 22.474 41.298C22.214 41.518 21.892 41.69 21.508 41.814C21.124 41.938 20.686 42 20.194 42H17.026V33.36H19.9ZM28.9061 38.25C28.9061 38.034 28.8741 37.834 28.8101 37.65C28.7501 37.462 28.6601 37.3 28.5401 37.164C28.4201 37.024 28.2701 36.916 28.0901 36.84C27.9141 36.76 27.7101 36.72 27.4781 36.72C27.0101 36.72 26.6421 36.854 26.3741 37.122C26.1061 37.39 25.9361 37.766 25.8641 38.25H28.9061ZM25.8281 39.042C25.8441 39.39 25.8981 39.692 25.9901 39.948C26.0821 40.2 26.2041 40.41 26.3561 40.578C26.5121 40.746 26.6961 40.872 26.9081 40.956C27.1241 41.036 27.3641 41.076 27.6281 41.076C27.8801 41.076 28.0981 41.048 28.2821 40.992C28.4661 40.932 28.6261 40.868 28.7621 40.8C28.8981 40.728 29.0141 40.664 29.1101 40.608C29.2061 40.548 29.2941 40.518 29.3741 40.518C29.4781 40.518 29.5581 40.558 29.6141 40.638L29.9801 41.112C29.8281 41.292 29.6561 41.444 29.4641 41.568C29.2721 41.692 29.0681 41.794 28.8521 41.874C28.6361 41.95 28.4141 42.004 28.1861 42.036C27.9581 42.072 27.7361 42.09 27.5201 42.09C27.0961 42.09 26.7021 42.02 26.3381 41.88C25.9781 41.736 25.6641 41.526 25.3961 41.25C25.1321 40.974 24.9241 40.632 24.7721 40.224C24.6241 39.816 24.5501 39.346 24.5501 38.814C24.5501 38.39 24.6161 37.994 24.7481 37.626C24.8841 37.258 25.0761 36.938 25.3241 36.666C25.5761 36.394 25.8801 36.18 26.2361 36.024C26.5961 35.864 27.0021 35.784 27.4541 35.784C27.8301 35.784 28.1781 35.846 28.4981 35.97C28.8181 36.09 29.0941 36.268 29.3261 36.504C29.5581 36.74 29.7381 37.03 29.8661 37.374C29.9981 37.714 30.0641 38.102 30.0641 38.538C30.0641 38.738 30.0421 38.872 29.9981 38.94C29.9541 39.008 29.8741 39.042 29.7581 39.042H25.8281ZM35.2811 36.99C35.2491 37.046 35.2131 37.086 35.1731 37.11C35.1331 37.134 35.0831 37.146 35.0231 37.146C34.9551 37.146 34.8811 37.126 34.8011 37.086C34.7211 37.042 34.6271 36.994 34.5191 36.942C34.4111 36.89 34.2831 36.844 34.1351 36.804C33.9911 36.76 33.8211 36.738 33.6251 36.738C33.4651 36.738 33.3191 36.758 33.1871 36.798C33.0591 36.834 32.9491 36.888 32.8571 36.96C32.7691 37.028 32.7011 37.11 32.6531 37.206C32.6051 37.298 32.5811 37.398 32.5811 37.506C32.5811 37.65 32.6251 37.77 32.7131 37.866C32.8011 37.962 32.9171 38.046 33.0611 38.118C33.2051 38.186 33.3691 38.248 33.5531 38.304C33.7371 38.36 33.9251 38.42 34.1171 38.484C34.3091 38.548 34.4971 38.622 34.6811 38.706C34.8651 38.79 35.0291 38.894 35.1731 39.018C35.3171 39.138 35.4331 39.286 35.5211 39.462C35.6091 39.634 35.6531 39.844 35.6531 40.092C35.6531 40.38 35.6011 40.646 35.4971 40.89C35.3931 41.134 35.2411 41.346 35.0411 41.526C34.8411 41.706 34.5911 41.846 34.2911 41.946C33.9951 42.046 33.6551 42.096 33.2711 42.096C33.0591 42.096 32.8531 42.076 32.6531 42.036C32.4571 42 32.2691 41.95 32.0891 41.886C31.9131 41.818 31.7471 41.738 31.5911 41.646C31.4391 41.554 31.3031 41.454 31.1831 41.346L31.4831 40.854C31.5191 40.794 31.5631 40.748 31.6151 40.716C31.6711 40.68 31.7391 40.662 31.8191 40.662C31.9031 40.662 31.9851 40.69 32.0651 40.746C32.1491 40.798 32.2451 40.856 32.3531 40.92C32.4651 40.984 32.5991 41.044 32.7551 41.1C32.9111 41.152 33.1051 41.178 33.3371 41.178C33.5291 41.178 33.6951 41.156 33.8351 41.112C33.9751 41.064 34.0911 41 34.1831 40.92C34.2751 40.84 34.3431 40.75 34.3871 40.65C34.4311 40.546 34.4531 40.436 34.4531 40.32C34.4531 40.164 34.4091 40.036 34.3211 39.936C34.2331 39.836 34.1151 39.75 33.9671 39.678C33.8231 39.606 33.6571 39.542 33.4691 39.486C33.2851 39.43 33.0971 39.37 32.9051 39.306C32.7131 39.242 32.5231 39.168 32.3351 39.084C32.1511 39 31.9851 38.894 31.8371 38.766C31.6931 38.634 31.5771 38.476 31.4891 38.292C31.4011 38.104 31.3571 37.876 31.3571 37.608C31.3571 37.364 31.4051 37.132 31.5011 36.912C31.6011 36.692 31.7451 36.498 31.9331 36.33C32.1251 36.162 32.3591 36.03 32.6351 35.934C32.9151 35.834 33.2371 35.784 33.6011 35.784C34.0131 35.784 34.3871 35.85 34.7231 35.982C35.0591 36.114 35.3411 36.294 35.5691 36.522L35.2811 36.99ZM39.1874 42.096C38.6794 42.096 38.2874 41.954 38.0114 41.67C37.7394 41.382 37.6034 40.978 37.6034 40.458V36.894H36.9314C36.8594 36.894 36.7974 36.872 36.7454 36.828C36.6934 36.78 36.6674 36.71 36.6674 36.618V36.096L37.6574 35.952L37.9394 34.182C37.9594 34.114 37.9934 34.06 38.0414 34.02C38.0894 33.976 38.1534 33.954 38.2334 33.954H38.8934V35.964H40.5914V36.894H38.8934V40.368C38.8934 40.588 38.9474 40.756 39.0554 40.872C39.1634 40.988 39.3074 41.046 39.4874 41.046C39.5874 41.046 39.6734 41.034 39.7454 41.01C39.8174 40.982 39.8794 40.954 39.9314 40.926C39.9834 40.894 40.0274 40.866 40.0634 40.842C40.1034 40.814 40.1414 40.8 40.1774 40.8C40.2494 40.8 40.3074 40.84 40.3514 40.92L40.7354 41.55C40.5354 41.726 40.2994 41.862 40.0274 41.958C39.7554 42.05 39.4754 42.096 39.1874 42.096ZM46.6065 40.464C46.7865 40.696 46.9825 40.86 47.1945 40.956C47.4105 41.048 47.6485 41.094 47.9085 41.094C48.4125 41.094 48.8045 40.91 49.0845 40.542C49.3685 40.174 49.5105 39.626 49.5105 38.898C49.5105 38.522 49.4785 38.202 49.4145 37.938C49.3505 37.67 49.2585 37.452 49.1385 37.284C49.0185 37.116 48.8725 36.994 48.7005 36.918C48.5285 36.842 48.3345 36.804 48.1185 36.804C47.7905 36.804 47.5065 36.876 47.2665 37.02C47.0305 37.16 46.8105 37.362 46.6065 37.626V40.464ZM46.5405 36.768C46.7965 36.468 47.0865 36.226 47.4105 36.042C47.7385 35.858 48.1185 35.766 48.5505 35.766C48.8945 35.766 49.2065 35.836 49.4865 35.976C49.7665 36.112 50.0065 36.312 50.2065 36.576C50.4065 36.84 50.5605 37.168 50.6685 37.56C50.7805 37.948 50.8365 38.394 50.8365 38.898C50.8365 39.35 50.7745 39.772 50.6505 40.164C50.5305 40.552 50.3565 40.89 50.1285 41.178C49.9005 41.462 49.6245 41.686 49.3005 41.85C48.9765 42.01 48.6105 42.09 48.2025 42.09C47.8425 42.09 47.5365 42.032 47.2845 41.916C47.0365 41.8 46.8105 41.64 46.6065 41.436V44.034H45.3165V35.88H46.0965C46.2725 35.88 46.3845 35.962 46.4325 36.126L46.5405 36.768ZM56.4639 38.25C56.4639 38.034 56.4319 37.834 56.3679 37.65C56.3079 37.462 56.2179 37.3 56.0979 37.164C55.9779 37.024 55.8279 36.916 55.6479 36.84C55.4719 36.76 55.2679 36.72 55.0359 36.72C54.5679 36.72 54.1999 36.854 53.9319 37.122C53.6639 37.39 53.4939 37.766 53.4219 38.25H56.4639ZM53.3859 39.042C53.4019 39.39 53.4559 39.692 53.5479 39.948C53.6399 40.2 53.7619 40.41 53.9139 40.578C54.0699 40.746 54.2539 40.872 54.4659 40.956C54.6819 41.036 54.9219 41.076 55.1859 41.076C55.4379 41.076 55.6559 41.048 55.8399 40.992C56.0239 40.932 56.1839 40.868 56.3199 40.8C56.4559 40.728 56.5719 40.664 56.6679 40.608C56.7639 40.548 56.8519 40.518 56.9319 40.518C57.0359 40.518 57.1159 40.558 57.1719 40.638L57.5379 41.112C57.3859 41.292 57.2139 41.444 57.0219 41.568C56.8299 41.692 56.6259 41.794 56.4099 41.874C56.1939 41.95 55.9719 42.004 55.7439 42.036C55.5159 42.072 55.2939 42.09 55.0779 42.09C54.6539 42.09 54.2599 42.02 53.8959 41.88C53.5359 41.736 53.2219 41.526 52.9539 41.25C52.6899 40.974 52.4819 40.632 52.3299 40.224C52.1819 39.816 52.1079 39.346 52.1079 38.814C52.1079 38.39 52.1739 37.994 52.3059 37.626C52.4419 37.258 52.6339 36.938 52.8819 36.666C53.1339 36.394 53.4379 36.18 53.7939 36.024C54.1539 35.864 54.5599 35.784 55.0119 35.784C55.3879 35.784 55.7359 35.846 56.0559 35.97C56.3759 36.09 56.6519 36.268 56.8839 36.504C57.1159 36.74 57.2959 37.03 57.4239 37.374C57.5559 37.714 57.6219 38.102 57.6219 38.538C57.6219 38.738 57.5999 38.872 57.5559 38.94C57.5119 39.008 57.4319 39.042 57.3159 39.042H53.3859ZM60.4029 37.014C60.5949 36.626 60.8269 36.322 61.0989 36.102C61.3709 35.878 61.6969 35.766 62.0769 35.766C62.2089 35.766 62.3329 35.782 62.4489 35.814C62.5649 35.842 62.6689 35.886 62.7609 35.946L62.6709 36.918C62.6549 36.986 62.6289 37.034 62.5929 37.062C62.5609 37.086 62.5169 37.098 62.4609 37.098C62.4009 37.098 62.3149 37.088 62.2029 37.068C62.0909 37.044 61.9729 37.032 61.8489 37.032C61.6689 37.032 61.5089 37.058 61.3689 37.11C61.2329 37.162 61.1089 37.238 60.9969 37.338C60.8889 37.438 60.7929 37.56 60.7089 37.704C60.6249 37.848 60.5469 38.012 60.4749 38.196V42H59.1849V35.88H59.9349C60.0709 35.88 60.1649 35.906 60.2169 35.958C60.2689 36.006 60.3049 36.092 60.3249 36.216L60.4029 37.014ZM64.3886 42V36.906L63.7886 36.822C63.6886 36.802 63.6066 36.766 63.5426 36.714C63.4826 36.662 63.4526 36.588 63.4526 36.492V35.964H64.3886V35.448C64.3886 35.1 64.4386 34.788 64.5386 34.512C64.6426 34.236 64.7886 34.002 64.9766 33.81C65.1686 33.618 65.4006 33.472 65.6726 33.372C65.9446 33.268 66.2506 33.216 66.5906 33.216C66.7306 33.216 66.8626 33.226 66.9866 33.246C67.1146 33.266 67.2386 33.296 67.3586 33.336L67.3346 33.984C67.3266 34.092 67.2726 34.156 67.1726 34.176C67.0766 34.196 66.9546 34.206 66.8066 34.206C66.6266 34.206 66.4646 34.228 66.3206 34.272C66.1766 34.312 66.0526 34.382 65.9486 34.482C65.8486 34.582 65.7706 34.714 65.7146 34.878C65.6626 35.042 65.6366 35.246 65.6366 35.49V35.964H67.3106V36.894H65.6786V42H64.3886ZM71.0587 35.784C71.5107 35.784 71.9187 35.858 72.2827 36.006C72.6507 36.154 72.9627 36.364 73.2187 36.636C73.4787 36.908 73.6787 37.238 73.8187 37.626C73.9587 38.014 74.0287 38.45 74.0287 38.934C74.0287 39.418 73.9587 39.854 73.8187 40.242C73.6787 40.63 73.4787 40.962 73.2187 41.238C72.9627 41.51 72.6507 41.72 72.2827 41.868C71.9187 42.016 71.5107 42.09 71.0587 42.09C70.6027 42.09 70.1907 42.016 69.8227 41.868C69.4587 41.72 69.1467 41.51 68.8867 41.238C68.6267 40.962 68.4267 40.63 68.2867 40.242C68.1467 39.854 68.0767 39.418 68.0767 38.934C68.0767 38.45 68.1467 38.014 68.2867 37.626C68.4267 37.238 68.6267 36.908 68.8867 36.636C69.1467 36.364 69.4587 36.154 69.8227 36.006C70.1907 35.858 70.6027 35.784 71.0587 35.784ZM71.0587 41.082C71.6107 41.082 72.0207 40.898 72.2887 40.53C72.5607 40.158 72.6967 39.628 72.6967 38.94C72.6967 38.252 72.5607 37.722 72.2887 37.35C72.0207 36.974 71.6107 36.786 71.0587 36.786C70.4987 36.786 70.0827 36.974 69.8107 37.35C69.5387 37.722 69.4027 38.252 69.4027 38.94C69.4027 39.628 69.5387 40.158 69.8107 40.53C70.0827 40.898 70.4987 41.082 71.0587 41.082ZM76.8462 37.014C77.0382 36.626 77.2702 36.322 77.5422 36.102C77.8142 35.878 78.1402 35.766 78.5202 35.766C78.6522 35.766 78.7762 35.782 78.8922 35.814C79.0082 35.842 79.1122 35.886 79.2042 35.946L79.1142 36.918C79.0982 36.986 79.0722 37.034 79.0362 37.062C79.0042 37.086 78.9602 37.098 78.9042 37.098C78.8442 37.098 78.7582 37.088 78.6462 37.068C78.5342 37.044 78.4162 37.032 78.2922 37.032C78.1122 37.032 77.9522 37.058 77.8122 37.11C77.6762 37.162 77.5522 37.238 77.4402 37.338C77.3322 37.438 77.2362 37.56 77.1522 37.704C77.0682 37.848 76.9902 38.012 76.9182 38.196V42H75.6282V35.88H76.3782C76.5142 35.88 76.6082 35.906 76.6602 35.958C76.7122 36.006 76.7482 36.092 76.7682 36.216L76.8462 37.014ZM80.4179 42V35.88H81.1979C81.3739 35.88 81.4859 35.962 81.5339 36.126L81.6179 36.66C81.7299 36.532 81.8459 36.416 81.9659 36.312C82.0859 36.204 82.2139 36.112 82.3499 36.036C82.4899 35.956 82.6379 35.894 82.7939 35.85C82.9539 35.806 83.1259 35.784 83.3099 35.784C83.5059 35.784 83.6859 35.812 83.8499 35.868C84.0139 35.924 84.1579 36.004 84.2819 36.108C84.4099 36.212 84.5199 36.338 84.6119 36.486C84.7039 36.634 84.7799 36.8 84.8399 36.984C84.9319 36.772 85.0479 36.59 85.1879 36.438C85.3279 36.286 85.4839 36.162 85.6559 36.066C85.8279 35.97 86.0099 35.9 86.2019 35.856C86.3979 35.808 86.5959 35.784 86.7959 35.784C87.1239 35.784 87.4159 35.836 87.6719 35.94C87.9319 36.044 88.1499 36.196 88.3259 36.396C88.5059 36.592 88.6419 36.834 88.7339 37.122C88.8259 37.41 88.8719 37.738 88.8719 38.106V42H87.5819V38.106C87.5819 37.674 87.4879 37.35 87.2999 37.134C87.1159 36.914 86.8419 36.804 86.4779 36.804C86.3139 36.804 86.1599 36.832 86.0159 36.888C85.8719 36.944 85.7459 37.026 85.6379 37.134C85.5299 37.242 85.4439 37.378 85.3799 37.542C85.3199 37.702 85.2899 37.89 85.2899 38.106V42H83.9999V38.106C83.9999 37.658 83.9099 37.33 83.7299 37.122C83.5499 36.91 83.2859 36.804 82.9379 36.804C82.6979 36.804 82.4759 36.866 82.2719 36.99C82.0679 37.11 81.8799 37.276 81.7079 37.488V42H80.4179ZM94.0088 39.324C93.5488 39.34 93.1608 39.378 92.8448 39.438C92.5288 39.494 92.2728 39.568 92.0768 39.66C91.8808 39.748 91.7388 39.854 91.6508 39.978C91.5668 40.102 91.5248 40.238 91.5248 40.386C91.5248 40.53 91.5468 40.654 91.5908 40.758C91.6388 40.858 91.7028 40.942 91.7828 41.01C91.8668 41.074 91.9628 41.122 92.0708 41.154C92.1828 41.182 92.3048 41.196 92.4368 41.196C92.7728 41.196 93.0608 41.134 93.3008 41.01C93.5448 40.882 93.7808 40.698 94.0088 40.458V39.324ZM90.5888 36.732C91.2808 36.088 92.1048 35.766 93.0608 35.766C93.4128 35.766 93.7248 35.824 93.9968 35.94C94.2728 36.052 94.5028 36.212 94.6868 36.42C94.8748 36.628 95.0168 36.876 95.1128 37.164C95.2128 37.448 95.2628 37.764 95.2628 38.112V42H94.6868C94.5628 42 94.4688 41.982 94.4048 41.946C94.3408 41.906 94.2868 41.828 94.2428 41.712L94.1168 41.214C93.9608 41.354 93.8068 41.48 93.6548 41.592C93.5028 41.7 93.3448 41.792 93.1808 41.868C93.0208 41.944 92.8468 42 92.6588 42.036C92.4748 42.076 92.2708 42.096 92.0468 42.096C91.7988 42.096 91.5668 42.062 91.3508 41.994C91.1388 41.926 90.9548 41.824 90.7988 41.688C90.6428 41.548 90.5188 41.376 90.4268 41.172C90.3388 40.968 90.2948 40.728 90.2948 40.452C90.2948 40.216 90.3568 39.986 90.4808 39.762C90.6088 39.538 90.8168 39.338 91.1048 39.162C91.3968 38.982 91.7788 38.834 92.2508 38.718C92.7268 38.602 93.3128 38.536 94.0088 38.52V38.112C94.0088 37.672 93.9148 37.344 93.7268 37.128C93.5388 36.912 93.2628 36.804 92.8988 36.804C92.6508 36.804 92.4428 36.836 92.2748 36.9C92.1068 36.96 91.9608 37.026 91.8368 37.098C91.7128 37.17 91.6028 37.238 91.5068 37.302C91.4108 37.362 91.3088 37.392 91.2008 37.392C91.1128 37.392 91.0368 37.37 90.9728 37.326C90.9128 37.278 90.8628 37.22 90.8228 37.152L90.5888 36.732ZM98.34 36.69C98.472 36.554 98.608 36.432 98.748 36.324C98.892 36.212 99.044 36.116 99.204 36.036C99.364 35.956 99.534 35.894 99.714 35.85C99.894 35.806 100.09 35.784 100.302 35.784C100.638 35.784 100.932 35.84 101.184 35.952C101.44 36.064 101.654 36.222 101.826 36.426C102.002 36.63 102.134 36.876 102.222 37.164C102.31 37.448 102.354 37.762 102.354 38.106V42H101.07V38.106C101.07 37.694 100.974 37.374 100.782 37.146C100.594 36.918 100.306 36.804 99.918 36.804C99.63 36.804 99.362 36.87 99.114 37.002C98.87 37.134 98.64 37.314 98.424 37.542V42H97.134V35.88H97.914C98.09 35.88 98.202 35.962 98.25 36.126L98.34 36.69ZM108.547 37.08C108.507 37.132 108.469 37.172 108.433 37.2C108.397 37.228 108.345 37.242 108.277 37.242C108.209 37.242 108.137 37.218 108.061 37.17C107.989 37.122 107.901 37.07 107.797 37.014C107.697 36.954 107.575 36.9 107.431 36.852C107.287 36.804 107.107 36.78 106.891 36.78C106.611 36.78 106.365 36.83 106.153 36.93C105.945 37.03 105.769 37.174 105.625 37.362C105.485 37.546 105.379 37.772 105.307 38.04C105.239 38.304 105.205 38.602 105.205 38.934C105.205 39.278 105.243 39.584 105.319 39.852C105.395 40.12 105.503 40.346 105.643 40.53C105.787 40.714 105.959 40.854 106.159 40.95C106.363 41.046 106.591 41.094 106.843 41.094C107.091 41.094 107.293 41.064 107.449 41.004C107.605 40.944 107.735 40.878 107.839 40.806C107.943 40.734 108.031 40.668 108.103 40.608C108.179 40.548 108.259 40.518 108.343 40.518C108.447 40.518 108.527 40.558 108.583 40.638L108.949 41.112C108.801 41.292 108.637 41.444 108.457 41.568C108.277 41.692 108.087 41.794 107.887 41.874C107.687 41.95 107.479 42.004 107.263 42.036C107.047 42.072 106.829 42.09 106.609 42.09C106.229 42.09 105.873 42.02 105.541 41.88C105.213 41.736 104.925 41.53 104.677 41.262C104.433 40.99 104.239 40.66 104.095 40.272C103.955 39.88 103.885 39.434 103.885 38.934C103.885 38.482 103.949 38.064 104.077 37.68C104.205 37.292 104.391 36.958 104.635 36.678C104.883 36.398 105.189 36.18 105.553 36.024C105.917 35.864 106.337 35.784 106.813 35.784C107.257 35.784 107.647 35.856 107.983 36C108.323 36.144 108.625 36.348 108.889 36.612L108.547 37.08ZM114.255 38.25C114.255 38.034 114.223 37.834 114.159 37.65C114.099 37.462 114.009 37.3 113.889 37.164C113.769 37.024 113.619 36.916 113.439 36.84C113.263 36.76 113.059 36.72 112.827 36.72C112.359 36.72 111.991 36.854 111.723 37.122C111.455 37.39 111.285 37.766 111.213 38.25H114.255ZM111.177 39.042C111.193 39.39 111.247 39.692 111.339 39.948C111.431 40.2 111.553 40.41 111.705 40.578C111.861 40.746 112.045 40.872 112.257 40.956C112.473 41.036 112.713 41.076 112.977 41.076C113.229 41.076 113.447 41.048 113.631 40.992C113.815 40.932 113.975 40.868 114.111 40.8C114.247 40.728 114.363 40.664 114.459 40.608C114.555 40.548 114.643 40.518 114.723 40.518C114.827 40.518 114.907 40.558 114.963 40.638L115.329 41.112C115.177 41.292 115.005 41.444 114.813 41.568C114.621 41.692 114.417 41.794 114.201 41.874C113.985 41.95 113.763 42.004 113.535 42.036C113.307 42.072 113.085 42.09 112.869 42.09C112.445 42.09 112.051 42.02 111.687 41.88C111.327 41.736 111.013 41.526 110.745 41.25C110.481 40.974 110.273 40.632 110.121 40.224C109.973 39.816 109.899 39.346 109.899 38.814C109.899 38.39 109.965 37.994 110.097 37.626C110.233 37.258 110.425 36.938 110.673 36.666C110.925 36.394 111.229 36.18 111.585 36.024C111.945 35.864 112.351 35.784 112.803 35.784C113.179 35.784 113.527 35.846 113.847 35.97C114.167 36.09 114.443 36.268 114.675 36.504C114.907 36.74 115.087 37.03 115.215 37.374C115.347 37.714 115.413 38.102 115.413 38.538C115.413 38.738 115.391 38.872 115.347 38.94C115.303 39.008 115.223 39.042 115.107 39.042H111.177Z" fill="white"/>
<path d="M19.928 61.652V62H16.836V56.34H17.248V61.652H19.928ZM23.1709 60.076C22.7922 60.0893 22.4655 60.12 22.1909 60.168C21.9189 60.2133 21.6935 60.276 21.5149 60.356C21.3389 60.436 21.2082 60.532 21.1229 60.644C21.0375 60.7533 20.9949 60.8787 20.9949 61.02C20.9949 61.1533 21.0162 61.2693 21.0589 61.368C21.1042 61.464 21.1629 61.544 21.2349 61.608C21.3095 61.6693 21.3949 61.7147 21.4909 61.744C21.5869 61.7733 21.6869 61.788 21.7909 61.788C21.9455 61.788 22.0869 61.772 22.2149 61.74C22.3455 61.7053 22.4655 61.6587 22.5749 61.6C22.6869 61.5387 22.7909 61.4667 22.8869 61.384C22.9829 61.3013 23.0775 61.212 23.1709 61.116V60.076ZM20.8309 58.584C21.0389 58.376 21.2575 58.2187 21.4869 58.112C21.7162 58.0053 21.9762 57.952 22.2669 57.952C22.4802 57.952 22.6669 57.9867 22.8269 58.056C22.9869 58.1227 23.1189 58.22 23.2229 58.348C23.3295 58.4733 23.4095 58.6267 23.4629 58.808C23.5162 58.9867 23.5429 59.1867 23.5429 59.408V62H23.3909C23.3109 62 23.2615 61.9627 23.2429 61.888L23.1869 61.376C23.0775 61.4827 22.9682 61.5787 22.8589 61.664C22.7522 61.7493 22.6402 61.8213 22.5229 61.88C22.4055 61.9387 22.2789 61.984 22.1429 62.016C22.0069 62.048 21.8575 62.064 21.6949 62.064C21.5589 62.064 21.4269 62.044 21.2989 62.004C21.1709 61.964 21.0562 61.9027 20.9549 61.82C20.8562 61.7373 20.7762 61.632 20.7149 61.504C20.6562 61.3733 20.6269 61.2173 20.6269 61.036C20.6269 60.868 20.6749 60.712 20.7709 60.568C20.8669 60.424 21.0175 60.2987 21.2229 60.192C21.4282 60.0853 21.6909 60 22.0109 59.936C22.3335 59.872 22.7202 59.8347 23.1709 59.824V59.408C23.1709 59.04 23.0909 58.7573 22.9309 58.56C22.7735 58.36 22.5389 58.26 22.2269 58.26C22.0349 58.26 21.8709 58.2867 21.7349 58.34C21.6015 58.3933 21.4882 58.452 21.3949 58.516C21.3015 58.58 21.2255 58.6387 21.1669 58.692C21.1082 58.7453 21.0589 58.772 21.0189 58.772C20.9895 58.772 20.9655 58.7653 20.9469 58.752C20.9282 58.7387 20.9122 58.7213 20.8989 58.7L20.8309 58.584ZM25.4419 61.132C25.5965 61.3613 25.7659 61.5227 25.9499 61.616C26.1365 61.7067 26.3459 61.752 26.5779 61.752C26.8152 61.752 27.0219 61.7093 27.1979 61.624C27.3765 61.5387 27.5245 61.4173 27.6419 61.26C27.7619 61.1 27.8512 60.9067 27.9099 60.68C27.9685 60.4533 27.9979 60.1987 27.9979 59.916C27.9979 59.3667 27.8885 58.9533 27.6699 58.676C27.4512 58.3987 27.1445 58.26 26.7499 58.26C26.4672 58.26 26.2205 58.328 26.0099 58.464C25.7992 58.6 25.6099 58.7893 25.4419 59.032V61.132ZM25.4419 58.712C25.6152 58.4773 25.8179 58.2933 26.0499 58.16C26.2819 58.024 26.5512 57.956 26.8579 57.956C27.0979 57.956 27.3125 58 27.5019 58.088C27.6912 58.176 27.8512 58.3027 27.9819 58.468C28.1152 58.6333 28.2165 58.8373 28.2859 59.08C28.3552 59.32 28.3899 59.5933 28.3899 59.9C28.3899 60.2227 28.3512 60.5173 28.2739 60.784C28.1965 61.048 28.0832 61.2747 27.9339 61.464C27.7872 61.6507 27.6072 61.796 27.3939 61.9C27.1805 62.0013 26.9365 62.052 26.6619 62.052C26.3792 62.052 26.1379 61.9987 25.9379 61.892C25.7405 61.7827 25.5699 61.6213 25.4259 61.408L25.3979 61.9C25.3899 61.9667 25.3539 62 25.2899 62H25.0579V56.18H25.4419V58.712ZM32.4961 59.608C32.4961 59.3947 32.4655 59.204 32.4041 59.036C32.3455 58.8653 32.2615 58.7213 32.1521 58.604C32.0428 58.4867 31.9121 58.3973 31.7601 58.336C31.6108 58.272 31.4455 58.24 31.2641 58.24C31.0588 58.24 30.8748 58.272 30.7121 58.336C30.5495 58.4 30.4081 58.492 30.2881 58.612C30.1708 58.732 30.0761 58.876 30.0041 59.044C29.9321 59.212 29.8841 59.4 29.8601 59.608H32.4961ZM29.8401 59.852V59.928C29.8401 60.2267 29.8748 60.4893 29.9441 60.716C30.0135 60.9427 30.1121 61.1333 30.2401 61.288C30.3681 61.44 30.5228 61.5547 30.7041 61.632C30.8855 61.7093 31.0881 61.748 31.3121 61.748C31.5121 61.748 31.6855 61.7267 31.8321 61.684C31.9788 61.6387 32.1015 61.5893 32.2001 61.536C32.3015 61.48 32.3815 61.4307 32.4401 61.388C32.4988 61.3427 32.5415 61.32 32.5681 61.32C32.6028 61.32 32.6295 61.3333 32.6481 61.36L32.7521 61.488C32.6881 61.568 32.6028 61.6427 32.4961 61.712C32.3921 61.7813 32.2748 61.8413 32.1441 61.892C32.0161 61.94 31.8775 61.9787 31.7281 62.008C31.5815 62.0373 31.4335 62.052 31.2841 62.052C31.0121 62.052 30.7641 62.0053 30.5401 61.912C30.3161 61.816 30.1241 61.6773 29.9641 61.496C29.8041 61.3147 29.6801 61.0933 29.5921 60.832C29.5068 60.568 29.4641 60.2667 29.4641 59.928C29.4641 59.6427 29.5041 59.38 29.5841 59.14C29.6668 58.8973 29.7841 58.6893 29.9361 58.516C30.0908 58.34 30.2788 58.2027 30.5001 58.104C30.7241 58.0053 30.9775 57.956 31.2601 57.956C31.4841 57.956 31.6921 57.9947 31.8841 58.072C32.0761 58.1493 32.2428 58.2627 32.3841 58.412C32.5255 58.5587 32.6361 58.74 32.7161 58.956C32.7988 59.172 32.8401 59.42 32.8401 59.7C32.8401 59.7587 32.8321 59.7987 32.8161 59.82C32.8001 59.8413 32.7735 59.852 32.7361 59.852H29.8401ZM34.536 56.18V62H34.152V56.18H34.536Z" fill="white"/>
<path d="M35.984 86.348V87H32.732V81.268H33.504V86.348H35.984ZM39.1094 85.176C38.7814 85.1867 38.5014 85.2133 38.2694 85.256C38.04 85.296 37.852 85.3493 37.7054 85.416C37.5614 85.4827 37.456 85.5613 37.3894 85.652C37.3254 85.7427 37.2934 85.844 37.2934 85.956C37.2934 86.0627 37.3107 86.1547 37.3454 86.232C37.38 86.3093 37.4267 86.3733 37.4854 86.424C37.5467 86.472 37.6174 86.508 37.6974 86.532C37.78 86.5533 37.868 86.564 37.9614 86.564C38.0867 86.564 38.2014 86.552 38.3054 86.528C38.4094 86.5013 38.5067 86.464 38.5974 86.416C38.6907 86.368 38.7787 86.3107 38.8614 86.244C38.9467 86.1773 39.0294 86.1013 39.1094 86.016V85.176ZM36.8094 83.52C37.0334 83.304 37.2747 83.1427 37.5334 83.036C37.792 82.9293 38.0787 82.876 38.3934 82.876C38.62 82.876 38.8214 82.9133 38.9974 82.988C39.1734 83.0627 39.3214 83.1667 39.4414 83.3C39.5614 83.4333 39.652 83.5947 39.7134 83.784C39.7747 83.9733 39.8054 84.1813 39.8054 84.408V87H39.4894C39.42 87 39.3667 86.9893 39.3294 86.968C39.292 86.944 39.2627 86.8987 39.2414 86.832L39.1614 86.448C39.0547 86.5467 38.9507 86.6347 38.8494 86.712C38.748 86.7867 38.6414 86.8507 38.5294 86.904C38.4174 86.9547 38.2974 86.9933 38.1694 87.02C38.044 87.0493 37.904 87.064 37.7494 87.064C37.592 87.064 37.444 87.0427 37.3054 87C37.1667 86.9547 37.0454 86.888 36.9414 86.8C36.84 86.712 36.7587 86.6013 36.6974 86.468C36.6387 86.332 36.6094 86.172 36.6094 85.988C36.6094 85.828 36.6534 85.6747 36.7414 85.528C36.8294 85.3787 36.972 85.2467 37.1694 85.132C37.3667 85.0173 37.624 84.924 37.9414 84.852C38.2587 84.7773 38.648 84.7347 39.1094 84.724V84.408C39.1094 84.0933 39.0414 83.856 38.9054 83.696C38.7694 83.5333 38.5707 83.452 38.3094 83.452C38.1334 83.452 37.9854 83.4747 37.8654 83.52C37.748 83.5627 37.6454 83.612 37.5574 83.668C37.472 83.7213 37.3974 83.7707 37.3334 83.816C37.272 83.8587 37.2107 83.88 37.1494 83.88C37.1014 83.88 37.06 83.868 37.0254 83.844C36.9907 83.8173 36.9614 83.7853 36.9374 83.748L36.8094 83.52ZM41.8459 86.024C41.9766 86.2 42.1193 86.324 42.2739 86.396C42.4313 86.468 42.6033 86.504 42.7899 86.504C43.1713 86.504 43.4633 86.3693 43.6659 86.1C43.8686 85.8307 43.9699 85.4293 43.9699 84.896C43.9699 84.4 43.8793 84.036 43.6979 83.804C43.5193 83.5693 43.2633 83.452 42.9299 83.452C42.6979 83.452 42.4953 83.5053 42.3219 83.612C42.1513 83.7187 41.9926 83.8693 41.8459 84.064V86.024ZM41.8459 83.532C42.0166 83.3347 42.2086 83.1773 42.4219 83.06C42.6379 82.9427 42.8859 82.884 43.1659 82.884C43.4033 82.884 43.6166 82.9293 43.8059 83.02C43.9979 83.1107 44.1606 83.2427 44.2939 83.416C44.4273 83.5867 44.5286 83.7947 44.5979 84.04C44.6699 84.2853 44.7059 84.5613 44.7059 84.868C44.7059 85.196 44.6659 85.4947 44.5859 85.764C44.5059 86.0333 44.3899 86.264 44.2379 86.456C44.0886 86.6453 43.9059 86.7933 43.6899 86.9C43.4739 87.004 43.2313 87.056 42.9619 87.056C42.6953 87.056 42.4699 87.0067 42.2859 86.908C42.1046 86.8067 41.9459 86.664 41.8099 86.48L41.7739 86.848C41.7526 86.9493 41.6913 87 41.5899 87H41.1299V81.108H41.8459V83.532ZM48.5585 84.532C48.5585 84.3667 48.5345 84.216 48.4865 84.08C48.4412 83.9413 48.3732 83.8227 48.2825 83.724C48.1945 83.6227 48.0865 83.5453 47.9585 83.492C47.8305 83.436 47.6852 83.408 47.5225 83.408C47.1812 83.408 46.9105 83.508 46.7105 83.708C46.5132 83.9053 46.3905 84.18 46.3425 84.532H48.5585ZM49.1345 86.432C49.0465 86.5387 48.9412 86.632 48.8185 86.712C48.6958 86.7893 48.5638 86.8533 48.4225 86.904C48.2838 86.9547 48.1398 86.992 47.9905 87.016C47.8412 87.0427 47.6932 87.056 47.5465 87.056C47.2665 87.056 47.0078 87.0093 46.7705 86.916C46.5358 86.82 46.3318 86.6813 46.1585 86.5C45.9878 86.316 45.8545 86.0893 45.7585 85.82C45.6625 85.5507 45.6145 85.2413 45.6145 84.892C45.6145 84.6093 45.6572 84.3453 45.7425 84.1C45.8305 83.8547 45.9558 83.6427 46.1185 83.464C46.2812 83.2827 46.4798 83.1413 46.7145 83.04C46.9492 82.936 47.2132 82.884 47.5065 82.884C47.7492 82.884 47.9732 82.9253 48.1785 83.008C48.3865 83.088 48.5652 83.2053 48.7145 83.36C48.8665 83.512 48.9852 83.7013 49.0705 83.928C49.1558 84.152 49.1985 84.408 49.1985 84.696C49.1985 84.808 49.1865 84.8827 49.1625 84.92C49.1385 84.9573 49.0932 84.976 49.0265 84.976H46.3185C46.3265 85.232 46.3612 85.4547 46.4225 85.644C46.4865 85.8333 46.5745 85.992 46.6865 86.12C46.7985 86.2453 46.9318 86.34 47.0865 86.404C47.2412 86.4653 47.4145 86.496 47.6065 86.496C47.7852 86.496 47.9385 86.476 48.0665 86.436C48.1972 86.3933 48.3092 86.348 48.4025 86.3C48.4958 86.252 48.5732 86.208 48.6345 86.168C48.6985 86.1253 48.7532 86.104 48.7985 86.104C48.8572 86.104 48.9025 86.1267 48.9345 86.172L49.1345 86.432ZM51.0491 81.108V87H50.3371V81.108H51.0491ZM58.2386 86.456V87H55.1666V86.456H56.3946V82.548C56.3946 82.4307 56.3986 82.312 56.4066 82.192L55.3866 83.068C55.3519 83.0973 55.3172 83.116 55.2826 83.124C55.2479 83.1293 55.2159 83.1293 55.1866 83.124C55.1572 83.1187 55.1292 83.108 55.1026 83.092C55.0786 83.076 55.0599 83.0587 55.0466 83.04L54.8226 82.732L56.5306 81.256H57.1106V86.456H58.2386Z" fill="white"/>
<path d="M35.984 111.348V112H32.732V106.268H33.504V111.348H35.984ZM39.1094 110.176C38.7814 110.187 38.5014 110.213 38.2694 110.256C38.04 110.296 37.852 110.349 37.7054 110.416C37.5614 110.483 37.456 110.561 37.3894 110.652C37.3254 110.743 37.2934 110.844 37.2934 110.956C37.2934 111.063 37.3107 111.155 37.3454 111.232C37.38 111.309 37.4267 111.373 37.4854 111.424C37.5467 111.472 37.6174 111.508 37.6974 111.532C37.78 111.553 37.868 111.564 37.9614 111.564C38.0867 111.564 38.2014 111.552 38.3054 111.528C38.4094 111.501 38.5067 111.464 38.5974 111.416C38.6907 111.368 38.7787 111.311 38.8614 111.244C38.9467 111.177 39.0294 111.101 39.1094 111.016V110.176ZM36.8094 108.52C37.0334 108.304 37.2747 108.143 37.5334 108.036C37.792 107.929 38.0787 107.876 38.3934 107.876C38.62 107.876 38.8214 107.913 38.9974 107.988C39.1734 108.063 39.3214 108.167 39.4414 108.3C39.5614 108.433 39.652 108.595 39.7134 108.784C39.7747 108.973 39.8054 109.181 39.8054 109.408V112H39.4894C39.42 112 39.3667 111.989 39.3294 111.968C39.292 111.944 39.2627 111.899 39.2414 111.832L39.1614 111.448C39.0547 111.547 38.9507 111.635 38.8494 111.712C38.748 111.787 38.6414 111.851 38.5294 111.904C38.4174 111.955 38.2974 111.993 38.1694 112.02C38.044 112.049 37.904 112.064 37.7494 112.064C37.592 112.064 37.444 112.043 37.3054 112C37.1667 111.955 37.0454 111.888 36.9414 111.8C36.84 111.712 36.7587 111.601 36.6974 111.468C36.6387 111.332 36.6094 111.172 36.6094 110.988C36.6094 110.828 36.6534 110.675 36.7414 110.528C36.8294 110.379 36.972 110.247 37.1694 110.132C37.3667 110.017 37.624 109.924 37.9414 109.852C38.2587 109.777 38.648 109.735 39.1094 109.724V109.408C39.1094 109.093 39.0414 108.856 38.9054 108.696C38.7694 108.533 38.5707 108.452 38.3094 108.452C38.1334 108.452 37.9854 108.475 37.8654 108.52C37.748 108.563 37.6454 108.612 37.5574 108.668C37.472 108.721 37.3974 108.771 37.3334 108.816C37.272 108.859 37.2107 108.88 37.1494 108.88C37.1014 108.88 37.06 108.868 37.0254 108.844C36.9907 108.817 36.9614 108.785 36.9374 108.748L36.8094 108.52ZM41.8459 111.024C41.9766 111.2 42.1193 111.324 42.2739 111.396C42.4313 111.468 42.6033 111.504 42.7899 111.504C43.1713 111.504 43.4633 111.369 43.6659 111.1C43.8686 110.831 43.9699 110.429 43.9699 109.896C43.9699 109.4 43.8793 109.036 43.6979 108.804C43.5193 108.569 43.2633 108.452 42.9299 108.452C42.6979 108.452 42.4953 108.505 42.3219 108.612C42.1513 108.719 41.9926 108.869 41.8459 109.064V111.024ZM41.8459 108.532C42.0166 108.335 42.2086 108.177 42.4219 108.06C42.6379 107.943 42.8859 107.884 43.1659 107.884C43.4033 107.884 43.6166 107.929 43.8059 108.02C43.9979 108.111 44.1606 108.243 44.2939 108.416C44.4273 108.587 44.5286 108.795 44.5979 109.04C44.6699 109.285 44.7059 109.561 44.7059 109.868C44.7059 110.196 44.6659 110.495 44.5859 110.764C44.5059 111.033 44.3899 111.264 44.2379 111.456C44.0886 111.645 43.9059 111.793 43.6899 111.9C43.4739 112.004 43.2313 112.056 42.9619 112.056C42.6953 112.056 42.4699 112.007 42.2859 111.908C42.1046 111.807 41.9459 111.664 41.8099 111.48L41.7739 111.848C41.7526 111.949 41.6913 112 41.5899 112H41.1299V106.108H41.8459V108.532ZM48.5585 109.532C48.5585 109.367 48.5345 109.216 48.4865 109.08C48.4412 108.941 48.3732 108.823 48.2825 108.724C48.1945 108.623 48.0865 108.545 47.9585 108.492C47.8305 108.436 47.6852 108.408 47.5225 108.408C47.1812 108.408 46.9105 108.508 46.7105 108.708C46.5132 108.905 46.3905 109.18 46.3425 109.532H48.5585ZM49.1345 111.432C49.0465 111.539 48.9412 111.632 48.8185 111.712C48.6958 111.789 48.5638 111.853 48.4225 111.904C48.2838 111.955 48.1398 111.992 47.9905 112.016C47.8412 112.043 47.6932 112.056 47.5465 112.056C47.2665 112.056 47.0078 112.009 46.7705 111.916C46.5358 111.82 46.3318 111.681 46.1585 111.5C45.9878 111.316 45.8545 111.089 45.7585 110.82C45.6625 110.551 45.6145 110.241 45.6145 109.892C45.6145 109.609 45.6572 109.345 45.7425 109.1C45.8305 108.855 45.9558 108.643 46.1185 108.464C46.2812 108.283 46.4798 108.141 46.7145 108.04C46.9492 107.936 47.2132 107.884 47.5065 107.884C47.7492 107.884 47.9732 107.925 48.1785 108.008C48.3865 108.088 48.5652 108.205 48.7145 108.36C48.8665 108.512 48.9852 108.701 49.0705 108.928C49.1558 109.152 49.1985 109.408 49.1985 109.696C49.1985 109.808 49.1865 109.883 49.1625 109.92C49.1385 109.957 49.0932 109.976 49.0265 109.976H46.3185C46.3265 110.232 46.3612 110.455 46.4225 110.644C46.4865 110.833 46.5745 110.992 46.6865 111.12C46.7985 111.245 46.9318 111.34 47.0865 111.404C47.2412 111.465 47.4145 111.496 47.6065 111.496C47.7852 111.496 47.9385 111.476 48.0665 111.436C48.1972 111.393 48.3092 111.348 48.4025 111.3C48.4958 111.252 48.5732 111.208 48.6345 111.168C48.6985 111.125 48.7532 111.104 48.7985 111.104C48.8572 111.104 48.9025 111.127 48.9345 111.172L49.1345 111.432ZM51.0491 106.108V112H50.3371V106.108H51.0491ZM58.1146 111.324C58.1919 111.324 58.2532 111.347 58.2986 111.392C58.3439 111.437 58.3666 111.496 58.3666 111.568V112H54.5426V111.756C54.5426 111.705 54.5532 111.653 54.5746 111.6C54.5959 111.547 54.6292 111.497 54.6746 111.452L56.5106 109.608C56.6626 109.453 56.8012 109.305 56.9266 109.164C57.0519 109.02 57.1586 108.876 57.2466 108.732C57.3346 108.588 57.4026 108.443 57.4506 108.296C57.4986 108.147 57.5226 107.988 57.5226 107.82C57.5226 107.652 57.4959 107.505 57.4426 107.38C57.3892 107.252 57.3159 107.147 57.2226 107.064C57.1319 106.981 57.0239 106.92 56.8986 106.88C56.7732 106.837 56.6386 106.816 56.4946 106.816C56.3479 106.816 56.2132 106.837 56.0906 106.88C55.9679 106.923 55.8586 106.983 55.7626 107.06C55.6692 107.135 55.5906 107.224 55.5266 107.328C55.4626 107.432 55.4172 107.547 55.3906 107.672C55.3586 107.765 55.3146 107.828 55.2586 107.86C55.2052 107.889 55.1292 107.897 55.0306 107.884L54.6586 107.82C54.6959 107.559 54.7679 107.328 54.8746 107.128C54.9839 106.925 55.1199 106.756 55.2826 106.62C55.4479 106.484 55.6359 106.381 55.8466 106.312C56.0572 106.24 56.2852 106.204 56.5306 106.204C56.7732 106.204 56.9999 106.24 57.2106 106.312C57.4212 106.384 57.6039 106.489 57.7586 106.628C57.9132 106.764 58.0346 106.931 58.1226 107.128C58.2106 107.325 58.2546 107.549 58.2546 107.8C58.2546 108.013 58.2226 108.212 58.1586 108.396C58.0946 108.577 58.0079 108.751 57.8986 108.916C57.7892 109.081 57.6626 109.243 57.5186 109.4C57.3772 109.557 57.2266 109.716 57.0666 109.876L55.5546 111.42C55.6612 111.391 55.7692 111.368 55.8786 111.352C55.9879 111.333 56.0932 111.324 56.1946 111.324H58.1146Z" fill="white"/>
<path d="M35.984 138.348V139H32.732V133.268H33.504V138.348H35.984ZM39.1094 137.176C38.7814 137.187 38.5014 137.213 38.2694 137.256C38.04 137.296 37.852 137.349 37.7054 137.416C37.5614 137.483 37.456 137.561 37.3894 137.652C37.3254 137.743 37.2934 137.844 37.2934 137.956C37.2934 138.063 37.3107 138.155 37.3454 138.232C37.38 138.309 37.4267 138.373 37.4854 138.424C37.5467 138.472 37.6174 138.508 37.6974 138.532C37.78 138.553 37.868 138.564 37.9614 138.564C38.0867 138.564 38.2014 138.552 38.3054 138.528C38.4094 138.501 38.5067 138.464 38.5974 138.416C38.6907 138.368 38.7787 138.311 38.8614 138.244C38.9467 138.177 39.0294 138.101 39.1094 138.016V137.176ZM36.8094 135.52C37.0334 135.304 37.2747 135.143 37.5334 135.036C37.792 134.929 38.0787 134.876 38.3934 134.876C38.62 134.876 38.8214 134.913 38.9974 134.988C39.1734 135.063 39.3214 135.167 39.4414 135.3C39.5614 135.433 39.652 135.595 39.7134 135.784C39.7747 135.973 39.8054 136.181 39.8054 136.408V139H39.4894C39.42 139 39.3667 138.989 39.3294 138.968C39.292 138.944 39.2627 138.899 39.2414 138.832L39.1614 138.448C39.0547 138.547 38.9507 138.635 38.8494 138.712C38.748 138.787 38.6414 138.851 38.5294 138.904C38.4174 138.955 38.2974 138.993 38.1694 139.02C38.044 139.049 37.904 139.064 37.7494 139.064C37.592 139.064 37.444 139.043 37.3054 139C37.1667 138.955 37.0454 138.888 36.9414 138.8C36.84 138.712 36.7587 138.601 36.6974 138.468C36.6387 138.332 36.6094 138.172 36.6094 137.988C36.6094 137.828 36.6534 137.675 36.7414 137.528C36.8294 137.379 36.972 137.247 37.1694 137.132C37.3667 137.017 37.624 136.924 37.9414 136.852C38.2587 136.777 38.648 136.735 39.1094 136.724V136.408C39.1094 136.093 39.0414 135.856 38.9054 135.696C38.7694 135.533 38.5707 135.452 38.3094 135.452C38.1334 135.452 37.9854 135.475 37.8654 135.52C37.748 135.563 37.6454 135.612 37.5574 135.668C37.472 135.721 37.3974 135.771 37.3334 135.816C37.272 135.859 37.2107 135.88 37.1494 135.88C37.1014 135.88 37.06 135.868 37.0254 135.844C36.9907 135.817 36.9614 135.785 36.9374 135.748L36.8094 135.52ZM41.8459 138.024C41.9766 138.2 42.1193 138.324 42.2739 138.396C42.4313 138.468 42.6033 138.504 42.7899 138.504C43.1713 138.504 43.4633 138.369 43.6659 138.1C43.8686 137.831 43.9699 137.429 43.9699 136.896C43.9699 136.4 43.8793 136.036 43.6979 135.804C43.5193 135.569 43.2633 135.452 42.9299 135.452C42.6979 135.452 42.4953 135.505 42.3219 135.612C42.1513 135.719 41.9926 135.869 41.8459 136.064V138.024ZM41.8459 135.532C42.0166 135.335 42.2086 135.177 42.4219 135.06C42.6379 134.943 42.8859 134.884 43.1659 134.884C43.4033 134.884 43.6166 134.929 43.8059 135.02C43.9979 135.111 44.1606 135.243 44.2939 135.416C44.4273 135.587 44.5286 135.795 44.5979 136.04C44.6699 136.285 44.7059 136.561 44.7059 136.868C44.7059 137.196 44.6659 137.495 44.5859 137.764C44.5059 138.033 44.3899 138.264 44.2379 138.456C44.0886 138.645 43.9059 138.793 43.6899 138.9C43.4739 139.004 43.2313 139.056 42.9619 139.056C42.6953 139.056 42.4699 139.007 42.2859 138.908C42.1046 138.807 41.9459 138.664 41.8099 138.48L41.7739 138.848C41.7526 138.949 41.6913 139 41.5899 139H41.1299V133.108H41.8459V135.532ZM48.5585 136.532C48.5585 136.367 48.5345 136.216 48.4865 136.08C48.4412 135.941 48.3732 135.823 48.2825 135.724C48.1945 135.623 48.0865 135.545 47.9585 135.492C47.8305 135.436 47.6852 135.408 47.5225 135.408C47.1812 135.408 46.9105 135.508 46.7105 135.708C46.5132 135.905 46.3905 136.18 46.3425 136.532H48.5585ZM49.1345 138.432C49.0465 138.539 48.9412 138.632 48.8185 138.712C48.6958 138.789 48.5638 138.853 48.4225 138.904C48.2838 138.955 48.1398 138.992 47.9905 139.016C47.8412 139.043 47.6932 139.056 47.5465 139.056C47.2665 139.056 47.0078 139.009 46.7705 138.916C46.5358 138.82 46.3318 138.681 46.1585 138.5C45.9878 138.316 45.8545 138.089 45.7585 137.82C45.6625 137.551 45.6145 137.241 45.6145 136.892C45.6145 136.609 45.6572 136.345 45.7425 136.1C45.8305 135.855 45.9558 135.643 46.1185 135.464C46.2812 135.283 46.4798 135.141 46.7145 135.04C46.9492 134.936 47.2132 134.884 47.5065 134.884C47.7492 134.884 47.9732 134.925 48.1785 135.008C48.3865 135.088 48.5652 135.205 48.7145 135.36C48.8665 135.512 48.9852 135.701 49.0705 135.928C49.1558 136.152 49.1985 136.408 49.1985 136.696C49.1985 136.808 49.1865 136.883 49.1625 136.92C49.1385 136.957 49.0932 136.976 49.0265 136.976H46.3185C46.3265 137.232 46.3612 137.455 46.4225 137.644C46.4865 137.833 46.5745 137.992 46.6865 138.12C46.7985 138.245 46.9318 138.34 47.0865 138.404C47.2412 138.465 47.4145 138.496 47.6065 138.496C47.7852 138.496 47.9385 138.476 48.0665 138.436C48.1972 138.393 48.3092 138.348 48.4025 138.3C48.4958 138.252 48.5732 138.208 48.6345 138.168C48.6985 138.125 48.7532 138.104 48.7985 138.104C48.8572 138.104 48.9025 138.127 48.9345 138.172L49.1345 138.432ZM51.0491 133.108V139H50.3371V133.108H51.0491ZM54.6866 134.82C54.7239 134.559 54.7959 134.328 54.9026 134.128C55.0092 133.925 55.1439 133.756 55.3066 133.62C55.4719 133.484 55.6599 133.381 55.8706 133.312C56.0839 133.24 56.3132 133.204 56.5586 133.204C56.8012 133.204 57.0252 133.239 57.2306 133.308C57.4359 133.377 57.6119 133.476 57.7586 133.604C57.9079 133.732 58.0239 133.887 58.1066 134.068C58.1892 134.249 58.2306 134.451 58.2306 134.672C58.2306 134.853 58.2066 135.016 58.1586 135.16C58.1132 135.301 58.0466 135.425 57.9586 135.532C57.8732 135.639 57.7692 135.729 57.6466 135.804C57.5239 135.879 57.3866 135.94 57.2346 135.988C57.6079 136.084 57.8879 136.249 58.0746 136.484C58.2639 136.716 58.3586 137.007 58.3586 137.356C58.3586 137.62 58.3079 137.857 58.2066 138.068C58.1079 138.279 57.9719 138.459 57.7986 138.608C57.6252 138.755 57.4226 138.868 57.1906 138.948C56.9612 139.025 56.7146 139.064 56.4506 139.064C56.1466 139.064 55.8866 139.027 55.6706 138.952C55.4546 138.875 55.2719 138.769 55.1226 138.636C54.9732 138.503 54.8506 138.345 54.7546 138.164C54.6586 137.98 54.5772 137.781 54.5106 137.568L54.8186 137.44C54.8986 137.405 54.9759 137.396 55.0506 137.412C55.1279 137.428 55.1839 137.472 55.2186 137.544C55.2532 137.619 55.2959 137.708 55.3466 137.812C55.3999 137.916 55.4719 138.016 55.5626 138.112C55.6532 138.208 55.7679 138.289 55.9066 138.356C56.0479 138.423 56.2266 138.456 56.4426 138.456C56.6426 138.456 56.8172 138.424 56.9666 138.36C57.1186 138.293 57.2439 138.208 57.3426 138.104C57.4439 138 57.5199 137.884 57.5706 137.756C57.6212 137.628 57.6466 137.501 57.6466 137.376C57.6466 137.221 57.6266 137.08 57.5866 136.952C57.5466 136.824 57.4719 136.713 57.3626 136.62C57.2532 136.527 57.1026 136.453 56.9106 136.4C56.7212 136.347 56.4772 136.32 56.1786 136.32V135.804C56.4239 135.801 56.6319 135.775 56.8026 135.724C56.9759 135.673 57.1159 135.604 57.2226 135.516C57.3319 135.428 57.4106 135.323 57.4586 135.2C57.5092 135.077 57.5346 134.941 57.5346 134.792C57.5346 134.627 57.5079 134.483 57.4546 134.36C57.4039 134.237 57.3332 134.136 57.2426 134.056C57.1519 133.976 57.0439 133.916 56.9186 133.876C56.7959 133.836 56.6626 133.816 56.5186 133.816C56.3746 133.816 56.2399 133.837 56.1146 133.88C55.9919 133.923 55.8826 133.983 55.7866 134.06C55.6932 134.135 55.6146 134.224 55.5506 134.328C55.4866 134.432 55.4412 134.547 55.4146 134.672C55.3799 134.765 55.3359 134.828 55.2826 134.86C55.2319 134.889 55.1572 134.897 55.0586 134.884L54.6866 134.82Z" fill="white"/>
<path d="M35.984 164.348V165H32.732V159.268H33.504V164.348H35.984ZM39.1094 163.176C38.7814 163.187 38.5014 163.213 38.2694 163.256C38.04 163.296 37.852 163.349 37.7054 163.416C37.5614 163.483 37.456 163.561 37.3894 163.652C37.3254 163.743 37.2934 163.844 37.2934 163.956C37.2934 164.063 37.3107 164.155 37.3454 164.232C37.38 164.309 37.4267 164.373 37.4854 164.424C37.5467 164.472 37.6174 164.508 37.6974 164.532C37.78 164.553 37.868 164.564 37.9614 164.564C38.0867 164.564 38.2014 164.552 38.3054 164.528C38.4094 164.501 38.5067 164.464 38.5974 164.416C38.6907 164.368 38.7787 164.311 38.8614 164.244C38.9467 164.177 39.0294 164.101 39.1094 164.016V163.176ZM36.8094 161.52C37.0334 161.304 37.2747 161.143 37.5334 161.036C37.792 160.929 38.0787 160.876 38.3934 160.876C38.62 160.876 38.8214 160.913 38.9974 160.988C39.1734 161.063 39.3214 161.167 39.4414 161.3C39.5614 161.433 39.652 161.595 39.7134 161.784C39.7747 161.973 39.8054 162.181 39.8054 162.408V165H39.4894C39.42 165 39.3667 164.989 39.3294 164.968C39.292 164.944 39.2627 164.899 39.2414 164.832L39.1614 164.448C39.0547 164.547 38.9507 164.635 38.8494 164.712C38.748 164.787 38.6414 164.851 38.5294 164.904C38.4174 164.955 38.2974 164.993 38.1694 165.02C38.044 165.049 37.904 165.064 37.7494 165.064C37.592 165.064 37.444 165.043 37.3054 165C37.1667 164.955 37.0454 164.888 36.9414 164.8C36.84 164.712 36.7587 164.601 36.6974 164.468C36.6387 164.332 36.6094 164.172 36.6094 163.988C36.6094 163.828 36.6534 163.675 36.7414 163.528C36.8294 163.379 36.972 163.247 37.1694 163.132C37.3667 163.017 37.624 162.924 37.9414 162.852C38.2587 162.777 38.648 162.735 39.1094 162.724V162.408C39.1094 162.093 39.0414 161.856 38.9054 161.696C38.7694 161.533 38.5707 161.452 38.3094 161.452C38.1334 161.452 37.9854 161.475 37.8654 161.52C37.748 161.563 37.6454 161.612 37.5574 161.668C37.472 161.721 37.3974 161.771 37.3334 161.816C37.272 161.859 37.2107 161.88 37.1494 161.88C37.1014 161.88 37.06 161.868 37.0254 161.844C36.9907 161.817 36.9614 161.785 36.9374 161.748L36.8094 161.52ZM41.8459 164.024C41.9766 164.2 42.1193 164.324 42.2739 164.396C42.4313 164.468 42.6033 164.504 42.7899 164.504C43.1713 164.504 43.4633 164.369 43.6659 164.1C43.8686 163.831 43.9699 163.429 43.9699 162.896C43.9699 162.4 43.8793 162.036 43.6979 161.804C43.5193 161.569 43.2633 161.452 42.9299 161.452C42.6979 161.452 42.4953 161.505 42.3219 161.612C42.1513 161.719 41.9926 161.869 41.8459 162.064V164.024ZM41.8459 161.532C42.0166 161.335 42.2086 161.177 42.4219 161.06C42.6379 160.943 42.8859 160.884 43.1659 160.884C43.4033 160.884 43.6166 160.929 43.8059 161.02C43.9979 161.111 44.1606 161.243 44.2939 161.416C44.4273 161.587 44.5286 161.795 44.5979 162.04C44.6699 162.285 44.7059 162.561 44.7059 162.868C44.7059 163.196 44.6659 163.495 44.5859 163.764C44.5059 164.033 44.3899 164.264 44.2379 164.456C44.0886 164.645 43.9059 164.793 43.6899 164.9C43.4739 165.004 43.2313 165.056 42.9619 165.056C42.6953 165.056 42.4699 165.007 42.2859 164.908C42.1046 164.807 41.9459 164.664 41.8099 164.48L41.7739 164.848C41.7526 164.949 41.6913 165 41.5899 165H41.1299V159.108H41.8459V161.532ZM48.5585 162.532C48.5585 162.367 48.5345 162.216 48.4865 162.08C48.4412 161.941 48.3732 161.823 48.2825 161.724C48.1945 161.623 48.0865 161.545 47.9585 161.492C47.8305 161.436 47.6852 161.408 47.5225 161.408C47.1812 161.408 46.9105 161.508 46.7105 161.708C46.5132 161.905 46.3905 162.18 46.3425 162.532H48.5585ZM49.1345 164.432C49.0465 164.539 48.9412 164.632 48.8185 164.712C48.6958 164.789 48.5638 164.853 48.4225 164.904C48.2838 164.955 48.1398 164.992 47.9905 165.016C47.8412 165.043 47.6932 165.056 47.5465 165.056C47.2665 165.056 47.0078 165.009 46.7705 164.916C46.5358 164.82 46.3318 164.681 46.1585 164.5C45.9878 164.316 45.8545 164.089 45.7585 163.82C45.6625 163.551 45.6145 163.241 45.6145 162.892C45.6145 162.609 45.6572 162.345 45.7425 162.1C45.8305 161.855 45.9558 161.643 46.1185 161.464C46.2812 161.283 46.4798 161.141 46.7145 161.04C46.9492 160.936 47.2132 160.884 47.5065 160.884C47.7492 160.884 47.9732 160.925 48.1785 161.008C48.3865 161.088 48.5652 161.205 48.7145 161.36C48.8665 161.512 48.9852 161.701 49.0705 161.928C49.1558 162.152 49.1985 162.408 49.1985 162.696C49.1985 162.808 49.1865 162.883 49.1625 162.92C49.1385 162.957 49.0932 162.976 49.0265 162.976H46.3185C46.3265 163.232 46.3612 163.455 46.4225 163.644C46.4865 163.833 46.5745 163.992 46.6865 164.12C46.7985 164.245 46.9318 164.34 47.0865 164.404C47.2412 164.465 47.4145 164.496 47.6065 164.496C47.7852 164.496 47.9385 164.476 48.0665 164.436C48.1972 164.393 48.3092 164.348 48.4025 164.3C48.4958 164.252 48.5732 164.208 48.6345 164.168C48.6985 164.125 48.7532 164.104 48.7985 164.104C48.8572 164.104 48.9025 164.127 48.9345 164.172L49.1345 164.432ZM51.0491 159.108V165H50.3371V159.108H51.0491ZM57.0866 162.932V160.568C57.0866 160.499 57.0892 160.423 57.0946 160.34C57.0999 160.257 57.1079 160.173 57.1186 160.088L55.0306 162.932H57.0866ZM58.5786 162.932V163.34C58.5786 163.383 58.5652 163.419 58.5386 163.448C58.5146 163.477 58.4759 163.492 58.4226 163.492H57.7106V165H57.0866V163.492H54.5426C54.4892 163.492 54.4426 163.477 54.4026 163.448C54.3652 163.416 54.3412 163.377 54.3306 163.332L54.2586 162.968L57.0466 159.268H57.7106V162.932H58.5786Z" fill="white"/>
<path d="M81.312 86.472C81.504 86.472 81.6773 86.4413 81.832 86.38C81.9893 86.3187 82.1227 86.2333 82.232 86.124C82.344 86.0147 82.4293 85.8853 82.488 85.736C82.5493 85.5867 82.58 85.424 82.58 85.248C82.58 85.0613 82.5507 84.8933 82.492 84.744C82.4333 84.592 82.3493 84.464 82.24 84.36C82.1333 84.2533 82.0053 84.172 81.856 84.116C81.7067 84.06 81.5427 84.032 81.364 84.032C81.172 84.032 80.9987 84.0653 80.844 84.132C80.6893 84.196 80.5573 84.284 80.448 84.396C80.3413 84.5053 80.2587 84.6333 80.2 84.78C80.144 84.924 80.116 85.0747 80.116 85.232C80.116 85.416 80.1427 85.584 80.196 85.736C80.2493 85.888 80.3267 86.0187 80.428 86.128C80.532 86.2373 80.6573 86.3227 80.804 86.384C80.9533 86.4427 81.1227 86.472 81.312 86.472ZM80.896 83.416C80.8453 83.48 80.796 83.5427 80.748 83.604C80.7027 83.6627 80.6587 83.7213 80.616 83.78C80.752 83.6867 80.9013 83.6147 81.064 83.564C81.2267 83.5133 81.404 83.488 81.596 83.488C81.828 83.488 82.0467 83.5267 82.252 83.604C82.4573 83.6787 82.636 83.7893 82.788 83.936C82.9427 84.08 83.0653 84.2587 83.156 84.472C83.2467 84.6827 83.292 84.924 83.292 85.196C83.292 85.46 83.244 85.7053 83.148 85.932C83.052 86.1587 82.9173 86.356 82.744 86.524C82.5733 86.692 82.3667 86.824 82.124 86.92C81.884 87.016 81.6187 87.064 81.328 87.064C81.04 87.064 80.7787 87.0187 80.544 86.928C80.3093 86.8347 80.1093 86.704 79.944 86.536C79.7813 86.3653 79.6547 86.16 79.564 85.92C79.476 85.6773 79.432 85.4067 79.432 85.108C79.432 84.8573 79.4867 84.5907 79.596 84.308C79.708 84.0227 79.8853 83.7187 80.128 83.396L81.584 81.44C81.6213 81.392 81.672 81.352 81.736 81.32C81.8027 81.2853 81.8787 81.268 81.964 81.268H82.596L80.896 83.416ZM84.3246 86.56C84.3246 86.4907 84.3366 86.4253 84.3606 86.364C84.3873 86.3027 84.422 86.2493 84.4646 86.204C84.51 86.1587 84.5633 86.1227 84.6246 86.096C84.686 86.0693 84.7513 86.056 84.8206 86.056C84.89 86.056 84.9553 86.0693 85.0166 86.096C85.078 86.1227 85.1313 86.1587 85.1766 86.204C85.222 86.2493 85.258 86.3027 85.2846 86.364C85.3113 86.4253 85.3246 86.4907 85.3246 86.56C85.3246 86.632 85.3113 86.6987 85.2846 86.76C85.258 86.8187 85.222 86.8707 85.1766 86.916C85.1313 86.9613 85.078 86.996 85.0166 87.02C84.9553 87.0467 84.89 87.06 84.8206 87.06C84.7513 87.06 84.686 87.0467 84.6246 87.02C84.5633 86.996 84.51 86.9613 84.4646 86.916C84.422 86.8707 84.3873 86.8187 84.3606 86.76C84.3366 86.6987 84.3246 86.632 84.3246 86.56ZM88.3313 86.496C88.5179 86.496 88.6846 86.4707 88.8313 86.42C88.9806 86.3667 89.1059 86.2933 89.2073 86.2C89.3113 86.104 89.3899 85.9907 89.4433 85.86C89.4993 85.7267 89.5273 85.58 89.5273 85.42C89.5273 85.2227 89.4939 85.0547 89.4273 84.916C89.3633 84.7747 89.2753 84.66 89.1633 84.572C89.0539 84.484 88.9273 84.42 88.7833 84.38C88.6393 84.3373 88.4886 84.316 88.3313 84.316C88.1739 84.316 88.0233 84.3373 87.8793 84.38C87.7353 84.42 87.6073 84.484 87.4953 84.572C87.3859 84.66 87.2979 84.7747 87.2313 84.916C87.1673 85.0547 87.1353 85.2227 87.1353 85.42C87.1353 85.58 87.1619 85.7267 87.2153 85.86C87.2713 85.9907 87.3499 86.104 87.4513 86.2C87.5553 86.2933 87.6806 86.3667 87.8273 86.42C87.9766 86.4707 88.1446 86.496 88.3313 86.496ZM88.3313 81.756C88.1606 81.756 88.0099 81.7813 87.8793 81.832C87.7513 81.8827 87.6433 81.952 87.5553 82.04C87.4699 82.128 87.4046 82.2307 87.3593 82.348C87.3166 82.4653 87.2953 82.5907 87.2953 82.724C87.2953 82.8547 87.3139 82.9813 87.3513 83.104C87.3886 83.2267 87.4486 83.336 87.5313 83.432C87.6139 83.5253 87.7206 83.6013 87.8513 83.66C87.9846 83.716 88.1446 83.744 88.3313 83.744C88.5179 83.744 88.6766 83.716 88.8073 83.66C88.9406 83.6013 89.0486 83.5253 89.1313 83.432C89.2139 83.336 89.2739 83.2267 89.3113 83.104C89.3486 82.9813 89.3673 82.8547 89.3673 82.724C89.3673 82.5907 89.3446 82.4653 89.2993 82.348C89.2566 82.2307 89.1913 82.128 89.1033 82.04C89.0179 81.952 88.9099 81.8827 88.7793 81.832C88.6513 81.7813 88.5019 81.756 88.3313 81.756ZM89.1513 84.012C89.5086 84.1133 89.7833 84.2827 89.9753 84.52C90.1673 84.7573 90.2633 85.0613 90.2633 85.432C90.2633 85.6827 90.2153 85.9093 90.1193 86.112C90.0259 86.312 89.8939 86.4827 89.7233 86.624C89.5553 86.7653 89.3526 86.8747 89.1153 86.952C88.8779 87.0267 88.6166 87.064 88.3313 87.064C88.0459 87.064 87.7846 87.0267 87.5473 86.952C87.3099 86.8747 87.1059 86.7653 86.9353 86.624C86.7646 86.4827 86.6326 86.312 86.5393 86.112C86.4459 85.9093 86.3993 85.6827 86.3993 85.432C86.3993 85.0613 86.4953 84.7573 86.6873 84.52C86.8793 84.2827 87.1539 84.1133 87.5113 84.012C87.2099 83.9 86.9819 83.7333 86.8273 83.512C86.6753 83.288 86.5993 83.0213 86.5993 82.712C86.5993 82.5013 86.6406 82.304 86.7233 82.12C86.8059 81.936 86.9233 81.776 87.0753 81.64C87.2273 81.504 87.4086 81.3973 87.6193 81.32C87.8326 81.2427 88.0699 81.204 88.3313 81.204C88.5899 81.204 88.8259 81.2427 89.0393 81.32C89.2526 81.3973 89.4353 81.504 89.5873 81.64C89.7393 81.776 89.8566 81.936 89.9393 82.12C90.0219 82.304 90.0633 82.5013 90.0633 82.712C90.0633 83.0213 89.9859 83.288 89.8313 83.512C89.6793 83.7333 89.4526 83.9 89.1513 84.012ZM95.2919 84.136C95.2919 84.6373 95.2372 85.072 95.1279 85.44C95.0212 85.8053 94.8745 86.108 94.6879 86.348C94.5012 86.588 94.2799 86.7667 94.0239 86.884C93.7705 87.0013 93.4985 87.06 93.2079 87.06C92.9145 87.06 92.6412 87.0013 92.3879 86.884C92.1372 86.7667 91.9185 86.588 91.7319 86.348C91.5452 86.108 91.3985 85.8053 91.2919 85.44C91.1852 85.072 91.1319 84.6373 91.1319 84.136C91.1319 83.6347 91.1852 83.2 91.2919 82.832C91.3985 82.464 91.5452 82.16 91.7319 81.92C91.9185 81.6773 92.1372 81.4973 92.3879 81.38C92.6412 81.2627 92.9145 81.204 93.2079 81.204C93.4985 81.204 93.7705 81.2627 94.0239 81.38C94.2799 81.4973 94.5012 81.6773 94.6879 81.92C94.8745 82.16 95.0212 82.464 95.1279 82.832C95.2372 83.2 95.2919 83.6347 95.2919 84.136ZM94.5519 84.136C94.5519 83.6987 94.5145 83.332 94.4399 83.036C94.3679 82.7373 94.2692 82.4973 94.1439 82.316C94.0212 82.1347 93.8785 82.0053 93.7159 81.928C93.5532 81.848 93.3839 81.808 93.2079 81.808C93.0319 81.808 92.8625 81.848 92.6999 81.928C92.5372 82.0053 92.3945 82.1347 92.2719 82.316C92.1492 82.4973 92.0505 82.7373 91.9759 83.036C91.9039 83.332 91.8679 83.6987 91.8679 84.136C91.8679 84.5733 91.9039 84.94 91.9759 85.236C92.0505 85.532 92.1492 85.7707 92.2719 85.952C92.3945 86.1333 92.5372 86.264 92.6999 86.344C92.8625 86.4213 93.0319 86.46 93.2079 86.46C93.3839 86.46 93.5532 86.4213 93.7159 86.344C93.8785 86.264 94.0212 86.1333 94.1439 85.952C94.2692 85.7707 94.3679 85.532 94.4399 85.236C94.5145 84.94 94.5519 84.5733 94.5519 84.136ZM98.0845 86.472C98.2765 86.472 98.4498 86.4413 98.6045 86.38C98.7618 86.3187 98.8952 86.2333 99.0045 86.124C99.1165 86.0147 99.2018 85.8853 99.2605 85.736C99.3218 85.5867 99.3525 85.424 99.3525 85.248C99.3525 85.0613 99.3232 84.8933 99.2645 84.744C99.2058 84.592 99.1218 84.464 99.0125 84.36C98.9058 84.2533 98.7778 84.172 98.6285 84.116C98.4792 84.06 98.3152 84.032 98.1365 84.032C97.9445 84.032 97.7712 84.0653 97.6165 84.132C97.4618 84.196 97.3298 84.284 97.2205 84.396C97.1138 84.5053 97.0312 84.6333 96.9725 84.78C96.9165 84.924 96.8885 85.0747 96.8885 85.232C96.8885 85.416 96.9152 85.584 96.9685 85.736C97.0218 85.888 97.0992 86.0187 97.2005 86.128C97.3045 86.2373 97.4298 86.3227 97.5765 86.384C97.7258 86.4427 97.8952 86.472 98.0845 86.472ZM97.6685 83.416C97.6178 83.48 97.5685 83.5427 97.5205 83.604C97.4752 83.6627 97.4312 83.7213 97.3885 83.78C97.5245 83.6867 97.6738 83.6147 97.8365 83.564C97.9992 83.5133 98.1765 83.488 98.3685 83.488C98.6005 83.488 98.8192 83.5267 99.0245 83.604C99.2298 83.6787 99.4085 83.7893 99.5605 83.936C99.7152 84.08 99.8378 84.2587 99.9285 84.472C100.019 84.6827 100.064 84.924 100.064 85.196C100.064 85.46 100.016 85.7053 99.9205 85.932C99.8245 86.1587 99.6898 86.356 99.5165 86.524C99.3458 86.692 99.1392 86.824 98.8965 86.92C98.6565 87.016 98.3912 87.064 98.1005 87.064C97.8125 87.064 97.5512 87.0187 97.3165 86.928C97.0818 86.8347 96.8818 86.704 96.7165 86.536C96.5538 86.3653 96.4272 86.16 96.3365 85.92C96.2485 85.6773 96.2045 85.4067 96.2045 85.108C96.2045 84.8573 96.2592 84.5907 96.3685 84.308C96.4805 84.0227 96.6578 83.7187 96.9005 83.396L98.3565 81.44C98.3938 81.392 98.4445 81.352 98.5085 81.32C98.5752 81.2853 98.6512 81.268 98.7365 81.268H99.3685L97.6685 83.416Z" fill="white"/>
<path d="M82.948 112.324C83.0253 112.324 83.0867 112.347 83.132 112.392C83.1773 112.437 83.2 112.496 83.2 112.568V113H79.376V112.756C79.376 112.705 79.3867 112.653 79.408 112.6C79.4293 112.547 79.4627 112.497 79.508 112.452L81.344 110.608C81.496 110.453 81.6347 110.305 81.76 110.164C81.8853 110.02 81.992 109.876 82.08 109.732C82.168 109.588 82.236 109.443 82.284 109.296C82.332 109.147 82.356 108.988 82.356 108.82C82.356 108.652 82.3293 108.505 82.276 108.38C82.2227 108.252 82.1493 108.147 82.056 108.064C81.9653 107.981 81.8573 107.92 81.732 107.88C81.6067 107.837 81.472 107.816 81.328 107.816C81.1813 107.816 81.0467 107.837 80.924 107.88C80.8013 107.923 80.692 107.983 80.596 108.06C80.5027 108.135 80.424 108.224 80.36 108.328C80.296 108.432 80.2507 108.547 80.224 108.672C80.192 108.765 80.148 108.828 80.092 108.86C80.0387 108.889 79.9627 108.897 79.864 108.884L79.492 108.82C79.5293 108.559 79.6013 108.328 79.708 108.128C79.8173 107.925 79.9533 107.756 80.116 107.62C80.2813 107.484 80.4693 107.381 80.68 107.312C80.8907 107.24 81.1187 107.204 81.364 107.204C81.6067 107.204 81.8333 107.24 82.044 107.312C82.2547 107.384 82.4373 107.489 82.592 107.628C82.7467 107.764 82.868 107.931 82.956 108.128C83.044 108.325 83.088 108.549 83.088 108.8C83.088 109.013 83.056 109.212 82.992 109.396C82.928 109.577 82.8413 109.751 82.732 109.916C82.6227 110.081 82.496 110.243 82.352 110.4C82.2107 110.557 82.06 110.716 81.9 110.876L80.388 112.42C80.4947 112.391 80.6027 112.368 80.712 112.352C80.8213 112.333 80.9267 112.324 81.028 112.324H82.948ZM84.3246 112.56C84.3246 112.491 84.3366 112.425 84.3606 112.364C84.3873 112.303 84.422 112.249 84.4646 112.204C84.51 112.159 84.5633 112.123 84.6246 112.096C84.686 112.069 84.7513 112.056 84.8206 112.056C84.89 112.056 84.9553 112.069 85.0166 112.096C85.078 112.123 85.1313 112.159 85.1766 112.204C85.222 112.249 85.258 112.303 85.2846 112.364C85.3113 112.425 85.3246 112.491 85.3246 112.56C85.3246 112.632 85.3113 112.699 85.2846 112.76C85.258 112.819 85.222 112.871 85.1766 112.916C85.1313 112.961 85.078 112.996 85.0166 113.02C84.9553 113.047 84.89 113.06 84.8206 113.06C84.7513 113.06 84.686 113.047 84.6246 113.02C84.5633 112.996 84.51 112.961 84.4646 112.916C84.422 112.871 84.3873 112.819 84.3606 112.76C84.3366 112.699 84.3246 112.632 84.3246 112.56ZM90.4113 110.136C90.4113 110.637 90.3566 111.072 90.2473 111.44C90.1406 111.805 89.9939 112.108 89.8073 112.348C89.6206 112.588 89.3993 112.767 89.1433 112.884C88.8899 113.001 88.6179 113.06 88.3273 113.06C88.0339 113.06 87.7606 113.001 87.5073 112.884C87.2566 112.767 87.0379 112.588 86.8513 112.348C86.6646 112.108 86.5179 111.805 86.4113 111.44C86.3046 111.072 86.2513 110.637 86.2513 110.136C86.2513 109.635 86.3046 109.2 86.4113 108.832C86.5179 108.464 86.6646 108.16 86.8513 107.92C87.0379 107.677 87.2566 107.497 87.5073 107.38C87.7606 107.263 88.0339 107.204 88.3273 107.204C88.6179 107.204 88.8899 107.263 89.1433 107.38C89.3993 107.497 89.6206 107.677 89.8073 107.92C89.9939 108.16 90.1406 108.464 90.2473 108.832C90.3566 109.2 90.4113 109.635 90.4113 110.136ZM89.6713 110.136C89.6713 109.699 89.6339 109.332 89.5593 109.036C89.4873 108.737 89.3886 108.497 89.2633 108.316C89.1406 108.135 88.9979 108.005 88.8353 107.928C88.6726 107.848 88.5033 107.808 88.3273 107.808C88.1513 107.808 87.9819 107.848 87.8193 107.928C87.6566 108.005 87.5139 108.135 87.3913 108.316C87.2686 108.497 87.1699 108.737 87.0953 109.036C87.0233 109.332 86.9873 109.699 86.9873 110.136C86.9873 110.573 87.0233 110.94 87.0953 111.236C87.1699 111.532 87.2686 111.771 87.3913 111.952C87.5139 112.133 87.6566 112.264 87.8193 112.344C87.9819 112.421 88.1513 112.46 88.3273 112.46C88.5033 112.46 88.6726 112.421 88.8353 112.344C88.9979 112.264 89.1406 112.133 89.2633 111.952C89.3886 111.771 89.4873 111.532 89.5593 111.236C89.6339 110.94 89.6713 110.573 89.6713 110.136ZM95.2919 110.136C95.2919 110.637 95.2372 111.072 95.1279 111.44C95.0212 111.805 94.8745 112.108 94.6879 112.348C94.5012 112.588 94.2799 112.767 94.0239 112.884C93.7705 113.001 93.4985 113.06 93.2079 113.06C92.9145 113.06 92.6412 113.001 92.3879 112.884C92.1372 112.767 91.9185 112.588 91.7319 112.348C91.5452 112.108 91.3985 111.805 91.2919 111.44C91.1852 111.072 91.1319 110.637 91.1319 110.136C91.1319 109.635 91.1852 109.2 91.2919 108.832C91.3985 108.464 91.5452 108.16 91.7319 107.92C91.9185 107.677 92.1372 107.497 92.3879 107.38C92.6412 107.263 92.9145 107.204 93.2079 107.204C93.4985 107.204 93.7705 107.263 94.0239 107.38C94.2799 107.497 94.5012 107.677 94.6879 107.92C94.8745 108.16 95.0212 108.464 95.1279 108.832C95.2372 109.2 95.2919 109.635 95.2919 110.136ZM94.5519 110.136C94.5519 109.699 94.5145 109.332 94.4399 109.036C94.3679 108.737 94.2692 108.497 94.1439 108.316C94.0212 108.135 93.8785 108.005 93.7159 107.928C93.5532 107.848 93.3839 107.808 93.2079 107.808C93.0319 107.808 92.8625 107.848 92.6999 107.928C92.5372 108.005 92.3945 108.135 92.2719 108.316C92.1492 108.497 92.0505 108.737 91.9759 109.036C91.9039 109.332 91.8679 109.699 91.8679 110.136C91.8679 110.573 91.9039 110.94 91.9759 111.236C92.0505 111.532 92.1492 111.771 92.2719 111.952C92.3945 112.133 92.5372 112.264 92.6999 112.344C92.8625 112.421 93.0319 112.46 93.2079 112.46C93.3839 112.46 93.5532 112.421 93.7159 112.344C93.8785 112.264 94.0212 112.133 94.1439 111.952C94.2692 111.771 94.3679 111.532 94.4399 111.236C94.5145 110.94 94.5519 110.573 94.5519 110.136ZM100.172 110.136C100.172 110.637 100.118 111.072 100.008 111.44C99.9018 111.805 99.7552 112.108 99.5685 112.348C99.3818 112.588 99.1605 112.767 98.9045 112.884C98.6512 113.001 98.3792 113.06 98.0885 113.06C97.7952 113.06 97.5218 113.001 97.2685 112.884C97.0178 112.767 96.7992 112.588 96.6125 112.348C96.4258 112.108 96.2792 111.805 96.1725 111.44C96.0658 111.072 96.0125 110.637 96.0125 110.136C96.0125 109.635 96.0658 109.2 96.1725 108.832C96.2792 108.464 96.4258 108.16 96.6125 107.92C96.7992 107.677 97.0178 107.497 97.2685 107.38C97.5218 107.263 97.7952 107.204 98.0885 107.204C98.3792 107.204 98.6512 107.263 98.9045 107.38C99.1605 107.497 99.3818 107.677 99.5685 107.92C99.7552 108.16 99.9018 108.464 100.008 108.832C100.118 109.2 100.172 109.635 100.172 110.136ZM99.4325 110.136C99.4325 109.699 99.3952 109.332 99.3205 109.036C99.2485 108.737 99.1498 108.497 99.0245 108.316C98.9018 108.135 98.7592 108.005 98.5965 107.928C98.4338 107.848 98.2645 107.808 98.0885 107.808C97.9125 107.808 97.7432 107.848 97.5805 107.928C97.4178 108.005 97.2752 108.135 97.1525 108.316C97.0298 108.497 96.9312 108.737 96.8565 109.036C96.7845 109.332 96.7485 109.699 96.7485 110.136C96.7485 110.573 96.7845 110.94 96.8565 111.236C96.9312 111.532 97.0298 111.771 97.1525 111.952C97.2752 112.133 97.4178 112.264 97.5805 112.344C97.7432 112.421 97.9125 112.46 98.0885 112.46C98.2645 112.46 98.4338 112.421 98.5965 112.344C98.7592 112.264 98.9018 112.133 99.0245 111.952C99.1498 111.771 99.2485 111.532 99.3205 111.236C99.3952 110.94 99.4325 110.573 99.4325 110.136Z" fill="white"/>
<path d="M79.52 134.82C79.5573 134.559 79.6293 134.328 79.736 134.128C79.8427 133.925 79.9773 133.756 80.14 133.62C80.3053 133.484 80.4933 133.381 80.704 133.312C80.9173 133.24 81.1467 133.204 81.392 133.204C81.6347 133.204 81.8587 133.239 82.064 133.308C82.2693 133.377 82.4453 133.476 82.592 133.604C82.7413 133.732 82.8573 133.887 82.94 134.068C83.0227 134.249 83.064 134.451 83.064 134.672C83.064 134.853 83.04 135.016 82.992 135.16C82.9467 135.301 82.88 135.425 82.792 135.532C82.7067 135.639 82.6027 135.729 82.48 135.804C82.3573 135.879 82.22 135.94 82.068 135.988C82.4413 136.084 82.7213 136.249 82.908 136.484C83.0973 136.716 83.192 137.007 83.192 137.356C83.192 137.62 83.1413 137.857 83.04 138.068C82.9413 138.279 82.8053 138.459 82.632 138.608C82.4587 138.755 82.256 138.868 82.024 138.948C81.7947 139.025 81.548 139.064 81.284 139.064C80.98 139.064 80.72 139.027 80.504 138.952C80.288 138.875 80.1053 138.769 79.956 138.636C79.8067 138.503 79.684 138.345 79.588 138.164C79.492 137.98 79.4107 137.781 79.344 137.568L79.652 137.44C79.732 137.405 79.8093 137.396 79.884 137.412C79.9613 137.428 80.0173 137.472 80.052 137.544C80.0867 137.619 80.1293 137.708 80.18 137.812C80.2333 137.916 80.3053 138.016 80.396 138.112C80.4867 138.208 80.6013 138.289 80.74 138.356C80.8813 138.423 81.06 138.456 81.276 138.456C81.476 138.456 81.6507 138.424 81.8 138.36C81.952 138.293 82.0773 138.208 82.176 138.104C82.2773 138 82.3533 137.884 82.404 137.756C82.4547 137.628 82.48 137.501 82.48 137.376C82.48 137.221 82.46 137.08 82.42 136.952C82.38 136.824 82.3053 136.713 82.196 136.62C82.0867 136.527 81.936 136.453 81.744 136.4C81.5547 136.347 81.3107 136.32 81.012 136.32V135.804C81.2573 135.801 81.4653 135.775 81.636 135.724C81.8093 135.673 81.9493 135.604 82.056 135.516C82.1653 135.428 82.244 135.323 82.292 135.2C82.3427 135.077 82.368 134.941 82.368 134.792C82.368 134.627 82.3413 134.483 82.288 134.36C82.2373 134.237 82.1667 134.136 82.076 134.056C81.9853 133.976 81.8773 133.916 81.752 133.876C81.6293 133.836 81.496 133.816 81.352 133.816C81.208 133.816 81.0733 133.837 80.948 133.88C80.8253 133.923 80.716 133.983 80.62 134.06C80.5267 134.135 80.448 134.224 80.384 134.328C80.32 134.432 80.2747 134.547 80.248 134.672C80.2133 134.765 80.1693 134.828 80.116 134.86C80.0653 134.889 79.9907 134.897 79.892 134.884L79.52 134.82ZM84.3246 138.56C84.3246 138.491 84.3366 138.425 84.3606 138.364C84.3873 138.303 84.422 138.249 84.4646 138.204C84.51 138.159 84.5633 138.123 84.6246 138.096C84.686 138.069 84.7513 138.056 84.8206 138.056C84.89 138.056 84.9553 138.069 85.0166 138.096C85.078 138.123 85.1313 138.159 85.1766 138.204C85.222 138.249 85.258 138.303 85.2846 138.364C85.3113 138.425 85.3246 138.491 85.3246 138.56C85.3246 138.632 85.3113 138.699 85.2846 138.76C85.258 138.819 85.222 138.871 85.1766 138.916C85.1313 138.961 85.078 138.996 85.0166 139.02C84.9553 139.047 84.89 139.06 84.8206 139.06C84.7513 139.06 84.686 139.047 84.6246 139.02C84.5633 138.996 84.51 138.961 84.4646 138.916C84.422 138.871 84.3873 138.819 84.3606 138.76C84.3366 138.699 84.3246 138.632 84.3246 138.56ZM88.9313 136.932V134.568C88.9313 134.499 88.9339 134.423 88.9393 134.34C88.9446 134.257 88.9526 134.173 88.9633 134.088L86.8753 136.932H88.9313ZM90.4233 136.932V137.34C90.4233 137.383 90.4099 137.419 90.3833 137.448C90.3593 137.477 90.3206 137.492 90.2673 137.492H89.5553V139H88.9313V137.492H86.3873C86.3339 137.492 86.2873 137.477 86.2473 137.448C86.2099 137.416 86.1859 137.377 86.1753 137.332L86.1033 136.968L88.8913 133.268H89.5553V136.932H90.4233ZM95.2159 133.268V133.588C95.2159 133.679 95.2052 133.753 95.1839 133.812C95.1652 133.871 95.1465 133.92 95.1279 133.96L92.7519 138.748C92.7172 138.817 92.6692 138.877 92.6079 138.928C92.5465 138.976 92.4652 139 92.3639 139H91.8519L94.2599 134.272C94.2945 134.205 94.3305 134.144 94.3679 134.088C94.4052 134.032 94.4452 133.979 94.4879 133.928H91.4959C91.4505 133.928 91.4105 133.911 91.3759 133.876C91.3412 133.839 91.3239 133.797 91.3239 133.752V133.268H95.2159ZM98.6925 136.932V134.568C98.6925 134.499 98.6952 134.423 98.7005 134.34C98.7058 134.257 98.7138 134.173 98.7245 134.088L96.6365 136.932H98.6925ZM100.184 136.932V137.34C100.184 137.383 100.171 137.419 100.144 137.448C100.12 137.477 100.082 137.492 100.028 137.492H99.3165V139H98.6925V137.492H96.1485C96.0952 137.492 96.0485 137.477 96.0085 137.448C95.9712 137.416 95.9472 137.377 95.9365 137.332L95.8645 136.968L98.6525 133.268H99.3165V136.932H100.184Z" fill="white"/>
<path d="M82.948 164.324C83.0253 164.324 83.0867 164.347 83.132 164.392C83.1773 164.437 83.2 164.496 83.2 164.568V165H79.376V164.756C79.376 164.705 79.3867 164.653 79.408 164.6C79.4293 164.547 79.4627 164.497 79.508 164.452L81.344 162.608C81.496 162.453 81.6347 162.305 81.76 162.164C81.8853 162.02 81.992 161.876 82.08 161.732C82.168 161.588 82.236 161.443 82.284 161.296C82.332 161.147 82.356 160.988 82.356 160.82C82.356 160.652 82.3293 160.505 82.276 160.38C82.2227 160.252 82.1493 160.147 82.056 160.064C81.9653 159.981 81.8573 159.92 81.732 159.88C81.6067 159.837 81.472 159.816 81.328 159.816C81.1813 159.816 81.0467 159.837 80.924 159.88C80.8013 159.923 80.692 159.983 80.596 160.06C80.5027 160.135 80.424 160.224 80.36 160.328C80.296 160.432 80.2507 160.547 80.224 160.672C80.192 160.765 80.148 160.828 80.092 160.86C80.0387 160.889 79.9627 160.897 79.864 160.884L79.492 160.82C79.5293 160.559 79.6013 160.328 79.708 160.128C79.8173 159.925 79.9533 159.756 80.116 159.62C80.2813 159.484 80.4693 159.381 80.68 159.312C80.8907 159.24 81.1187 159.204 81.364 159.204C81.6067 159.204 81.8333 159.24 82.044 159.312C82.2547 159.384 82.4373 159.489 82.592 159.628C82.7467 159.764 82.868 159.931 82.956 160.128C83.044 160.325 83.088 160.549 83.088 160.8C83.088 161.013 83.056 161.212 82.992 161.396C82.928 161.577 82.8413 161.751 82.732 161.916C82.6227 162.081 82.496 162.243 82.352 162.4C82.2107 162.557 82.06 162.716 81.9 162.876L80.388 164.42C80.4947 164.391 80.6027 164.368 80.712 164.352C80.8213 164.333 80.9267 164.324 81.028 164.324H82.948ZM84.3246 164.56C84.3246 164.491 84.3366 164.425 84.3606 164.364C84.3873 164.303 84.422 164.249 84.4646 164.204C84.51 164.159 84.5633 164.123 84.6246 164.096C84.686 164.069 84.7513 164.056 84.8206 164.056C84.89 164.056 84.9553 164.069 85.0166 164.096C85.078 164.123 85.1313 164.159 85.1766 164.204C85.222 164.249 85.258 164.303 85.2846 164.364C85.3113 164.425 85.3246 164.491 85.3246 164.56C85.3246 164.632 85.3113 164.699 85.2846 164.76C85.258 164.819 85.222 164.871 85.1766 164.916C85.1313 164.961 85.078 164.996 85.0166 165.02C84.9553 165.047 84.89 165.06 84.8206 165.06C84.7513 165.06 84.686 165.047 84.6246 165.02C84.5633 164.996 84.51 164.961 84.4646 164.916C84.422 164.871 84.3873 164.819 84.3606 164.76C84.3366 164.699 84.3246 164.632 84.3246 164.56ZM88.3313 164.496C88.5179 164.496 88.6846 164.471 88.8313 164.42C88.9806 164.367 89.1059 164.293 89.2073 164.2C89.3113 164.104 89.3899 163.991 89.4433 163.86C89.4993 163.727 89.5273 163.58 89.5273 163.42C89.5273 163.223 89.4939 163.055 89.4273 162.916C89.3633 162.775 89.2753 162.66 89.1633 162.572C89.0539 162.484 88.9273 162.42 88.7833 162.38C88.6393 162.337 88.4886 162.316 88.3313 162.316C88.1739 162.316 88.0233 162.337 87.8793 162.38C87.7353 162.42 87.6073 162.484 87.4953 162.572C87.3859 162.66 87.2979 162.775 87.2313 162.916C87.1673 163.055 87.1353 163.223 87.1353 163.42C87.1353 163.58 87.1619 163.727 87.2153 163.86C87.2713 163.991 87.3499 164.104 87.4513 164.2C87.5553 164.293 87.6806 164.367 87.8273 164.42C87.9766 164.471 88.1446 164.496 88.3313 164.496ZM88.3313 159.756C88.1606 159.756 88.0099 159.781 87.8793 159.832C87.7513 159.883 87.6433 159.952 87.5553 160.04C87.4699 160.128 87.4046 160.231 87.3593 160.348C87.3166 160.465 87.2953 160.591 87.2953 160.724C87.2953 160.855 87.3139 160.981 87.3513 161.104C87.3886 161.227 87.4486 161.336 87.5313 161.432C87.6139 161.525 87.7206 161.601 87.8513 161.66C87.9846 161.716 88.1446 161.744 88.3313 161.744C88.5179 161.744 88.6766 161.716 88.8073 161.66C88.9406 161.601 89.0486 161.525 89.1313 161.432C89.2139 161.336 89.2739 161.227 89.3113 161.104C89.3486 160.981 89.3673 160.855 89.3673 160.724C89.3673 160.591 89.3446 160.465 89.2993 160.348C89.2566 160.231 89.1913 160.128 89.1033 160.04C89.0179 159.952 88.9099 159.883 88.7793 159.832C88.6513 159.781 88.5019 159.756 88.3313 159.756ZM89.1513 162.012C89.5086 162.113 89.7833 162.283 89.9753 162.52C90.1673 162.757 90.2633 163.061 90.2633 163.432C90.2633 163.683 90.2153 163.909 90.1193 164.112C90.0259 164.312 89.8939 164.483 89.7233 164.624C89.5553 164.765 89.3526 164.875 89.1153 164.952C88.8779 165.027 88.6166 165.064 88.3313 165.064C88.0459 165.064 87.7846 165.027 87.5473 164.952C87.3099 164.875 87.1059 164.765 86.9353 164.624C86.7646 164.483 86.6326 164.312 86.5393 164.112C86.4459 163.909 86.3993 163.683 86.3993 163.432C86.3993 163.061 86.4953 162.757 86.6873 162.52C86.8793 162.283 87.1539 162.113 87.5113 162.012C87.2099 161.9 86.9819 161.733 86.8273 161.512C86.6753 161.288 86.5993 161.021 86.5993 160.712C86.5993 160.501 86.6406 160.304 86.7233 160.12C86.8059 159.936 86.9233 159.776 87.0753 159.64C87.2273 159.504 87.4086 159.397 87.6193 159.32C87.8326 159.243 88.0699 159.204 88.3313 159.204C88.5899 159.204 88.8259 159.243 89.0393 159.32C89.2526 159.397 89.4353 159.504 89.5873 159.64C89.7393 159.776 89.8566 159.936 89.9393 160.12C90.0219 160.304 90.0633 160.501 90.0633 160.712C90.0633 161.021 89.9859 161.288 89.8313 161.512C89.6793 161.733 89.4526 161.9 89.1513 162.012ZM95.2159 159.268V159.588C95.2159 159.679 95.2052 159.753 95.1839 159.812C95.1652 159.871 95.1465 159.92 95.1279 159.96L92.7519 164.748C92.7172 164.817 92.6692 164.877 92.6079 164.928C92.5465 164.976 92.4652 165 92.3639 165H91.8519L94.2599 160.272C94.2945 160.205 94.3305 160.144 94.3679 160.088C94.4052 160.032 94.4452 159.979 94.4879 159.928H91.4959C91.4505 159.928 91.4105 159.911 91.3759 159.876C91.3412 159.839 91.3239 159.797 91.3239 159.752V159.268H95.2159ZM98.0845 164.472C98.2765 164.472 98.4498 164.441 98.6045 164.38C98.7618 164.319 98.8952 164.233 99.0045 164.124C99.1165 164.015 99.2018 163.885 99.2605 163.736C99.3218 163.587 99.3525 163.424 99.3525 163.248C99.3525 163.061 99.3232 162.893 99.2645 162.744C99.2058 162.592 99.1218 162.464 99.0125 162.36C98.9058 162.253 98.7778 162.172 98.6285 162.116C98.4792 162.06 98.3152 162.032 98.1365 162.032C97.9445 162.032 97.7712 162.065 97.6165 162.132C97.4618 162.196 97.3298 162.284 97.2205 162.396C97.1138 162.505 97.0312 162.633 96.9725 162.78C96.9165 162.924 96.8885 163.075 96.8885 163.232C96.8885 163.416 96.9152 163.584 96.9685 163.736C97.0218 163.888 97.0992 164.019 97.2005 164.128C97.3045 164.237 97.4298 164.323 97.5765 164.384C97.7258 164.443 97.8952 164.472 98.0845 164.472ZM97.6685 161.416C97.6178 161.48 97.5685 161.543 97.5205 161.604C97.4752 161.663 97.4312 161.721 97.3885 161.78C97.5245 161.687 97.6738 161.615 97.8365 161.564C97.9992 161.513 98.1765 161.488 98.3685 161.488C98.6005 161.488 98.8192 161.527 99.0245 161.604C99.2298 161.679 99.4085 161.789 99.5605 161.936C99.7152 162.08 99.8378 162.259 99.9285 162.472C100.019 162.683 100.064 162.924 100.064 163.196C100.064 163.46 100.016 163.705 99.9205 163.932C99.8245 164.159 99.6898 164.356 99.5165 164.524C99.3458 164.692 99.1392 164.824 98.8965 164.92C98.6565 165.016 98.3912 165.064 98.1005 165.064C97.8125 165.064 97.5512 165.019 97.3165 164.928C97.0818 164.835 96.8818 164.704 96.7165 164.536C96.5538 164.365 96.4272 164.16 96.3365 163.92C96.2485 163.677 96.2045 163.407 96.2045 163.108C96.2045 162.857 96.2592 162.591 96.3685 162.308C96.4805 162.023 96.6578 161.719 96.9005 161.396L98.3565 159.44C98.3938 159.392 98.4445 159.352 98.5085 159.32C98.5752 159.285 98.6512 159.268 98.7365 159.268H99.3685L97.6685 161.416Z" fill="white"/>
<path d="M82.888 59.944L81.736 57.084C81.696 56.9907 81.6573 56.8787 81.62 56.748C81.604 56.812 81.5867 56.8733 81.568 56.932C81.5493 56.988 81.5293 57.04 81.508 57.088L80.356 59.944H82.888ZM84.14 62H83.824C83.7867 62 83.756 61.9907 83.732 61.972C83.708 61.9507 83.6893 61.924 83.676 61.892L83.012 60.248H80.232L79.568 61.892C79.5573 61.9213 79.5387 61.9467 79.512 61.968C79.4853 61.9893 79.4533 62 79.416 62H79.104L81.42 56.34H81.824L84.14 62ZM85.1069 62V58.02H85.3189C85.3856 58.02 85.4243 58.0533 85.4349 58.12L85.4709 58.696C85.6256 58.4747 85.8029 58.296 86.0029 58.16C86.2029 58.024 86.4283 57.956 86.6789 57.956C86.9696 57.956 87.2016 58.04 87.3749 58.208C87.5509 58.376 87.6696 58.6093 87.7309 58.908C87.7789 58.7453 87.8456 58.604 87.9309 58.484C88.0189 58.364 88.1189 58.2653 88.2309 58.188C88.3429 58.108 88.4643 58.0493 88.5949 58.012C88.7283 57.9747 88.8643 57.956 89.0029 57.956C89.2003 57.956 89.3776 57.9893 89.5349 58.056C89.6923 58.12 89.8256 58.216 89.9349 58.344C90.0443 58.472 90.1283 58.6293 90.1869 58.816C90.2456 59.0027 90.2749 59.216 90.2749 59.456V62H89.8949V59.456C89.8949 59.0667 89.8109 58.7707 89.6429 58.568C89.4749 58.3627 89.2349 58.26 88.9229 58.26C88.7843 58.26 88.6509 58.2853 88.5229 58.336C88.3976 58.3867 88.2856 58.4627 88.1869 58.564C88.0909 58.6627 88.0136 58.7867 87.9549 58.936C87.8989 59.0853 87.8709 59.2587 87.8709 59.456V62H87.4869V59.456C87.4869 59.0693 87.4096 58.7733 87.2549 58.568C87.1029 58.3627 86.8789 58.26 86.5829 58.26C86.3669 58.26 86.1669 58.324 85.9829 58.452C85.7989 58.58 85.6349 58.7573 85.4909 58.984V62H85.1069ZM93.3604 57.956C93.6458 57.956 93.9004 58.0053 94.1244 58.104C94.3511 58.2 94.5418 58.3373 94.6964 58.516C94.8511 58.6947 94.9684 58.9107 95.0484 59.164C95.1311 59.4147 95.1724 59.696 95.1724 60.008C95.1724 60.32 95.1311 60.6013 95.0484 60.852C94.9684 61.1027 94.8511 61.3173 94.6964 61.496C94.5418 61.6747 94.3511 61.812 94.1244 61.908C93.9004 62.004 93.6458 62.052 93.3604 62.052C93.0751 62.052 92.8191 62.004 92.5924 61.908C92.3684 61.812 92.1778 61.6747 92.0204 61.496C91.8658 61.3173 91.7471 61.1027 91.6644 60.852C91.5844 60.6013 91.5444 60.32 91.5444 60.008C91.5444 59.696 91.5844 59.4147 91.6644 59.164C91.7471 58.9107 91.8658 58.6947 92.0204 58.516C92.1778 58.3373 92.3684 58.2 92.5924 58.104C92.8191 58.0053 93.0751 57.956 93.3604 57.956ZM93.3604 61.752C93.5978 61.752 93.8044 61.712 93.9804 61.632C94.1591 61.5493 94.3071 61.432 94.4244 61.28C94.5444 61.128 94.6338 60.9453 94.6924 60.732C94.7511 60.516 94.7804 60.2747 94.7804 60.008C94.7804 59.744 94.7511 59.504 94.6924 59.288C94.6338 59.072 94.5444 58.888 94.4244 58.736C94.3071 58.5813 94.1591 58.4627 93.9804 58.38C93.8044 58.2973 93.5978 58.256 93.3604 58.256C93.1231 58.256 92.9151 58.2973 92.7364 58.38C92.5604 58.4627 92.4124 58.5813 92.2924 58.736C92.1751 58.888 92.0858 59.072 92.0244 59.288C91.9658 59.504 91.9364 59.744 91.9364 60.008C91.9364 60.2747 91.9658 60.516 92.0244 60.732C92.0858 60.9453 92.1751 61.128 92.2924 61.28C92.4124 61.432 92.5604 61.5493 92.7364 61.632C92.9151 61.712 93.1231 61.752 93.3604 61.752ZM99.5734 58.02V62H99.3614C99.2947 62 99.256 61.9653 99.2454 61.896L99.2094 61.304C99.0254 61.5333 98.812 61.7173 98.5694 61.856C98.3294 61.9947 98.0614 62.064 97.7654 62.064C97.544 62.064 97.3507 62.0293 97.1854 61.96C97.02 61.8907 96.8827 61.7907 96.7734 61.66C96.664 61.5293 96.5814 61.372 96.5254 61.188C96.4694 61.004 96.4414 60.796 96.4414 60.564V58.02H96.8254V60.564C96.8254 60.9373 96.9107 61.2307 97.0814 61.444C97.252 61.6547 97.512 61.76 97.8614 61.76C98.12 61.76 98.3614 61.6947 98.5854 61.564C98.812 61.4307 99.0134 61.2467 99.1894 61.012V58.02H99.5734ZM101.488 58.716C101.672 58.4867 101.884 58.3027 102.124 58.164C102.366 58.0253 102.636 57.956 102.932 57.956C103.15 57.956 103.342 57.9907 103.508 58.06C103.676 58.1293 103.814 58.2293 103.924 58.36C104.033 58.4907 104.116 58.648 104.172 58.832C104.228 59.016 104.256 59.224 104.256 59.456V62H103.872V59.456C103.872 59.0827 103.786 58.7907 103.616 58.58C103.445 58.3667 103.185 58.26 102.836 58.26C102.577 58.26 102.334 58.3267 102.108 58.46C101.884 58.5907 101.684 58.7733 101.508 59.008V62H101.124V58.02H101.336C101.402 58.02 101.441 58.0533 101.452 58.12L101.488 58.716ZM106.796 62.064C106.526 62.064 106.316 61.9893 106.164 61.84C106.014 61.6907 105.94 61.46 105.94 61.148V58.428H105.368C105.338 58.428 105.314 58.42 105.296 58.404C105.277 58.388 105.268 58.3653 105.268 58.336V58.188L105.948 58.14L106.044 56.716C106.049 56.692 106.06 56.6707 106.076 56.652C106.092 56.6333 106.114 56.624 106.144 56.624H106.324V58.144H107.58V58.428H106.324V61.128C106.324 61.2373 106.337 61.332 106.364 61.412C106.393 61.4893 106.432 61.5533 106.48 61.604C106.53 61.6547 106.589 61.692 106.656 61.716C106.722 61.74 106.794 61.752 106.872 61.752C106.968 61.752 107.05 61.7387 107.12 61.712C107.189 61.6827 107.249 61.652 107.3 61.62C107.35 61.5853 107.392 61.5547 107.424 61.528C107.456 61.4987 107.481 61.484 107.5 61.484C107.521 61.484 107.542 61.4973 107.564 61.524L107.668 61.692C107.566 61.804 107.437 61.8947 107.28 61.964C107.125 62.0307 106.964 62.064 106.796 62.064Z" fill="white"/>
<circle cx="21" cy="84" r="5" fill="#17285B"/>
<circle cx="21" cy="110" r="5" fill="#0140A0"/>
<circle cx="21" cy="136" r="5" fill="#1BD9D5"/>
<circle cx="21" cy="162" r="5" fill="#2977B8"/>
</g>
<defs>
<filter id="filter0_b_177_144" x="-100" y="-100" width="525" height="430" filterUnits="userSpaceOnUse" color-interpolation-filters="sRGB">
<feFlood flood-opacity="0" result="BackgroundImageFix"/>
<feGaussianBlur in="BackgroundImageFix" stdDeviation="50"/>
<feComposite in2="SourceAlpha" operator="in" result="effect1_backgroundBlur_177_144"/>
<feBlend mode="normal" in="SourceGraphic" in2="effect1_backgroundBlur_177_144" result="shape"/>
</filter>
</defs>
</svg>
