<svg width="162" height="150" viewBox="0 0 162 150" fill="none" xmlns="http://www.w3.org/2000/svg">
<g opacity="0.7" filter="url(#filter0_b_177_49)">
<rect width="162" height="150" rx="15" fill="#05184B"/>
<rect x="0.5" y="0.5" width="161" height="149" rx="14.5" stroke="#00349A"/>
<path d="M26.44 79.256C26.44 80.1147 26.3013 80.896 26.024 81.6C25.752 82.304 25.3653 82.9093 24.864 83.416C24.3627 83.9173 23.7627 84.3067 23.064 84.584C22.3653 84.8613 21.5893 85 20.736 85H16.416V73.512H20.736C21.5893 73.512 22.3653 73.6507 23.064 73.928C23.7627 74.2053 24.3627 74.5973 24.864 75.104C25.3653 75.6053 25.752 76.2107 26.024 76.92C26.3013 77.624 26.44 78.4027 26.44 79.256ZM24.696 79.256C24.696 78.5733 24.6027 77.9627 24.416 77.424C24.2293 76.88 23.9627 76.4213 23.616 76.048C23.2747 75.6693 22.8587 75.3813 22.368 75.184C21.8827 74.9867 21.3387 74.888 20.736 74.888H18.128V83.624H20.736C21.3387 83.624 21.8827 83.5253 22.368 83.328C22.8587 83.1307 23.2747 82.8453 23.616 82.472C23.9627 82.0933 24.2293 81.6347 24.416 81.096C24.6027 80.5573 24.696 79.944 24.696 79.256ZM32.4328 81.392C31.7981 81.4133 31.2594 81.464 30.8168 81.544C30.3741 81.6187 30.0141 81.72 29.7368 81.848C29.4594 81.976 29.2594 82.128 29.1368 82.304C29.0141 82.4747 28.9528 82.6667 28.9528 82.88C28.9528 83.0827 28.9848 83.2587 29.0488 83.408C29.1181 83.552 29.2088 83.672 29.3207 83.768C29.4381 83.8587 29.5741 83.9253 29.7288 83.968C29.8834 84.0107 30.0514 84.032 30.2328 84.032C30.4728 84.032 30.6914 84.008 30.8888 83.96C31.0914 83.912 31.2808 83.8453 31.4568 83.76C31.6328 83.6693 31.8008 83.56 31.9608 83.432C32.1208 83.304 32.2781 83.1573 32.4328 82.992V81.392ZM27.8568 78.008C28.3101 77.576 28.8008 77.2533 29.3288 77.04C29.8621 76.8267 30.4461 76.72 31.0807 76.72C31.5448 76.72 31.9554 76.7973 32.3128 76.952C32.6701 77.1013 32.9714 77.312 33.2168 77.584C33.4621 77.856 33.6461 78.1813 33.7688 78.56C33.8968 78.9387 33.9608 79.3573 33.9608 79.816V85H33.2648C33.1101 85 32.9928 84.976 32.9128 84.928C32.8328 84.8747 32.7688 84.7787 32.7208 84.64L32.5528 83.928C32.3448 84.12 32.1394 84.2907 31.9368 84.44C31.7341 84.584 31.5208 84.7093 31.2968 84.816C31.0781 84.9173 30.8434 84.9947 30.5928 85.048C30.3421 85.1013 30.0648 85.128 29.7608 85.128C29.4408 85.128 29.1394 85.0853 28.8568 85C28.5794 84.9093 28.3368 84.7733 28.1288 84.592C27.9208 84.4107 27.7554 84.184 27.6328 83.912C27.5154 83.64 27.4568 83.3227 27.4568 82.96C27.4568 82.64 27.5421 82.3333 27.7128 82.04C27.8888 81.7413 28.1714 81.4747 28.5608 81.24C28.9554 81.0053 29.4674 80.8133 30.0968 80.664C30.7314 80.5147 31.5101 80.4293 32.4328 80.408V79.816C32.4328 79.2027 32.3021 78.744 32.0408 78.44C31.7794 78.136 31.3954 77.984 30.8888 77.984C30.5474 77.984 30.2594 78.0267 30.0248 78.112C29.7954 78.1973 29.5954 78.2933 29.4248 78.4C29.2594 78.5013 29.1128 78.5947 28.9848 78.68C28.8621 78.7653 28.7341 78.808 28.6008 78.808C28.4941 78.808 28.4008 78.7787 28.3208 78.72C28.2461 78.6613 28.1848 78.592 28.1368 78.512L27.8568 78.008ZM37.6811 76.872V85H36.1211V76.872H37.6811ZM37.9771 74.36C37.9771 74.504 37.9478 74.6427 37.8891 74.776C37.8305 74.904 37.7505 75.0187 37.6491 75.12C37.5531 75.216 37.4385 75.2933 37.3051 75.352C37.1718 75.4053 37.0331 75.432 36.8891 75.432C36.7451 75.432 36.6091 75.4053 36.4811 75.352C36.3531 75.2933 36.2385 75.216 36.1371 75.12C36.0411 75.0187 35.9638 74.904 35.9051 74.776C35.8518 74.6427 35.8251 74.504 35.8251 74.36C35.8251 74.2107 35.8518 74.072 35.9051 73.944C35.9638 73.8107 36.0411 73.696 36.1371 73.6C36.2385 73.4987 36.3531 73.4213 36.4811 73.368C36.6091 73.3093 36.7451 73.28 36.8891 73.28C37.0331 73.28 37.1718 73.3093 37.3051 73.368C37.4385 73.4213 37.5531 73.4987 37.6491 73.6C37.7505 73.696 37.8305 73.8107 37.8891 73.944C37.9478 74.072 37.9771 74.2107 37.9771 74.36ZM41.5398 73.192V85H39.9718V73.192H41.5398ZM50.8719 76.872L46.3599 87.36C46.3119 87.4773 46.2479 87.568 46.1679 87.632C46.0879 87.696 45.9705 87.728 45.8159 87.728H44.6559L46.1439 84.488L42.8079 76.872H44.1679C44.3012 76.872 44.4052 76.904 44.4799 76.968C44.5545 77.032 44.6079 77.104 44.6399 77.184L46.7039 82.064C46.7465 82.1867 46.7865 82.312 46.8239 82.44C46.8665 82.5627 46.9012 82.6853 46.9279 82.808C46.9652 82.68 47.0052 82.5547 47.0479 82.432C47.0905 82.304 47.1359 82.1787 47.1839 82.056L49.1759 77.184C49.2132 77.0933 49.2719 77.0187 49.3519 76.96C49.4319 76.9013 49.5225 76.872 49.6239 76.872H50.8719ZM60.513 78.272C60.4703 78.3413 60.425 78.392 60.377 78.424C60.329 78.4507 60.2677 78.464 60.193 78.464C60.1077 78.464 60.0117 78.4347 59.905 78.376C59.8037 78.3173 59.6783 78.2533 59.529 78.184C59.385 78.1147 59.2143 78.0507 59.017 77.992C58.8197 77.9333 58.585 77.904 58.313 77.904C58.089 77.904 57.8837 77.9333 57.697 77.992C57.5157 78.0453 57.361 78.1227 57.233 78.224C57.105 78.32 57.0063 78.4373 56.937 78.576C56.8677 78.7093 56.833 78.8533 56.833 79.008C56.833 79.2107 56.8917 79.3787 57.009 79.512C57.1317 79.6453 57.289 79.76 57.481 79.856C57.6783 79.952 57.8997 80.04 58.145 80.12C58.3957 80.1947 58.649 80.2747 58.905 80.36C59.1663 80.4453 59.4197 80.544 59.665 80.656C59.9157 80.7627 60.137 80.8987 60.329 81.064C60.5263 81.224 60.6837 81.4187 60.801 81.648C60.9237 81.8773 60.985 82.1573 60.985 82.488C60.985 82.8667 60.9157 83.2187 60.777 83.544C60.6437 83.864 60.4437 84.1413 60.177 84.376C59.9157 84.6107 59.5903 84.7947 59.201 84.928C58.8117 85.0613 58.3663 85.128 57.865 85.128C57.305 85.128 56.7877 85.0347 56.313 84.848C55.8383 84.6613 55.441 84.424 55.121 84.136L55.489 83.536C55.5317 83.4613 55.585 83.4053 55.649 83.368C55.713 83.3253 55.7983 83.304 55.905 83.304C56.0063 83.304 56.1103 83.3413 56.217 83.416C56.3237 83.4907 56.4517 83.5733 56.601 83.664C56.7503 83.7493 56.9317 83.8293 57.145 83.904C57.3583 83.9733 57.625 84.008 57.945 84.008C58.2117 84.008 58.4437 83.976 58.641 83.912C58.8383 83.8427 59.001 83.752 59.129 83.64C59.2623 83.5227 59.361 83.3893 59.425 83.24C59.489 83.0907 59.521 82.9333 59.521 82.768C59.521 82.5547 59.4597 82.3787 59.337 82.24C59.2197 82.096 59.0623 81.9733 58.865 81.872C58.673 81.7707 58.4517 81.6827 58.201 81.608C57.9503 81.5333 57.6943 81.4533 57.433 81.368C57.1717 81.2827 56.9157 81.184 56.665 81.072C56.4143 80.96 56.1903 80.8187 55.993 80.648C55.801 80.4773 55.6437 80.2693 55.521 80.024C55.4037 79.7787 55.345 79.48 55.345 79.128C55.345 78.8133 55.409 78.512 55.537 78.224C55.6703 77.936 55.8597 77.6827 56.105 77.464C56.3557 77.2453 56.6623 77.072 57.025 76.944C57.393 76.8107 57.8117 76.744 58.281 76.744C58.8197 76.744 59.305 76.8293 59.737 77C60.1743 77.1707 60.5477 77.4053 60.857 77.704L60.513 78.272ZM69.4341 76.872V85H68.4981C68.2848 85 68.1461 84.896 68.0821 84.688L67.9701 83.872C67.7941 84.0587 67.6101 84.2293 67.4181 84.384C67.2261 84.5387 67.0208 84.672 66.8021 84.784C66.5835 84.8907 66.3515 84.9733 66.1061 85.032C65.8608 85.096 65.5968 85.128 65.3141 85.128C64.8661 85.128 64.4715 85.0533 64.1301 84.904C63.7941 84.7547 63.5115 84.5467 63.2821 84.28C63.0528 84.008 62.8795 83.6827 62.7621 83.304C62.6448 82.9253 62.5861 82.5067 62.5861 82.048V76.872H64.1541V82.048C64.1541 82.6293 64.2875 83.0827 64.5541 83.408C64.8208 83.728 65.2288 83.888 65.7781 83.888C66.1781 83.888 66.5515 83.7947 66.8981 83.608C67.2448 83.416 67.5701 83.1547 67.8741 82.824V76.872H69.4341ZM73.1716 83C73.4276 83.336 73.7023 83.5707 73.9956 83.704C74.2943 83.8373 74.6276 83.904 74.9956 83.904C75.7103 83.904 76.2623 83.648 76.6516 83.136C77.0463 82.6187 77.2436 81.8667 77.2436 80.88C77.2436 80.3627 77.1983 79.9227 77.1076 79.56C77.0223 79.192 76.8943 78.8933 76.7236 78.664C76.5583 78.4293 76.353 78.2587 76.1076 78.152C75.8623 78.04 75.585 77.984 75.2756 77.984C74.8223 77.984 74.4276 78.0853 74.0916 78.288C73.761 78.4907 73.4543 78.7787 73.1716 79.152V83ZM73.0916 78.088C73.2623 77.8853 73.4436 77.7013 73.6356 77.536C73.833 77.3653 74.0436 77.2213 74.2676 77.104C74.4916 76.9813 74.729 76.888 74.9796 76.824C75.2356 76.7547 75.5076 76.72 75.7956 76.72C76.2596 76.72 76.6783 76.8107 77.0516 76.992C77.4303 77.1733 77.753 77.44 78.0196 77.792C78.2863 78.144 78.4916 78.5787 78.6356 79.096C78.785 79.6133 78.8596 80.208 78.8596 80.88C78.8596 81.4827 78.777 82.0427 78.6116 82.56C78.4516 83.072 78.2196 83.5173 77.9156 83.896C77.617 84.2747 77.249 84.5733 76.8116 84.792C76.3796 85.0053 75.8916 85.112 75.3476 85.112C74.8623 85.112 74.4463 85.032 74.0996 84.872C73.753 84.712 73.4436 84.488 73.1716 84.2V87.728H71.6116V76.872H72.5476C72.7663 76.872 72.9023 76.976 72.9556 77.184L73.0916 78.088ZM82.1716 83C82.4276 83.336 82.7023 83.5707 82.9956 83.704C83.2943 83.8373 83.6276 83.904 83.9956 83.904C84.7103 83.904 85.2623 83.648 85.6516 83.136C86.0463 82.6187 86.2436 81.8667 86.2436 80.88C86.2436 80.3627 86.1983 79.9227 86.1076 79.56C86.0223 79.192 85.8943 78.8933 85.7236 78.664C85.5583 78.4293 85.353 78.2587 85.1076 78.152C84.8623 78.04 84.585 77.984 84.2756 77.984C83.8223 77.984 83.4276 78.0853 83.0916 78.288C82.761 78.4907 82.4543 78.7787 82.1716 79.152V83ZM82.0916 78.088C82.2623 77.8853 82.4436 77.7013 82.6356 77.536C82.833 77.3653 83.0436 77.2213 83.2676 77.104C83.4916 76.9813 83.729 76.888 83.9796 76.824C84.2356 76.7547 84.5076 76.72 84.7956 76.72C85.2596 76.72 85.6783 76.8107 86.0516 76.992C86.4303 77.1733 86.753 77.44 87.0196 77.792C87.2863 78.144 87.4916 78.5787 87.6356 79.096C87.785 79.6133 87.8596 80.208 87.8596 80.88C87.8596 81.4827 87.777 82.0427 87.6116 82.56C87.4516 83.072 87.2196 83.5173 86.9156 83.896C86.617 84.2747 86.249 84.5733 85.8116 84.792C85.3796 85.0053 84.8916 85.112 84.3476 85.112C83.8623 85.112 83.4463 85.032 83.0996 84.872C82.753 84.712 82.4436 84.488 82.1716 84.2V87.728H80.6116V76.872H81.5476C81.7663 76.872 81.9023 76.976 81.9556 77.184L82.0916 78.088ZM93.0756 76.744C93.673 76.744 94.2116 76.8427 94.6916 77.04C95.177 77.232 95.5876 77.512 95.9236 77.88C96.265 78.2427 96.5263 78.6827 96.7076 79.2C96.889 79.712 96.9796 80.288 96.9796 80.928C96.9796 81.568 96.889 82.1467 96.7076 82.664C96.5263 83.1813 96.265 83.6213 95.9236 83.984C95.5876 84.3467 95.177 84.6267 94.6916 84.824C94.2116 85.016 93.673 85.112 93.0756 85.112C92.473 85.112 91.929 85.016 91.4436 84.824C90.9636 84.6267 90.553 84.3467 90.2116 83.984C89.8703 83.6213 89.6063 83.1813 89.4196 82.664C89.2383 82.1467 89.1476 81.568 89.1476 80.928C89.1476 80.288 89.2383 79.712 89.4196 79.2C89.6063 78.6827 89.8703 78.2427 90.2116 77.88C90.553 77.512 90.9636 77.232 91.4436 77.04C91.929 76.8427 92.473 76.744 93.0756 76.744ZM93.0756 83.896C93.8436 83.896 94.417 83.6373 94.7956 83.12C95.1743 82.6027 95.3636 81.8747 95.3636 80.936C95.3636 79.9973 95.1743 79.2693 94.7956 78.752C94.417 78.2293 93.8436 77.968 93.0756 77.968C92.297 77.968 91.7156 78.2293 91.3316 78.752C90.953 79.2693 90.7636 79.9973 90.7636 80.936C90.7636 81.8747 90.953 82.6027 91.3316 83.12C91.7156 83.6373 92.297 83.896 93.0756 83.896ZM100.193 78.432C100.454 77.8987 100.769 77.48 101.137 77.176C101.505 76.872 101.948 76.72 102.465 76.72C102.641 76.72 102.806 76.7413 102.961 76.784C103.121 76.8213 103.26 76.88 103.377 76.96L103.273 78.136C103.236 78.28 103.148 78.352 103.009 78.352C102.934 78.352 102.822 78.3387 102.673 78.312C102.524 78.28 102.364 78.264 102.193 78.264C101.942 78.264 101.721 78.3013 101.529 78.376C101.337 78.4453 101.164 78.552 101.009 78.696C100.86 78.8347 100.726 79.008 100.609 79.216C100.492 79.4187 100.382 79.6507 100.281 79.912V85H98.721V76.872H99.617C99.7877 76.872 99.9023 76.904 99.961 76.968C100.025 77.0267 100.07 77.1333 100.097 77.288L100.193 78.432ZM107.124 85.128C106.468 85.128 105.962 84.944 105.604 84.576C105.252 84.208 105.076 83.6827 105.076 83V78.136H104.132C104.042 78.136 103.964 78.1093 103.9 78.056C103.842 77.9973 103.812 77.912 103.812 77.8V77.168L105.132 76.984L105.484 74.56C105.506 74.4693 105.546 74.4 105.604 74.352C105.668 74.2987 105.748 74.272 105.844 74.272H106.636V77H108.94V78.136H106.636V82.896C106.636 83.216 106.714 83.456 106.868 83.616C107.028 83.7707 107.231 83.848 107.476 83.848C107.62 83.848 107.743 83.8293 107.844 83.792C107.951 83.7547 108.042 83.7147 108.116 83.672C108.191 83.624 108.255 83.5813 108.308 83.544C108.362 83.5067 108.41 83.488 108.452 83.488C108.506 83.488 108.546 83.5013 108.572 83.528C108.604 83.5493 108.636 83.5867 108.668 83.64L109.132 84.392C108.876 84.6267 108.572 84.808 108.22 84.936C107.868 85.064 107.503 85.128 107.124 85.128Z" fill="#B2B2B2"/>
<path d="M19.425 108.82C19.425 110.15 19.785 111.175 20.505 111.895C21.225 112.615 22.225 112.975 23.505 112.975C24.195 112.975 24.805 112.865 25.335 112.645C25.865 112.415 26.31 112.115 26.67 111.745C27.04 111.365 27.32 110.93 27.51 110.44C27.7 109.94 27.795 109.42 27.795 108.88C27.795 108.23 27.69 107.645 27.48 107.125C27.28 106.595 26.995 106.15 26.625 105.79C26.255 105.42 25.815 105.14 25.305 104.95C24.805 104.75 24.25 104.65 23.64 104.65C23.01 104.65 22.435 104.755 21.915 104.965C21.395 105.165 20.95 105.45 20.58 105.82C20.21 106.19 19.925 106.63 19.725 107.14C19.525 107.65 19.425 108.21 19.425 108.82ZM25.335 115.48C25.725 114.97 26.09 114.47 26.43 113.98C25.89 114.39 25.285 114.7 24.615 114.91C23.955 115.12 23.25 115.225 22.5 115.225C21.71 115.225 20.95 115.09 20.22 114.82C19.5 114.55 18.86 114.155 18.3 113.635C17.75 113.105 17.31 112.455 16.98 111.685C16.65 110.915 16.485 110.03 16.485 109.03C16.485 108.09 16.66 107.205 17.01 106.375C17.36 105.545 17.85 104.825 18.48 104.215C19.12 103.595 19.88 103.11 20.76 102.76C21.65 102.4 22.625 102.22 23.685 102.22C24.735 102.22 25.685 102.39 26.535 102.73C27.395 103.07 28.125 103.55 28.725 104.17C29.325 104.78 29.79 105.515 30.12 106.375C30.45 107.235 30.615 108.18 30.615 109.21C30.615 109.84 30.555 110.44 30.435 111.01C30.325 111.58 30.16 112.135 29.94 112.675C29.73 113.215 29.47 113.75 29.16 114.28C28.86 114.8 28.515 115.335 28.125 115.885L22.95 123.31C22.81 123.51 22.605 123.675 22.335 123.805C22.075 123.935 21.775 124 21.435 124H18.75L25.335 115.48ZM47.7323 121.765V124H36.0923V121.765H40.6523V107.65C40.6523 107.2 40.6673 106.735 40.6973 106.255L37.0373 109.36C36.8973 109.47 36.7573 109.54 36.6173 109.57C36.4773 109.6 36.3423 109.605 36.2123 109.585C36.0923 109.565 35.9823 109.525 35.8823 109.465C35.7923 109.395 35.7173 109.325 35.6573 109.255L34.7423 107.98L41.1923 102.415H43.5773V121.765H47.7323ZM60.7247 107.665C60.7247 108.505 60.5897 109.255 60.3197 109.915C60.0597 110.575 59.7097 111.135 59.2697 111.595C58.8297 112.045 58.3147 112.395 57.7247 112.645C57.1447 112.885 56.5347 113.005 55.8947 113.005C55.2047 113.005 54.5647 112.885 53.9747 112.645C53.3947 112.395 52.8897 112.045 52.4597 111.595C52.0297 111.135 51.6897 110.575 51.4397 109.915C51.1997 109.255 51.0797 108.505 51.0797 107.665C51.0797 106.805 51.1997 106.04 51.4397 105.37C51.6897 104.7 52.0297 104.135 52.4597 103.675C52.8897 103.205 53.3947 102.85 53.9747 102.61C54.5647 102.36 55.2047 102.235 55.8947 102.235C56.5847 102.235 57.2197 102.36 57.7997 102.61C58.3897 102.85 58.8997 103.205 59.3297 103.675C59.7697 104.135 60.1097 104.7 60.3497 105.37C60.5997 106.04 60.7247 106.805 60.7247 107.665ZM58.4447 107.665C58.4447 107.025 58.3747 106.485 58.2347 106.045C58.1047 105.595 57.9247 105.235 57.6947 104.965C57.4647 104.685 57.1947 104.485 56.8847 104.365C56.5747 104.235 56.2447 104.17 55.8947 104.17C55.5447 104.17 55.2147 104.235 54.9047 104.365C54.5947 104.485 54.3247 104.685 54.0947 104.965C53.8747 105.235 53.6997 105.595 53.5697 106.045C53.4397 106.485 53.3747 107.025 53.3747 107.665C53.3747 108.285 53.4397 108.815 53.5697 109.255C53.6997 109.685 53.8747 110.035 54.0947 110.305C54.3247 110.575 54.5947 110.77 54.9047 110.89C55.2147 111.01 55.5447 111.07 55.8947 111.07C56.2447 111.07 56.5747 111.01 56.8847 110.89C57.1947 110.77 57.4647 110.575 57.6947 110.305C57.9247 110.035 58.1047 109.685 58.2347 109.255C58.3747 108.815 58.4447 108.285 58.4447 107.665ZM68.2247 102.94C68.3347 102.81 68.4597 102.7 68.5997 102.61C68.7497 102.51 68.9547 102.46 69.2147 102.46H71.3297L55.5197 123.535C55.4097 123.675 55.2797 123.79 55.1297 123.88C54.9797 123.96 54.7997 124 54.5897 124H52.4147L68.2247 102.94ZM72.7097 118.915C72.7097 119.755 72.5747 120.505 72.3047 121.165C72.0447 121.825 71.6947 122.385 71.2547 122.845C70.8147 123.295 70.2997 123.645 69.7097 123.895C69.1297 124.135 68.5197 124.255 67.8797 124.255C67.1897 124.255 66.5497 124.135 65.9597 123.895C65.3797 123.645 64.8747 123.295 64.4447 122.845C64.0147 122.385 63.6747 121.825 63.4247 121.165C63.1847 120.505 63.0647 119.755 63.0647 118.915C63.0647 118.055 63.1847 117.29 63.4247 116.62C63.6747 115.95 64.0147 115.385 64.4447 114.925C64.8747 114.455 65.3797 114.1 65.9597 113.86C66.5497 113.62 67.1897 113.5 67.8797 113.5C68.5697 113.5 69.2047 113.62 69.7847 113.86C70.3747 114.1 70.8847 114.455 71.3147 114.925C71.7547 115.385 72.0947 115.95 72.3347 116.62C72.5847 117.29 72.7097 118.055 72.7097 118.915ZM70.4297 118.915C70.4297 118.275 70.3597 117.735 70.2197 117.295C70.0897 116.855 69.9097 116.5 69.6797 116.23C69.4497 115.95 69.1797 115.75 68.8697 115.63C68.5597 115.5 68.2297 115.435 67.8797 115.435C67.5197 115.435 67.1847 115.5 66.8747 115.63C66.5747 115.75 66.3097 115.95 66.0797 116.23C65.8597 116.5 65.6847 116.855 65.5547 117.295C65.4247 117.735 65.3597 118.275 65.3597 118.915C65.3597 119.545 65.4247 120.075 65.5547 120.505C65.6847 120.935 65.8597 121.285 66.0797 121.555C66.3097 121.825 66.5747 122.02 66.8747 122.14C67.1847 122.26 67.5197 122.32 67.8797 122.32C68.2297 122.32 68.5597 122.26 68.8697 122.14C69.1797 122.02 69.4497 121.825 69.6797 121.555C69.9097 121.285 70.0897 120.935 70.2197 120.505C70.3597 120.075 70.4297 119.545 70.4297 118.915Z" fill="#B2B2B2"/>
<rect x="12" y="12" width="53" height="50" rx="15" fill="#00349A" fill-opacity="0.5"/>
<path d="M39 49C37.3484 49 35.7929 48.6844 34.3333 48.0533C32.8738 47.4222 31.6027 46.5644 30.52 45.48C29.4356 44.3982 28.5778 43.1271 27.9467 41.6667C27.3156 40.2071 27 38.6516 27 37C27 35.344 27.3156 33.7871 27.9467 32.3293C28.5787 30.8716 29.4364 29.6013 30.52 28.5187C31.6018 27.436 32.8729 26.5791 34.3333 25.948C35.7929 25.316 37.3484 25 39 25C40.656 25 42.2129 25.3156 43.6707 25.9467C45.1284 26.5787 46.3987 27.4364 47.4813 28.52C48.564 29.6027 49.4209 30.8724 50.052 32.3293C50.684 33.7871 51 35.344 51 37C51 38.6516 50.6844 40.2071 50.0533 41.6667C49.4222 43.1262 48.5644 44.3973 47.48 45.48C46.3973 46.5636 45.1276 47.4213 43.6707 48.0533C42.2129 48.6844 40.656 49 39 49ZM39 47.6773C39.7822 46.672 40.4276 45.6849 40.936 44.716C41.4436 43.7471 41.8564 42.6627 42.1747 41.4627H35.8253C36.1773 42.7302 36.5987 43.8484 37.0893 44.8173C37.58 45.7862 38.2169 46.7396 39 47.6773ZM37.3027 47.4773C36.6804 46.744 36.1124 45.8373 35.5987 44.7573C35.0849 43.6782 34.7027 42.5796 34.452 41.4613H29.3373C30.1018 43.12 31.1849 44.48 32.5867 45.5413C33.9893 46.6027 35.5609 47.248 37.3013 47.4773M40.696 47.4773C42.4364 47.248 44.008 46.6027 45.4107 45.5413C46.8133 44.48 47.8964 43.12 48.66 41.4613H43.548C43.2102 42.5964 42.7849 43.704 42.272 44.784C41.7582 45.8631 41.2329 46.7609 40.696 47.4773ZM28.7933 40.128H34.1733C34.072 39.5813 34.0009 39.0484 33.96 38.5293C33.9173 38.0102 33.896 37.5004 33.896 37C33.896 36.4996 33.9169 35.9898 33.9587 35.4707C34.0004 34.9516 34.0716 34.4182 34.172 33.8707H28.796C28.6511 34.3329 28.5378 34.8364 28.456 35.3813C28.3742 35.9262 28.3333 36.4658 28.3333 37C28.3333 37.5351 28.3738 38.0747 28.4547 38.6187C28.5364 39.1636 28.6498 39.6667 28.7947 40.128M35.508 40.128H42.492C42.5933 39.5813 42.6644 39.0569 42.7053 38.5547C42.748 38.0533 42.7693 37.5351 42.7693 37C42.7693 36.4649 42.7484 35.9467 42.7067 35.4453C42.6649 34.9431 42.5938 34.4187 42.4933 33.872H35.5067C35.4062 34.4187 35.3351 34.9431 35.2933 35.4453C35.2516 35.9467 35.2307 36.4649 35.2307 37C35.2307 37.5351 35.2516 38.0533 35.2933 38.5547C35.3351 39.0569 35.4076 39.5813 35.508 40.128ZM43.8267 40.128H49.2053C49.3502 39.6658 49.4636 39.1627 49.5453 38.6187C49.6271 38.0747 49.6676 37.5351 49.6667 37C49.6667 36.4649 49.6262 35.9253 49.5453 35.3813C49.4636 34.8364 49.3502 34.3333 49.2053 33.872H43.8253C43.9267 34.4187 43.9978 34.9516 44.0387 35.4707C44.0813 35.9898 44.1027 36.4996 44.1027 37C44.1027 37.5004 44.0818 38.0102 44.04 38.5293C43.9982 39.0484 43.9271 39.5818 43.8267 40.1293M43.5493 32.5387H48.6613C47.88 30.8462 46.8098 29.4862 45.4507 28.4587C44.0907 27.4311 42.5062 26.7778 40.6973 26.4987C41.3196 27.3164 41.8791 28.2524 42.376 29.3067C42.872 30.36 43.2631 31.4373 43.5493 32.5387ZM35.8253 32.5387H42.1747C41.8227 31.2871 41.3884 30.1556 40.872 29.144C40.3564 28.1316 39.7324 27.1911 39 26.3227C38.2684 27.1911 37.6444 28.1316 37.128 29.144C36.6124 30.1556 36.1782 31.2871 35.8253 32.5387ZM29.3387 32.5387H34.4507C34.7369 31.4373 35.128 30.36 35.624 29.3067C36.1209 28.2524 36.6804 27.316 37.3027 26.4973C35.4769 26.7773 33.8884 27.4351 32.5373 28.4707C31.1862 29.5071 30.1196 30.8627 29.3373 32.5373" fill="#00B3FF"/>
</g>
<defs>
<filter id="filter0_b_177_49" x="-100" y="-100" width="362" height="350" filterUnits="userSpaceOnUse" color-interpolation-filters="sRGB">
<feFlood flood-opacity="0" result="BackgroundImageFix"/>
<feGaussianBlur in="BackgroundImageFix" stdDeviation="50"/>
<feComposite in2="SourceAlpha" operator="in" result="effect1_backgroundBlur_177_49"/>
<feBlend mode="normal" in="SourceGraphic" in2="effect1_backgroundBlur_177_49" result="shape"/>
</filter>
</defs>
</svg>
