<svg width="291" height="147" viewBox="0 0 291 147" fill="none" xmlns="http://www.w3.org/2000/svg">
<g opacity="0.8" filter="url(#filter0_b_177_42)">
<g clip-path="url(#clip0_177_42)">
<rect width="291" height="147" rx="15" fill="#05184B"/>
<path opacity="0.3" fill-rule="evenodd" clip-rule="evenodd" d="M-2 138.579L10.636 135.421C23.2721 132.263 47.4912 125.947 72.7633 114.368C96.9823 101.737 122.254 84.8947 147.527 78.5789C171.746 72.2632 197.018 78.5789 221.237 78.5789C246.509 78.5789 270.728 72.2632 283.364 69.1053L296 67V147H283.364C270.728 147 246.509 147 221.237 147C197.018 147 171.746 147 147.527 147C122.254 147 96.9823 147 72.7633 147C47.4912 147 23.2721 147 10.636 147H-2V138.579Z" fill="#00349A" stroke="#0057FF" stroke-width="2"/>
<path d="M32.176 55.808V57H25.968V55.808H28.4V48.28C28.4 48.04 28.408 47.792 28.424 47.536L26.472 49.192C26.3973 49.2507 26.3227 49.288 26.248 49.304C26.1733 49.32 26.1013 49.3227 26.032 49.312C25.968 49.3013 25.9093 49.28 25.856 49.248C25.808 49.2107 25.768 49.1733 25.736 49.136L25.248 48.456L28.688 45.488H29.96V55.808H32.176ZM34.2573 51.528H38.2573V52.856H34.2573V51.528ZM40.2264 48.64C40.3064 48.1067 40.4557 47.6373 40.6744 47.232C40.893 46.8267 41.1677 46.488 41.4984 46.216C41.829 45.9387 42.2077 45.7307 42.6344 45.592C43.0664 45.4533 43.5304 45.384 44.0264 45.384C44.5224 45.384 44.9784 45.456 45.3944 45.6C45.8104 45.7387 46.165 45.9387 46.4584 46.2C46.757 46.456 46.989 46.7653 47.1544 47.128C47.3197 47.4907 47.4024 47.8907 47.4024 48.328C47.4024 48.696 47.357 49.0213 47.2664 49.304C47.1757 49.5867 47.045 49.8347 46.8744 50.048C46.709 50.2613 46.5064 50.4427 46.2664 50.592C46.0264 50.736 45.757 50.856 45.4584 50.952C46.189 51.1547 46.7384 51.4853 47.1064 51.944C47.4744 52.3973 47.6584 52.9733 47.6584 53.672C47.6584 54.2107 47.557 54.696 47.3544 55.128C47.1517 55.5547 46.8744 55.9173 46.5224 56.216C46.1704 56.5093 45.7597 56.736 45.2904 56.896C44.8264 57.0507 44.3304 57.128 43.8024 57.128C43.1997 57.128 42.6824 57.056 42.2504 56.912C41.8184 56.7627 41.4504 56.5573 41.1464 56.296C40.8424 56.0293 40.589 55.712 40.3864 55.344C40.189 54.9707 40.021 54.5627 39.8824 54.12L40.5624 53.832C40.7384 53.7573 40.909 53.736 41.0744 53.768C41.2397 53.8 41.3597 53.8933 41.4344 54.048C41.5144 54.208 41.605 54.3893 41.7064 54.592C41.813 54.7893 41.9544 54.9787 42.1304 55.16C42.3064 55.336 42.525 55.4853 42.7864 55.608C43.053 55.7307 43.3864 55.792 43.7864 55.792C44.1704 55.792 44.5064 55.7307 44.7944 55.608C45.0824 55.48 45.3224 55.3173 45.5144 55.12C45.7064 54.9173 45.8504 54.6933 45.9464 54.448C46.0424 54.2027 46.0904 53.96 46.0904 53.72C46.0904 53.4213 46.053 53.1467 45.9784 52.896C45.9037 52.6453 45.7597 52.432 45.5464 52.256C45.3384 52.0747 45.0477 51.9333 44.6744 51.832C44.301 51.7307 43.8157 51.68 43.2184 51.68V50.544C43.709 50.5387 44.1224 50.488 44.4584 50.392C44.7997 50.296 45.0744 50.1627 45.2824 49.992C45.4904 49.8213 45.6397 49.6187 45.7304 49.384C45.8264 49.1493 45.8744 48.888 45.8744 48.6C45.8744 48.2853 45.8264 48.0107 45.7304 47.776C45.6344 47.5413 45.4984 47.3467 45.3224 47.192C45.1517 47.032 44.9464 46.9147 44.7064 46.84C44.4717 46.76 44.2157 46.72 43.9384 46.72C43.661 46.72 43.405 46.76 43.1704 46.84C42.9357 46.92 42.7277 47.032 42.5464 47.176C42.365 47.32 42.213 47.4907 42.0904 47.688C41.9677 47.8853 41.8797 48.0987 41.8264 48.328C41.7517 48.5307 41.6557 48.6667 41.5384 48.736C41.4264 48.8053 41.2637 48.8213 41.0504 48.784L40.2264 48.64ZM57.3316 51.256C57.3316 52.2587 57.2223 53.128 57.0036 53.864C56.7903 54.6 56.4943 55.2107 56.1156 55.696C55.7423 56.176 55.2996 56.5333 54.7876 56.768C54.281 57.0027 53.7343 57.12 53.1476 57.12C52.561 57.12 52.0116 57.0027 51.4996 56.768C50.993 56.5333 50.553 56.176 50.1796 55.696C49.8063 55.2107 49.513 54.6 49.2996 53.864C49.0863 53.128 48.9796 52.2587 48.9796 51.256C48.9796 50.2533 49.0863 49.384 49.2996 48.648C49.513 47.9067 49.8063 47.296 50.1796 46.816C50.553 46.3307 50.993 45.9707 51.4996 45.736C52.0116 45.5013 52.561 45.384 53.1476 45.384C53.7343 45.384 54.281 45.5013 54.7876 45.736C55.2996 45.9707 55.7423 46.3307 56.1156 46.816C56.4943 47.296 56.7903 47.9067 57.0036 48.648C57.2223 49.384 57.3316 50.2533 57.3316 51.256ZM55.7156 51.256C55.7156 50.392 55.6436 49.6693 55.4996 49.088C55.361 48.5067 55.1716 48.04 54.9316 47.688C54.697 47.3307 54.425 47.0773 54.1156 46.928C53.8063 46.7787 53.4836 46.704 53.1476 46.704C52.8116 46.704 52.489 46.7787 52.1796 46.928C51.8703 47.0773 51.5956 47.3307 51.3556 47.688C51.121 48.04 50.9343 48.5067 50.7956 49.088C50.657 49.6693 50.5876 50.392 50.5876 51.256C50.5876 52.12 50.657 52.8427 50.7956 53.424C50.9343 54.0053 51.121 54.472 51.3556 54.824C51.5956 55.176 51.8703 55.4267 52.1796 55.576C52.489 55.7253 52.8116 55.8 53.1476 55.8C53.4836 55.8 53.8063 55.7253 54.1156 55.576C54.425 55.4267 54.697 55.176 54.9316 54.824C55.1716 54.472 55.361 54.0053 55.4996 53.424C55.6436 52.8427 55.7156 52.12 55.7156 51.256ZM64.5718 48.872V57.512C64.5718 57.848 64.5264 58.16 64.4358 58.448C64.3504 58.7413 64.2118 58.9947 64.0198 59.208C63.8331 59.4267 63.5878 59.5973 63.2838 59.72C62.9851 59.8427 62.6224 59.904 62.1958 59.904C62.0198 59.904 61.8598 59.8907 61.7157 59.864C61.5664 59.8373 61.4171 59.8 61.2677 59.752L61.3317 58.904C61.3531 58.8027 61.4011 58.7467 61.4757 58.736C61.5451 58.7253 61.6811 58.72 61.8838 58.72C62.2944 58.72 62.5851 58.6267 62.7558 58.44C62.9264 58.2533 63.0118 57.944 63.0118 57.512V48.872H64.5718ZM64.8678 46.36C64.8678 46.504 64.8384 46.6427 64.7798 46.776C64.7211 46.904 64.6411 47.0187 64.5398 47.12C64.4384 47.216 64.3211 47.2933 64.1878 47.352C64.0598 47.4053 63.9211 47.432 63.7718 47.432C63.6278 47.432 63.4918 47.4053 63.3638 47.352C63.2358 47.2933 63.1211 47.216 63.0197 47.12C62.9238 47.0187 62.8464 46.904 62.7878 46.776C62.7344 46.6427 62.7078 46.504 62.7078 46.36C62.7078 46.2107 62.7344 46.072 62.7878 45.944C62.8464 45.8107 62.9238 45.696 63.0197 45.6C63.1211 45.4987 63.2358 45.4213 63.3638 45.368C63.4918 45.3093 63.6278 45.28 63.7718 45.28C63.9211 45.28 64.0598 45.3093 64.1878 45.368C64.3211 45.4213 64.4384 45.4987 64.5398 45.6C64.6411 45.696 64.7211 45.8107 64.7798 45.944C64.8384 46.072 64.8678 46.2107 64.8678 46.36ZM73.5904 48.872V57H72.6544C72.441 57 72.3024 56.896 72.2384 56.688L72.1264 55.872C71.9504 56.0587 71.7664 56.2293 71.5744 56.384C71.3824 56.5387 71.177 56.672 70.9584 56.784C70.7397 56.8907 70.5077 56.9733 70.2624 57.032C70.017 57.096 69.753 57.128 69.4704 57.128C69.0224 57.128 68.6277 57.0533 68.2864 56.904C67.9504 56.7547 67.6677 56.5467 67.4384 56.28C67.209 56.008 67.0357 55.6827 66.9184 55.304C66.801 54.9253 66.7424 54.5067 66.7424 54.048V48.872H68.3104V54.048C68.3104 54.6293 68.4437 55.0827 68.7104 55.408C68.977 55.728 69.385 55.888 69.9344 55.888C70.3344 55.888 70.7077 55.7947 71.0544 55.608C71.401 55.416 71.7264 55.1547 72.0304 54.824V48.872H73.5904ZM77.3679 45.192V57H75.7999V45.192H77.3679ZM90.4349 55.52C90.6055 55.52 90.7389 55.5707 90.8349 55.672C90.9309 55.768 90.9789 55.896 90.9789 56.056V57H83.2669V56.464C83.2669 56.3573 83.2882 56.2453 83.3309 56.128C83.3735 56.0053 83.4455 55.896 83.5469 55.8L87.1789 52.16C87.4829 51.856 87.7575 51.5627 88.0029 51.28C88.2482 50.9973 88.4562 50.7173 88.6269 50.44C88.7975 50.1573 88.9282 49.8693 89.0189 49.576C89.1149 49.2827 89.1629 48.9733 89.1629 48.648C89.1629 48.328 89.1122 48.048 89.0109 47.808C88.9095 47.5627 88.7709 47.36 88.5949 47.2C88.4189 47.04 88.2109 46.92 87.9709 46.84C87.7309 46.76 87.4722 46.72 87.1949 46.72C86.9175 46.72 86.6615 46.76 86.4269 46.84C86.1975 46.92 85.9922 47.032 85.8109 47.176C85.6295 47.32 85.4775 47.4907 85.3549 47.688C85.2322 47.8853 85.1442 48.0987 85.0909 48.328C85.0162 48.5307 84.9202 48.6667 84.8029 48.736C84.6909 48.8053 84.5255 48.8213 84.3069 48.784L83.4909 48.64C83.5655 48.1067 83.7122 47.6373 83.9309 47.232C84.1495 46.8267 84.4242 46.488 84.7549 46.216C85.0855 45.9387 85.4642 45.7307 85.8909 45.592C86.3229 45.4533 86.7869 45.384 87.2829 45.384C87.7842 45.384 88.2455 45.4587 88.6669 45.608C89.0935 45.752 89.4615 45.9627 89.7709 46.24C90.0802 46.5173 90.3229 46.856 90.4989 47.256C90.6749 47.6507 90.7629 48.0987 90.7629 48.6C90.7629 49.0267 90.6989 49.424 90.5709 49.792C90.4482 50.1547 90.2775 50.5013 90.0589 50.832C89.8455 51.1627 89.5949 51.4853 89.3069 51.8C89.0242 52.1093 88.7229 52.424 88.4029 52.744L85.4909 55.72C85.7149 55.6613 85.9389 55.6133 86.1629 55.576C86.3922 55.5387 86.6082 55.52 86.8109 55.52H90.4349ZM100.644 51.256C100.644 52.2587 100.535 53.128 100.316 53.864C100.103 54.6 99.8068 55.2107 99.4281 55.696C99.0548 56.176 98.6121 56.5333 98.1001 56.768C97.5935 57.0027 97.0468 57.12 96.4601 57.12C95.8735 57.12 95.3241 57.0027 94.8121 56.768C94.3055 56.5333 93.8655 56.176 93.4921 55.696C93.1188 55.2107 92.8255 54.6 92.6121 53.864C92.3988 53.128 92.2921 52.2587 92.2921 51.256C92.2921 50.2533 92.3988 49.384 92.6121 48.648C92.8255 47.9067 93.1188 47.296 93.4921 46.816C93.8655 46.3307 94.3055 45.9707 94.8121 45.736C95.3241 45.5013 95.8735 45.384 96.4601 45.384C97.0468 45.384 97.5935 45.5013 98.1001 45.736C98.6121 45.9707 99.0548 46.3307 99.4281 46.816C99.8068 47.296 100.103 47.9067 100.316 48.648C100.535 49.384 100.644 50.2533 100.644 51.256ZM99.0281 51.256C99.0281 50.392 98.9561 49.6693 98.8121 49.088C98.6735 48.5067 98.4841 48.04 98.2441 47.688C98.0095 47.3307 97.7375 47.0773 97.4281 46.928C97.1188 46.7787 96.7961 46.704 96.4601 46.704C96.1241 46.704 95.8015 46.7787 95.4921 46.928C95.1828 47.0773 94.9081 47.3307 94.6681 47.688C94.4335 48.04 94.2468 48.5067 94.1081 49.088C93.9695 49.6693 93.9001 50.392 93.9001 51.256C93.9001 52.12 93.9695 52.8427 94.1081 53.424C94.2468 54.0053 94.4335 54.472 94.6681 54.824C94.9081 55.176 95.1828 55.4267 95.4921 55.576C95.8015 55.7253 96.1241 55.8 96.4601 55.8C96.7961 55.8 97.1188 55.7253 97.4281 55.576C97.7375 55.4267 98.0095 55.176 98.2441 54.824C98.4841 54.472 98.6735 54.0053 98.8121 53.424C98.9561 52.8427 99.0281 52.12 99.0281 51.256ZM108.997 55.52C109.168 55.52 109.301 55.5707 109.397 55.672C109.493 55.768 109.541 55.896 109.541 56.056V57H101.829V56.464C101.829 56.3573 101.851 56.2453 101.893 56.128C101.936 56.0053 102.008 55.896 102.109 55.8L105.741 52.16C106.045 51.856 106.32 51.5627 106.565 51.28C106.811 50.9973 107.019 50.7173 107.189 50.44C107.36 50.1573 107.491 49.8693 107.581 49.576C107.677 49.2827 107.725 48.9733 107.725 48.648C107.725 48.328 107.675 48.048 107.573 47.808C107.472 47.5627 107.333 47.36 107.157 47.2C106.981 47.04 106.773 46.92 106.533 46.84C106.293 46.76 106.035 46.72 105.757 46.72C105.48 46.72 105.224 46.76 104.989 46.84C104.76 46.92 104.555 47.032 104.373 47.176C104.192 47.32 104.04 47.4907 103.917 47.688C103.795 47.8853 103.707 48.0987 103.653 48.328C103.579 48.5307 103.483 48.6667 103.365 48.736C103.253 48.8053 103.088 48.8213 102.869 48.784L102.053 48.64C102.128 48.1067 102.275 47.6373 102.493 47.232C102.712 46.8267 102.987 46.488 103.317 46.216C103.648 45.9387 104.027 45.7307 104.453 45.592C104.885 45.4533 105.349 45.384 105.845 45.384C106.347 45.384 106.808 45.4587 107.229 45.608C107.656 45.752 108.024 45.9627 108.333 46.24C108.643 46.5173 108.885 46.856 109.061 47.256C109.237 47.6507 109.325 48.0987 109.325 48.6C109.325 49.0267 109.261 49.424 109.133 49.792C109.011 50.1547 108.84 50.5013 108.621 50.832C108.408 51.1627 108.157 51.4853 107.869 51.8C107.587 52.1093 107.285 52.424 106.965 52.744L104.053 55.72C104.277 55.6613 104.501 55.6133 104.725 55.576C104.955 55.5387 105.171 55.52 105.373 55.52H108.997ZM111.383 48.64C111.463 48.1067 111.612 47.6373 111.831 47.232C112.049 46.8267 112.324 46.488 112.655 46.216C112.985 45.9387 113.364 45.7307 113.791 45.592C114.223 45.4533 114.687 45.384 115.183 45.384C115.679 45.384 116.135 45.456 116.551 45.6C116.967 45.7387 117.321 45.9387 117.615 46.2C117.913 46.456 118.145 46.7653 118.311 47.128C118.476 47.4907 118.559 47.8907 118.559 48.328C118.559 48.696 118.513 49.0213 118.423 49.304C118.332 49.5867 118.201 49.8347 118.031 50.048C117.865 50.2613 117.663 50.4427 117.423 50.592C117.183 50.736 116.913 50.856 116.615 50.952C117.345 51.1547 117.895 51.4853 118.263 51.944C118.631 52.3973 118.815 52.9733 118.815 53.672C118.815 54.2107 118.713 54.696 118.511 55.128C118.308 55.5547 118.031 55.9173 117.679 56.216C117.327 56.5093 116.916 56.736 116.447 56.896C115.983 57.0507 115.487 57.128 114.959 57.128C114.356 57.128 113.839 57.056 113.407 56.912C112.975 56.7627 112.607 56.5573 112.303 56.296C111.999 56.0293 111.745 55.712 111.543 55.344C111.345 54.9707 111.177 54.5627 111.039 54.12L111.719 53.832C111.895 53.7573 112.065 53.736 112.231 53.768C112.396 53.8 112.516 53.8933 112.591 54.048C112.671 54.208 112.761 54.3893 112.863 54.592C112.969 54.7893 113.111 54.9787 113.287 55.16C113.463 55.336 113.681 55.4853 113.943 55.608C114.209 55.7307 114.543 55.792 114.943 55.792C115.327 55.792 115.663 55.7307 115.951 55.608C116.239 55.48 116.479 55.3173 116.671 55.12C116.863 54.9173 117.007 54.6933 117.103 54.448C117.199 54.2027 117.247 53.96 117.247 53.72C117.247 53.4213 117.209 53.1467 117.135 52.896C117.06 52.6453 116.916 52.432 116.703 52.256C116.495 52.0747 116.204 51.9333 115.831 51.832C115.457 51.7307 114.972 51.68 114.375 51.68V50.544C114.865 50.5387 115.279 50.488 115.615 50.392C115.956 50.296 116.231 50.1627 116.439 49.992C116.647 49.8213 116.796 49.6187 116.887 49.384C116.983 49.1493 117.031 48.888 117.031 48.6C117.031 48.2853 116.983 48.0107 116.887 47.776C116.791 47.5413 116.655 47.3467 116.479 47.192C116.308 47.032 116.103 46.9147 115.863 46.84C115.628 46.76 115.372 46.72 115.095 46.72C114.817 46.72 114.561 46.76 114.327 46.84C114.092 46.92 113.884 47.032 113.703 47.176C113.521 47.32 113.369 47.4907 113.247 47.688C113.124 47.8853 113.036 48.0987 112.983 48.328C112.908 48.5307 112.812 48.6667 112.695 48.736C112.583 48.8053 112.42 48.8213 112.207 48.784L111.383 48.64Z" fill="#B2B2B2"/>
<path d="M224.31 49.015H222.295V51.14H221.5V49.015H219.495V48.275H221.5V46.16H222.295V48.275H224.31V49.015ZM225.421 46.775C225.471 46.4417 225.564 46.1483 225.701 45.895C225.837 45.6417 226.009 45.43 226.216 45.26C226.422 45.0867 226.659 44.9567 226.926 44.87C227.196 44.7833 227.486 44.74 227.796 44.74C228.106 44.74 228.391 44.785 228.651 44.875C228.911 44.9617 229.132 45.0867 229.316 45.25C229.502 45.41 229.647 45.6033 229.751 45.83C229.854 46.0567 229.906 46.3067 229.906 46.58C229.906 46.81 229.877 47.0133 229.821 47.19C229.764 47.3667 229.682 47.5217 229.576 47.655C229.472 47.7883 229.346 47.9017 229.196 47.995C229.046 48.085 228.877 48.16 228.691 48.22C229.147 48.3467 229.491 48.5533 229.721 48.84C229.951 49.1233 230.066 49.4833 230.066 49.92C230.066 50.2567 230.002 50.56 229.876 50.83C229.749 51.0967 229.576 51.3233 229.356 51.51C229.136 51.6933 228.879 51.835 228.586 51.935C228.296 52.0317 227.986 52.08 227.656 52.08C227.279 52.08 226.956 52.035 226.686 51.945C226.416 51.8517 226.186 51.7233 225.996 51.56C225.806 51.3933 225.647 51.195 225.521 50.965C225.397 50.7317 225.292 50.4767 225.206 50.2L225.631 50.02C225.741 49.9733 225.847 49.96 225.951 49.98C226.054 50 226.129 50.0583 226.176 50.155C226.226 50.255 226.282 50.3683 226.346 50.495C226.412 50.6183 226.501 50.7367 226.611 50.85C226.721 50.96 226.857 51.0533 227.021 51.13C227.187 51.2067 227.396 51.245 227.646 51.245C227.886 51.245 228.096 51.2067 228.276 51.13C228.456 51.05 228.606 50.9483 228.726 50.825C228.846 50.6983 228.936 50.5583 228.996 50.405C229.056 50.2517 229.086 50.1 229.086 49.95C229.086 49.7633 229.062 49.5917 229.016 49.435C228.969 49.2783 228.879 49.145 228.746 49.035C228.616 48.9217 228.434 48.8333 228.201 48.77C227.967 48.7067 227.664 48.675 227.291 48.675V47.965C227.597 47.9617 227.856 47.93 228.066 47.87C228.279 47.81 228.451 47.7267 228.581 47.62C228.711 47.5133 228.804 47.3867 228.861 47.24C228.921 47.0933 228.951 46.93 228.951 46.75C228.951 46.5533 228.921 46.3817 228.861 46.235C228.801 46.0883 228.716 45.9667 228.606 45.87C228.499 45.77 228.371 45.6967 228.221 45.65C228.074 45.6 227.914 45.575 227.741 45.575C227.567 45.575 227.407 45.6 227.261 45.65C227.114 45.7 226.984 45.77 226.871 45.86C226.757 45.95 226.662 46.0567 226.586 46.18C226.509 46.3033 226.454 46.4367 226.421 46.58C226.374 46.7067 226.314 46.7917 226.241 46.835C226.171 46.8783 226.069 46.8883 225.936 46.865L225.421 46.775ZM235.712 51.255V52H231.832V51.255H233.352V46.55C233.352 46.4 233.357 46.245 233.367 46.085L232.147 47.12C232.1 47.1567 232.053 47.18 232.007 47.19C231.96 47.2 231.915 47.2017 231.872 47.195C231.832 47.1883 231.795 47.175 231.762 47.155C231.732 47.1317 231.707 47.1083 231.687 47.085L231.382 46.66L233.532 44.805H234.327V51.255H235.712ZM236.927 51.415C236.927 51.325 236.944 51.24 236.977 51.16C237.011 51.08 237.056 51.01 237.112 50.95C237.172 50.89 237.242 50.8433 237.322 50.81C237.402 50.7733 237.489 50.755 237.582 50.755C237.672 50.755 237.757 50.7733 237.837 50.81C237.917 50.8433 237.987 50.89 238.047 50.95C238.107 51.01 238.154 51.08 238.187 51.16C238.224 51.24 238.242 51.325 238.242 51.415C238.242 51.5083 238.224 51.595 238.187 51.675C238.154 51.755 238.107 51.825 238.047 51.885C237.987 51.945 237.917 51.9917 237.837 52.025C237.757 52.0583 237.672 52.075 237.582 52.075C237.489 52.075 237.402 52.0583 237.322 52.025C237.242 51.9917 237.172 51.945 237.112 51.885C237.056 51.825 237.011 51.755 236.977 51.675C236.944 51.595 236.927 51.5083 236.927 51.415ZM243.696 51.075C243.802 51.075 243.886 51.1067 243.946 51.17C244.006 51.23 244.036 51.31 244.036 51.41V52H239.216V51.665C239.216 51.5983 239.229 51.5283 239.256 51.455C239.282 51.3783 239.327 51.31 239.391 51.25L241.661 48.975C241.851 48.785 242.022 48.6017 242.176 48.425C242.329 48.2483 242.459 48.0733 242.566 47.9C242.672 47.7233 242.754 47.5433 242.811 47.36C242.871 47.1767 242.901 46.9833 242.901 46.78C242.901 46.58 242.869 46.405 242.806 46.255C242.742 46.1017 242.656 45.975 242.546 45.875C242.436 45.775 242.306 45.7 242.156 45.65C242.006 45.6 241.844 45.575 241.671 45.575C241.497 45.575 241.337 45.6 241.191 45.65C241.047 45.7 240.919 45.77 240.806 45.86C240.692 45.95 240.597 46.0567 240.521 46.18C240.444 46.3033 240.389 46.4367 240.356 46.58C240.309 46.7067 240.249 46.7917 240.176 46.835C240.106 46.8783 240.002 46.8883 239.866 46.865L239.356 46.775C239.402 46.4417 239.494 46.1483 239.631 45.895C239.767 45.6417 239.939 45.43 240.146 45.26C240.352 45.0867 240.589 44.9567 240.856 44.87C241.126 44.7833 241.416 44.74 241.726 44.74C242.039 44.74 242.327 44.7867 242.591 44.88C242.857 44.97 243.087 45.1017 243.281 45.275C243.474 45.4483 243.626 45.66 243.736 45.91C243.846 46.1567 243.901 46.4367 243.901 46.75C243.901 47.0167 243.861 47.265 243.781 47.495C243.704 47.7217 243.597 47.9383 243.461 48.145C243.327 48.3517 243.171 48.5533 242.991 48.75C242.814 48.9433 242.626 49.14 242.426 49.34L240.606 51.2C240.746 51.1633 240.886 51.1333 241.026 51.11C241.169 51.0867 241.304 51.075 241.431 51.075H243.696ZM247.466 51.305C247.693 51.305 247.895 51.2733 248.071 51.21C248.248 51.1467 248.398 51.0583 248.521 50.945C248.645 50.8283 248.738 50.69 248.801 50.53C248.865 50.37 248.896 50.195 248.896 50.005C248.896 49.7717 248.858 49.5717 248.781 49.405C248.705 49.235 248.601 49.0967 248.471 48.99C248.341 48.88 248.19 48.8 248.016 48.75C247.843 48.6967 247.66 48.67 247.466 48.67C247.27 48.67 247.085 48.6967 246.911 48.75C246.738 48.8 246.586 48.88 246.456 48.99C246.326 49.0967 246.223 49.235 246.146 49.405C246.073 49.5717 246.036 49.7717 246.036 50.005C246.036 50.195 246.068 50.37 246.131 50.53C246.195 50.69 246.288 50.8283 246.411 50.945C246.535 51.0583 246.685 51.1467 246.861 51.21C247.038 51.2733 247.24 51.305 247.466 51.305ZM247.466 45.49C247.26 45.49 247.078 45.5217 246.921 45.585C246.768 45.645 246.64 45.7283 246.536 45.835C246.433 45.9417 246.355 46.065 246.301 46.205C246.251 46.345 246.226 46.495 246.226 46.655C246.226 46.8117 246.248 46.965 246.291 47.115C246.338 47.2617 246.41 47.3933 246.506 47.51C246.606 47.6233 246.735 47.715 246.891 47.785C247.048 47.855 247.24 47.89 247.466 47.89C247.69 47.89 247.88 47.855 248.036 47.785C248.196 47.715 248.325 47.6233 248.421 47.51C248.521 47.3933 248.593 47.2617 248.636 47.115C248.683 46.965 248.706 46.8117 248.706 46.655C248.706 46.495 248.68 46.345 248.626 46.205C248.576 46.065 248.5 45.9417 248.396 45.835C248.293 45.7283 248.163 45.645 248.006 45.585C247.853 45.5217 247.673 45.49 247.466 45.49ZM248.541 48.255C248.988 48.3883 249.326 48.6033 249.556 48.9C249.79 49.1967 249.906 49.5717 249.906 50.025C249.906 50.3383 249.846 50.6217 249.726 50.875C249.61 51.1283 249.443 51.345 249.226 51.525C249.013 51.7017 248.756 51.8383 248.456 51.935C248.156 52.0317 247.826 52.08 247.466 52.08C247.106 52.08 246.776 52.0317 246.476 51.935C246.176 51.8383 245.918 51.7017 245.701 51.525C245.488 51.345 245.321 51.1283 245.201 50.875C245.085 50.6217 245.026 50.3383 245.026 50.025C245.026 49.5717 245.141 49.1967 245.371 48.9C245.605 48.6033 245.945 48.3883 246.391 48.255C246.021 48.115 245.743 47.9067 245.556 47.63C245.37 47.35 245.276 47.0183 245.276 46.635C245.276 46.3683 245.328 46.12 245.431 45.89C245.538 45.6567 245.686 45.455 245.876 45.285C246.07 45.115 246.301 44.9817 246.571 44.885C246.841 44.7883 247.14 44.74 247.466 44.74C247.793 44.74 248.091 44.7883 248.361 44.885C248.631 44.9817 248.861 45.115 249.051 45.285C249.245 45.455 249.393 45.6567 249.496 45.89C249.603 46.12 249.656 46.3683 249.656 46.635C249.656 47.0183 249.563 47.35 249.376 47.63C249.19 47.9067 248.911 48.115 248.541 48.255ZM254.007 46.555C254.007 46.835 253.962 47.085 253.872 47.305C253.786 47.525 253.669 47.7117 253.522 47.865C253.376 48.015 253.204 48.1317 253.007 48.215C252.814 48.295 252.611 48.335 252.397 48.335C252.167 48.335 251.954 48.295 251.757 48.215C251.564 48.1317 251.396 48.015 251.252 47.865C251.109 47.7117 250.996 47.525 250.912 47.305C250.832 47.085 250.792 46.835 250.792 46.555C250.792 46.2683 250.832 46.0133 250.912 45.79C250.996 45.5667 251.109 45.3783 251.252 45.225C251.396 45.0683 251.564 44.95 251.757 44.87C251.954 44.7867 252.167 44.745 252.397 44.745C252.627 44.745 252.839 44.7867 253.032 44.87C253.229 44.95 253.399 45.0683 253.542 45.225C253.689 45.3783 253.802 45.5667 253.882 45.79C253.966 46.0133 254.007 46.2683 254.007 46.555ZM253.247 46.555C253.247 46.3417 253.224 46.1617 253.177 46.015C253.134 45.865 253.074 45.745 252.997 45.655C252.921 45.5617 252.831 45.495 252.727 45.455C252.624 45.4117 252.514 45.39 252.397 45.39C252.281 45.39 252.171 45.4117 252.067 45.455C251.964 45.495 251.874 45.5617 251.797 45.655C251.724 45.745 251.666 45.865 251.622 46.015C251.579 46.1617 251.557 46.3417 251.557 46.555C251.557 46.7617 251.579 46.9383 251.622 47.085C251.666 47.2283 251.724 47.345 251.797 47.435C251.874 47.525 251.964 47.59 252.067 47.63C252.171 47.67 252.281 47.69 252.397 47.69C252.514 47.69 252.624 47.67 252.727 47.63C252.831 47.59 252.921 47.525 252.997 47.435C253.074 47.345 253.134 47.2283 253.177 47.085C253.224 46.9383 253.247 46.7617 253.247 46.555ZM256.507 44.98C256.544 44.9367 256.586 44.9 256.632 44.87C256.682 44.8367 256.751 44.82 256.837 44.82H257.542L252.272 51.845C252.236 51.8917 252.192 51.93 252.142 51.96C252.092 51.9867 252.032 52 251.962 52H251.237L256.507 44.98ZM258.002 50.305C258.002 50.585 257.957 50.835 257.867 51.055C257.781 51.275 257.664 51.4617 257.517 51.615C257.371 51.765 257.199 51.8817 257.002 51.965C256.809 52.045 256.606 52.085 256.392 52.085C256.162 52.085 255.949 52.045 255.752 51.965C255.559 51.8817 255.391 51.765 255.247 51.615C255.104 51.4617 254.991 51.275 254.907 51.055C254.827 50.835 254.787 50.585 254.787 50.305C254.787 50.0183 254.827 49.7633 254.907 49.54C254.991 49.3167 255.104 49.1283 255.247 48.975C255.391 48.8183 255.559 48.7 255.752 48.62C255.949 48.54 256.162 48.5 256.392 48.5C256.622 48.5 256.834 48.54 257.027 48.62C257.224 48.7 257.394 48.8183 257.537 48.975C257.684 49.1283 257.797 49.3167 257.877 49.54C257.961 49.7633 258.002 50.0183 258.002 50.305ZM257.242 50.305C257.242 50.0917 257.219 49.9117 257.172 49.765C257.129 49.6183 257.069 49.5 256.992 49.41C256.916 49.3167 256.826 49.25 256.722 49.21C256.619 49.1667 256.509 49.145 256.392 49.145C256.272 49.145 256.161 49.1667 256.057 49.21C255.957 49.25 255.869 49.3167 255.792 49.41C255.719 49.5 255.661 49.6183 255.617 49.765C255.574 49.9117 255.552 50.0917 255.552 50.305C255.552 50.515 255.574 50.6917 255.617 50.835C255.661 50.9783 255.719 51.095 255.792 51.185C255.869 51.275 255.957 51.34 256.057 51.38C256.161 51.42 256.272 51.44 256.392 51.44C256.509 51.44 256.619 51.42 256.722 51.38C256.826 51.34 256.916 51.275 256.992 51.185C257.069 51.095 257.129 50.9783 257.172 50.835C257.219 50.6917 257.242 50.515 257.242 50.305Z" fill="#B2B2B2"/>
<path d="M31.464 91.984C32.416 91.872 33.136 91.56 33.624 91.048C34.12 90.536 34.368 89.876 34.368 89.068C34.368 88.724 34.304 88.424 34.176 88.168C34.048 87.912 33.872 87.688 33.648 87.496C33.432 87.304 33.172 87.14 32.868 87.004C32.564 86.86 32.236 86.728 31.884 86.608L31.464 91.984ZM30.876 78.772C30.396 78.82 29.984 78.92 29.64 79.072C29.296 79.216 29.012 79.396 28.788 79.612C28.564 79.82 28.4 80.056 28.296 80.32C28.192 80.584 28.14 80.864 28.14 81.16C28.14 81.496 28.2 81.792 28.32 82.048C28.44 82.304 28.604 82.532 28.812 82.732C29.028 82.924 29.28 83.096 29.568 83.248C29.856 83.392 30.168 83.528 30.504 83.656L30.876 78.772ZM32.076 84.16C32.652 84.336 33.22 84.532 33.78 84.748C34.348 84.956 34.856 85.228 35.304 85.564C35.752 85.892 36.112 86.304 36.384 86.8C36.664 87.296 36.804 87.916 36.804 88.66C36.804 89.388 36.68 90.076 36.432 90.724C36.192 91.364 35.836 91.932 35.364 92.428C34.892 92.916 34.312 93.316 33.624 93.628C32.944 93.932 32.168 94.112 31.296 94.168L31.152 96.088C31.144 96.256 31.076 96.408 30.948 96.544C30.82 96.688 30.656 96.76 30.456 96.76H29.496L29.7 94.132C28.756 94.02 27.876 93.772 27.06 93.388C26.252 92.996 25.56 92.508 24.984 91.924L25.764 90.736C25.836 90.632 25.928 90.548 26.04 90.484C26.16 90.412 26.288 90.376 26.424 90.376C26.592 90.376 26.772 90.444 26.964 90.58C27.164 90.716 27.396 90.876 27.66 91.06C27.924 91.236 28.236 91.412 28.596 91.588C28.956 91.756 29.38 91.88 29.868 91.96L30.312 86.14C29.752 85.972 29.196 85.784 28.644 85.576C28.1 85.36 27.608 85.076 27.168 84.724C26.736 84.372 26.384 83.932 26.112 83.404C25.848 82.876 25.716 82.212 25.716 81.412C25.716 80.812 25.832 80.228 26.064 79.66C26.304 79.092 26.648 78.588 27.096 78.148C27.552 77.7 28.112 77.336 28.776 77.056C29.44 76.768 30.2 76.604 31.056 76.564L31.176 74.956C31.184 74.78 31.252 74.624 31.38 74.488C31.508 74.352 31.672 74.284 31.872 74.284H32.832L32.652 76.636C33.492 76.756 34.22 76.988 34.836 77.332C35.452 77.668 35.988 78.06 36.444 78.508L35.82 79.468C35.644 79.748 35.428 79.888 35.172 79.888C35.052 79.888 34.908 79.844 34.74 79.756C34.58 79.668 34.388 79.564 34.164 79.444C33.948 79.324 33.7 79.204 33.42 79.084C33.14 78.964 32.828 78.872 32.484 78.808L32.076 84.16ZM42.3379 81.856C42.3379 82.88 42.6099 83.668 43.1539 84.22C43.7059 84.764 44.4739 85.036 45.4579 85.036C45.9859 85.036 46.4499 84.952 46.8499 84.784C47.2579 84.616 47.6019 84.392 47.8819 84.112C48.1619 83.824 48.3739 83.492 48.5179 83.116C48.6619 82.732 48.7339 82.324 48.7339 81.892C48.7339 81.388 48.6539 80.94 48.4939 80.548C48.3419 80.148 48.1219 79.808 47.8339 79.528C47.5539 79.248 47.2179 79.036 46.8259 78.892C46.4339 78.74 46.0059 78.664 45.5419 78.664C45.0539 78.664 44.6139 78.744 44.2219 78.904C43.8299 79.064 43.4939 79.288 43.2139 79.576C42.9339 79.856 42.7179 80.192 42.5659 80.584C42.4139 80.968 42.3379 81.392 42.3379 81.856ZM46.7659 87.22C46.9259 87.02 47.0739 86.832 47.2099 86.656C47.3459 86.472 47.4739 86.288 47.5939 86.104C47.1779 86.4 46.7139 86.628 46.2019 86.788C45.6899 86.94 45.1459 87.016 44.5699 87.016C43.9459 87.016 43.3459 86.912 42.7699 86.704C42.1939 86.488 41.6819 86.172 41.2339 85.756C40.7859 85.332 40.4259 84.812 40.1539 84.196C39.8899 83.572 39.7579 82.856 39.7579 82.048C39.7579 81.288 39.8979 80.572 40.1779 79.9C40.4659 79.228 40.8659 78.644 41.3779 78.148C41.8899 77.644 42.5019 77.248 43.2139 76.96C43.9259 76.672 44.7139 76.528 45.5779 76.528C46.4339 76.528 47.2099 76.668 47.9059 76.948C48.6019 77.22 49.1939 77.608 49.6819 78.112C50.1699 78.608 50.5459 79.204 50.8099 79.9C51.0739 80.588 51.2059 81.348 51.2059 82.18C51.2059 82.7 51.1579 83.192 51.0619 83.656C50.9739 84.12 50.8419 84.572 50.6659 85.012C50.4979 85.444 50.2899 85.872 50.0419 86.296C49.8019 86.712 49.5299 87.136 49.2259 87.568L45.1579 93.4C45.0379 93.576 44.8579 93.72 44.6179 93.832C44.3859 93.944 44.1219 94 43.8259 94H41.4619L46.7659 87.22ZM60.2438 92.152C60.7638 92.152 61.2278 92.08 61.6358 91.936C62.0438 91.784 62.3838 91.576 62.6558 91.312C62.9358 91.04 63.1478 90.72 63.2918 90.352C63.4358 89.984 63.5078 89.584 63.5078 89.152C63.5078 88.624 63.4238 88.168 63.2558 87.784C63.0958 87.4 62.8678 87.084 62.5718 86.836C62.2838 86.58 61.9398 86.392 61.5398 86.272C61.1398 86.144 60.7078 86.08 60.2438 86.08C59.7798 86.08 59.3478 86.144 58.9478 86.272C58.5478 86.392 58.1998 86.58 57.9038 86.836C57.6158 87.084 57.3878 87.4 57.2198 87.784C57.0598 88.168 56.9798 88.624 56.9798 89.152C56.9798 89.584 57.0518 89.984 57.1958 90.352C57.3398 90.72 57.5478 91.04 57.8198 91.312C58.0998 91.576 58.4438 91.784 58.8518 91.936C59.2598 92.08 59.7238 92.152 60.2438 92.152ZM60.2438 78.508C59.7718 78.508 59.3558 78.58 58.9958 78.724C58.6438 78.868 58.3518 79.06 58.1198 79.3C57.8878 79.54 57.7118 79.824 57.5918 80.152C57.4798 80.472 57.4238 80.812 57.4238 81.172C57.4238 81.532 57.4718 81.884 57.5678 82.228C57.6718 82.572 57.8318 82.88 58.0478 83.152C58.2718 83.416 58.5638 83.628 58.9238 83.788C59.2838 83.948 59.7238 84.028 60.2438 84.028C60.7638 84.028 61.2038 83.948 61.5638 83.788C61.9238 83.628 62.2118 83.416 62.4278 83.152C62.6518 82.88 62.8118 82.572 62.9078 82.228C63.0118 81.884 63.0638 81.532 63.0638 81.172C63.0638 80.812 63.0038 80.472 62.8838 80.152C62.7718 79.824 62.5958 79.54 62.3558 79.3C62.1238 79.06 61.8318 78.868 61.4798 78.724C61.1278 78.58 60.7158 78.508 60.2438 78.508ZM62.9678 84.988C64.0318 85.316 64.8278 85.836 65.3558 86.548C65.8918 87.26 66.1598 88.144 66.1598 89.2C66.1598 89.96 66.0158 90.648 65.7278 91.264C65.4398 91.88 65.0358 92.404 64.5158 92.836C63.9958 93.268 63.3718 93.604 62.6438 93.844C61.9238 94.076 61.1238 94.192 60.2438 94.192C59.3638 94.192 58.5598 94.076 57.8318 93.844C57.1118 93.604 56.4918 93.268 55.9718 92.836C55.4518 92.404 55.0478 91.88 54.7598 91.264C54.4718 90.648 54.3278 89.96 54.3278 89.2C54.3278 88.144 54.5918 87.26 55.1198 86.548C55.6558 85.836 56.4558 85.316 57.5198 84.988C56.6558 84.644 56.0038 84.144 55.5638 83.488C55.1318 82.832 54.9158 82.044 54.9158 81.124C54.9158 80.476 55.0438 79.872 55.2998 79.312C55.5558 78.752 55.9158 78.268 56.3798 77.86C56.8518 77.444 57.4158 77.12 58.0718 76.888C58.7278 76.648 59.4518 76.528 60.2438 76.528C61.0358 76.528 61.7558 76.648 62.4038 76.888C63.0598 77.12 63.6198 77.444 64.0838 77.86C64.5558 78.268 64.9198 78.752 65.1758 79.312C65.4398 79.872 65.5718 80.476 65.5718 81.124C65.5718 82.044 65.3518 82.832 64.9118 83.488C64.4798 84.144 63.8318 84.644 62.9678 84.988ZM79.7336 91.564C80.0136 91.564 80.2336 91.648 80.3936 91.816C80.5536 91.976 80.6336 92.184 80.6336 92.44V94H68.9456V93.124C68.9456 92.948 68.9816 92.764 69.0536 92.572C69.1256 92.38 69.2416 92.204 69.4016 92.044L74.7776 86.656C75.2336 86.2 75.6376 85.764 75.9896 85.348C76.3496 84.932 76.6536 84.516 76.9016 84.1C77.1576 83.684 77.3496 83.264 77.4776 82.84C77.6136 82.408 77.6816 81.956 77.6816 81.484C77.6816 81.028 77.6096 80.628 77.4656 80.284C77.3296 79.932 77.1376 79.644 76.8896 79.42C76.6496 79.188 76.3576 79.016 76.0136 78.904C75.6776 78.784 75.3056 78.724 74.8976 78.724C74.5056 78.724 74.1416 78.78 73.8056 78.892C73.4776 79.004 73.1816 79.16 72.9176 79.36C72.6616 79.56 72.4456 79.8 72.2696 80.08C72.1016 80.352 71.9776 80.652 71.8976 80.98C71.7776 81.308 71.6216 81.528 71.4296 81.64C71.2456 81.752 70.9736 81.776 70.6136 81.712L69.2576 81.472C69.3776 80.656 69.6016 79.94 69.9296 79.324C70.2656 78.708 70.6856 78.196 71.1896 77.788C71.6936 77.372 72.2696 77.06 72.9176 76.852C73.5736 76.636 74.2816 76.528 75.0416 76.528C75.8096 76.528 76.5136 76.644 77.1536 76.876C77.8016 77.1 78.3576 77.424 78.8216 77.848C79.2936 78.264 79.6616 78.772 79.9256 79.372C80.1896 79.972 80.3216 80.648 80.3216 81.4C80.3216 82.04 80.2256 82.632 80.0336 83.176C79.8496 83.72 79.5976 84.24 79.2776 84.736C78.9576 85.232 78.5816 85.716 78.1496 86.188C77.7256 86.652 77.2776 87.124 76.8056 87.604L72.6296 91.876C72.9736 91.78 73.3176 91.704 73.6616 91.648C74.0136 91.592 74.3456 91.564 74.6576 91.564H79.7336Z" fill="white"/>
<path d="M209.5 55.5V40.5M209.5 40.5L204.5 45.5M209.5 40.5L214.5 45.5" stroke="#61FF00" stroke-width="2"/>
</g>
<rect x="0.5" y="0.5" width="290" height="146" rx="14.5" stroke="#00349A"/>
</g>
<defs>
<filter id="filter0_b_177_42" x="-500" y="-500" width="1291" height="1147" filterUnits="userSpaceOnUse" color-interpolation-filters="sRGB">
<feFlood flood-opacity="0" result="BackgroundImageFix"/>
<feGaussianBlur in="BackgroundImageFix" stdDeviation="250"/>
<feComposite in2="SourceAlpha" operator="in" result="effect1_backgroundBlur_177_42"/>
<feBlend mode="normal" in="SourceGraphic" in2="effect1_backgroundBlur_177_42" result="shape"/>
</filter>
<clipPath id="clip0_177_42">
<rect width="291" height="147" rx="15" fill="white"/>
</clipPath>
</defs>
</svg>
