<svg width="75" height="75" viewBox="0 0 75 75" fill="none" xmlns="http://www.w3.org/2000/svg">
<rect x="0.5" y="0.5" width="74" height="74" rx="37" fill="black"/>
<rect x="0.5" y="0.5" width="74" height="74" rx="37" stroke="#FE8643"/>
<path d="M52.858 27.8278L39.0541 20.2717C38.7314 20.0935 38.3687 20 38 20C37.6313 20 37.2686 20.0935 36.9459 20.2717L23.142 27.8294C22.7966 28.0184 22.5083 28.2968 22.3074 28.6354C22.1065 28.974 22.0003 29.3604 22 29.7541V44.7564C22.0003 45.1502 22.1065 45.5366 22.3074 45.8752C22.5083 46.2138 22.7966 46.4922 23.142 46.6812L36.9459 54.2388C37.2687 54.4168 37.6314 54.5101 38 54.5101C38.3686 54.5101 38.7313 54.4168 39.0541 54.2388L52.858 46.6812C53.2034 46.4922 53.4917 46.2138 53.6926 45.8752C53.8935 45.5366 53.9997 45.1502 54 44.7564V29.7541C54 29.3601 53.8939 28.9734 53.693 28.6345C53.4921 28.2956 53.2037 28.0169 52.858 27.8278ZM37.8431 21.9219C37.8893 21.8967 37.9411 21.8834 37.9937 21.8834C38.0464 21.8834 38.0981 21.8967 38.1443 21.9219L51.2565 29.0984L38 36.3517L24.7435 29.0984L37.8431 21.9219ZM24.0392 45.031C23.9911 45.0032 23.9512 44.9631 23.9237 44.9149C23.8961 44.8667 23.8819 44.812 23.8824 44.7564V30.7706L37.0588 37.9863V52.1572L24.0392 45.031ZM51.9482 45.031L38.9412 52.1572V37.9831L52.1176 30.7674V44.7533C52.1187 44.8094 52.1047 44.8647 52.0771 44.9136C52.0495 44.9624 52.0094 45.0029 51.9608 45.031H51.9482Z" fill="#FE8643"/>
</svg>
