<svg width="75" height="75" viewBox="0 0 75 75" fill="none" xmlns="http://www.w3.org/2000/svg">
<rect x="0.5" y="0.5" width="74" height="74" rx="37" fill="black"/>
<rect x="0.5" y="0.5" width="74" height="74" rx="37" stroke="#00349A"/>
<path d="M50 29.9286V38.8571C50 41.2251 49.0593 43.4962 47.3849 45.1706C45.7104 46.845 43.4394 47.7857 41.0714 47.7857H35.7143M35.7143 47.7857L41.0714 42.4286M35.7143 47.7857L41.0714 53.1429M25 44.2143V35.2857C25 32.9177 25.9407 30.6467 27.6151 28.9723C29.2895 27.2978 31.5606 26.3571 33.9286 26.3571H39.2857M39.2857 26.3571L33.9286 21M39.2857 26.3571L33.9286 31.7143" stroke="#0038A4" stroke-width="2" stroke-linecap="round" stroke-linejoin="round"/>
</svg>
