<svg width="75" height="75" viewBox="0 0 75 75" fill="none" xmlns="http://www.w3.org/2000/svg">
<rect x="0.5" y="0.5" width="74" height="74" rx="37" fill="black"/>
<rect x="0.5" y="0.5" width="74" height="74" rx="37" stroke="#5200FF"/>
<path d="M49.241 33.575C48.6269 32.0358 47.7059 30.6377 46.5341 29.4659C45.3623 28.2941 43.9642 27.3731 42.425 26.759C42.0695 24.632 40.2275 23 38 23C35.7725 23 33.9305 24.632 33.575 26.759C32.0356 27.3728 30.6374 28.2937 29.4655 29.4655C28.2937 30.6374 27.3728 32.0356 26.759 33.575C24.632 33.9305 23 35.7725 23 38C23 40.2275 24.632 42.0695 26.759 42.425C27.3731 43.9642 28.2941 45.3623 29.4659 46.5341C30.6377 47.7059 32.0358 48.6269 33.575 49.241C33.9305 51.368 35.7725 53 38 53C40.2275 53 42.0695 51.368 42.425 49.241C43.9642 48.6269 45.3623 47.7059 46.5341 46.5341C47.7059 45.3623 48.6269 43.9642 49.241 42.425C51.368 42.0695 53 40.2275 53 38C53 35.7725 51.368 33.9305 49.241 33.575ZM38 26C38.3978 26 38.7794 26.158 39.0607 26.4393C39.342 26.7206 39.5 27.1022 39.5 27.5C39.5 27.59 39.4655 27.665 39.449 27.7505C39.4278 27.8953 39.3859 28.0362 39.3245 28.169C39.3035 28.2095 39.2735 28.2425 39.248 28.2815C39.1813 28.3955 39.1007 28.5009 39.008 28.595C38.948 28.6505 38.873 28.688 38.804 28.733C38.723 28.787 38.648 28.85 38.5565 28.8875C38.384 28.958 38.198 29 38 29C37.802 29 37.616 28.958 37.4435 28.8875C37.352 28.8515 37.277 28.7885 37.196 28.733C37.127 28.688 37.052 28.6505 36.992 28.595C36.8993 28.5009 36.8187 28.3955 36.752 28.2815C36.7265 28.2425 36.6965 28.2095 36.6755 28.169C36.6143 28.0361 36.5724 27.8952 36.551 27.7505C36.5345 27.665 36.5 27.59 36.5 27.5C36.5 27.1022 36.658 26.7206 36.9393 26.4393C37.2206 26.158 37.6022 26 38 26ZM27.5 36.5C27.59 36.5 27.665 36.5345 27.7505 36.551C27.899 36.5765 28.0415 36.6125 28.169 36.6755C28.2095 36.6965 28.2425 36.7265 28.2815 36.752C28.394 36.8225 28.505 36.8975 28.595 36.992C28.6505 37.052 28.688 37.127 28.733 37.196C28.787 37.277 28.85 37.352 28.8875 37.4435C28.958 37.616 29 37.802 29 38C29 38.198 28.958 38.384 28.8875 38.5565C28.8515 38.648 28.7885 38.723 28.733 38.804C28.688 38.873 28.6505 38.948 28.595 39.008C28.505 39.1025 28.394 39.1775 28.2815 39.248C28.2425 39.2735 28.2095 39.3035 28.169 39.3245C28.0361 39.3857 27.8952 39.4276 27.7505 39.449C27.665 39.4655 27.59 39.5 27.5 39.5C27.1022 39.5 26.7206 39.342 26.4393 39.0607C26.158 38.7794 26 38.3978 26 38C26 37.6022 26.158 37.2206 26.4393 36.9393C26.7206 36.658 27.1022 36.5 27.5 36.5ZM38 50C37.6022 50 37.2206 49.842 36.9393 49.5607C36.658 49.2794 36.5 48.8978 36.5 48.5C36.5 48.41 36.5345 48.335 36.551 48.2495C36.5765 48.101 36.6125 47.9585 36.6755 47.831C36.6965 47.7905 36.7265 47.7575 36.752 47.7185C36.8225 47.606 36.8975 47.495 36.992 47.405C37.052 47.3495 37.127 47.312 37.196 47.267C37.277 47.213 37.352 47.15 37.4435 47.1125C37.616 47.042 37.802 47 38 47C38.198 47 38.384 47.042 38.5565 47.1125C38.648 47.1485 38.723 47.2115 38.804 47.267C38.873 47.312 38.948 47.3495 39.008 47.405C39.1025 47.495 39.1775 47.606 39.248 47.7185C39.2735 47.7575 39.3035 47.7905 39.3245 47.831C39.3875 47.9585 39.4235 48.1025 39.449 48.2495C39.4655 48.335 39.5 48.41 39.5 48.5C39.5 48.8978 39.342 49.2794 39.0607 49.5607C38.7794 49.842 38.3978 50 38 50ZM41.8745 46.232C41.8655 46.2155 41.849 46.2035 41.8415 46.1885C41.4709 45.5732 40.9587 45.0554 40.3475 44.678C40.2665 44.6285 40.184 44.588 40.0985 44.543C39.8653 44.4186 39.6213 44.3157 39.3695 44.2355C39.2735 44.204 39.1775 44.1695 39.0785 44.144C38.729 44.0585 38.372 44 38 44C37.628 44 37.271 44.0585 36.923 44.1455C36.824 44.171 36.728 44.204 36.6305 44.237C36.3793 44.3174 36.1358 44.4204 35.903 44.5445C35.819 44.588 35.735 44.63 35.654 44.6795C35.0428 45.0569 34.5306 45.5747 34.16 46.19C34.151 46.2065 34.1345 46.2185 34.127 46.2335C32.218 45.3234 30.6796 43.785 29.7695 41.876C29.786 41.867 29.798 41.8505 29.813 41.843C30.4283 41.4724 30.9461 40.9602 31.3235 40.349C31.373 40.268 31.415 40.184 31.4585 40.1C31.583 39.869 31.6835 39.626 31.766 39.3725C31.7975 39.275 31.832 39.179 31.8575 39.08C31.9415 38.729 32 38.372 32 38C32 37.628 31.9415 37.271 31.8545 36.923C31.8279 36.8248 31.7973 36.7278 31.763 36.632C31.6828 36.3802 31.5799 36.1362 31.4555 35.903C31.4105 35.8175 31.37 35.735 31.3205 35.654C30.9431 35.0428 30.4253 34.5306 29.81 34.16C29.795 34.151 29.783 34.1345 29.768 34.1255C30.6781 32.2165 32.2165 30.6781 34.1255 29.768C34.1345 29.783 34.151 29.795 34.1585 29.8115C34.5305 30.428 35.0405 30.944 35.6525 31.322C35.7335 31.3715 35.8175 31.4135 35.9015 31.457C36.134 31.5815 36.3755 31.682 36.6305 31.7645C36.7265 31.796 36.8225 31.8305 36.9215 31.856C37.271 31.9415 37.6265 32 38 32C38.4657 31.9937 38.9274 31.9137 39.368 31.763C39.623 31.6805 39.8645 31.58 40.097 31.4555C40.181 31.412 40.265 31.37 40.346 31.3205C40.958 30.9425 41.468 30.4265 41.84 29.81C41.849 29.7935 41.8655 29.7815 41.873 29.7665C43.782 30.6766 45.3204 32.215 46.2305 34.124C46.214 34.133 46.202 34.1495 46.187 34.157C45.5717 34.5276 45.0539 35.0398 44.6765 35.651C44.627 35.732 44.585 35.816 44.5415 35.9C44.417 36.1325 44.3165 36.374 44.234 36.629C44.2025 36.725 44.168 36.821 44.1425 36.92C44.0524 37.2731 44.0046 37.6356 44 38C44.0063 38.4657 44.0863 38.9274 44.237 39.368C44.3195 39.623 44.42 39.8645 44.5445 40.097C44.588 40.181 44.63 40.265 44.6795 40.346C45.0575 40.958 45.5735 41.468 46.19 41.84C46.2065 41.849 46.2185 41.8655 46.2335 41.873C45.3238 43.7832 43.7847 45.3223 41.8745 46.232ZM48.5 39.5C48.41 39.5 48.335 39.4655 48.2495 39.449C48.1047 39.4278 47.9638 39.3859 47.831 39.3245C47.7905 39.3035 47.7575 39.2735 47.7185 39.248C47.6045 39.1813 47.4991 39.1007 47.405 39.008C47.3495 38.948 47.312 38.873 47.267 38.804C47.213 38.723 47.15 38.648 47.1125 38.5565C47.042 38.384 47 38.198 47 38C47 37.802 47.042 37.616 47.1125 37.4435C47.1485 37.352 47.2115 37.277 47.267 37.196C47.312 37.127 47.3495 37.052 47.405 36.992C47.495 36.8975 47.606 36.8225 47.7185 36.752C47.7575 36.7265 47.7905 36.6965 47.831 36.6755C47.9585 36.6125 48.1025 36.5765 48.2495 36.551C48.335 36.5345 48.41 36.5 48.5 36.5C48.8978 36.5 49.2794 36.658 49.5607 36.9393C49.842 37.2206 50 37.6022 50 38C50 38.3978 49.842 38.7794 49.5607 39.0607C49.2794 39.342 48.8978 39.5 48.5 39.5Z" fill="#7C2BFF"/>
</svg>
